<svg width="270" height="68" viewBox="0 0 270 68" fill="none" xmlns="http://www.w3.org/2000/svg">
<path d="M90.9358 18.9439H101.192V30.3766H97.8291L96.9884 28.359C96.4852 28.7961 95.9321 29.1723 95.3408 29.4799C94.7372 29.7838 94.1068 30.0314 93.4578 30.2196C92.6381 30.4547 91.7884 30.568 90.9358 30.5559C89.5451 30.565 88.1675 30.2864 86.8896 29.7377C85.6306 29.2219 84.4873 28.4598 83.527 27.496C82.5739 26.5056 81.8137 25.3463 81.2853 24.0774C80.1826 21.3682 80.1826 18.3353 81.2853 15.6261C81.8108 14.3524 82.5713 13.1889 83.527 12.1963C84.4873 11.2325 85.6306 10.4704 86.8896 9.95461C88.1667 9.40201 89.5443 9.11961 90.9358 9.12518C93.239 9.0982 95.4763 9.89299 97.2462 11.3669C98.8437 12.7061 99.9871 14.5073 100.519 16.5228L95.4753 16.8591C95.3354 16.4617 95.1432 16.0848 94.9037 15.7382C94.6434 15.3654 94.3256 15.0362 93.9621 14.7631C93.5625 14.463 93.1154 14.2319 92.6395 14.0793C92.0892 13.9024 91.5139 13.8154 90.9358 13.8216C90.1939 13.8191 89.46 13.9758 88.7838 14.2811C88.1191 14.5775 87.5207 15.0044 87.0241 15.5365C86.5059 16.0932 86.0989 16.7437 85.8247 17.4531C85.2422 19.0146 85.2422 20.7337 85.8247 22.2952C86.0989 23.0046 86.5059 23.6551 87.0241 24.2119C87.5202 24.7472 88.1186 25.1779 88.7838 25.4784C89.4608 25.7802 90.1947 25.9331 90.9358 25.9268C91.5465 25.9376 92.1551 25.8545 92.7404 25.6802C93.2322 25.5293 93.6974 25.3024 94.1191 25.0077C94.4842 24.7503 94.8058 24.4362 95.0718 24.0774C95.3041 23.7665 95.4961 23.4276 95.6434 23.0686H90.9358V18.9439Z" fill="#112369"/>
<path d="M109.43 30.3765H104.947V9.19238H109.43V30.3765Z" fill="#112369"/>
<path d="M112.456 22.6427C112.443 21.5533 112.657 20.473 113.084 19.4707C113.477 18.5171 114.052 17.6491 114.776 16.9152C115.494 16.1853 116.346 15.6027 117.287 15.2003C118.258 14.7871 119.303 14.5742 120.358 14.5742C121.414 14.5742 122.458 14.7871 123.429 15.2003C124.37 15.6027 125.223 16.1853 125.94 16.9152C126.661 17.6521 127.235 18.5193 127.633 19.4707C128.469 21.5066 128.469 23.7901 127.633 25.826C127.235 26.7773 126.661 27.6446 125.94 28.3815C125.223 29.1114 124.37 29.6939 123.429 30.0964C122.457 30.5033 121.413 30.7129 120.358 30.7129C119.304 30.7129 118.26 30.5033 117.287 30.0964C116.346 29.6939 115.494 29.1114 114.776 28.3815C113.277 26.8489 112.443 24.7866 112.456 22.6427ZM123.665 22.6427C123.72 21.6101 123.37 20.5967 122.69 19.8182C122.385 19.4888 122.016 19.2259 121.605 19.0461C121.194 18.8664 120.751 18.7736 120.302 18.7736C119.854 18.7736 119.41 18.8664 118.999 19.0461C118.588 19.2259 118.219 19.4888 117.915 19.8182C117.234 20.5967 116.884 21.6101 116.94 22.6427C116.884 23.6753 117.234 24.6888 117.915 25.4673C118.219 25.7967 118.588 26.0595 118.999 26.2393C119.41 26.4191 119.854 26.5119 120.302 26.5119C120.751 26.5119 121.194 26.4191 121.605 26.2393C122.016 26.0595 122.385 25.7967 122.69 25.4673C123.391 24.6975 123.761 23.6831 123.721 22.6427H123.665Z" fill="#112369"/>
<path d="M139.693 30.5446C139.062 30.5483 138.434 30.4537 137.832 30.2644C137.352 30.1194 136.889 29.9201 136.454 29.6704C136.048 29.4362 135.671 29.1539 135.333 28.8297L134.66 30.3429H131.298V9.19238H135.781V16.0856C136.101 15.8208 136.451 15.5951 136.824 15.4131C137.216 15.2107 137.629 15.0528 138.056 14.9424C138.575 14.8021 139.111 14.7342 139.648 14.7406C140.599 14.7415 141.539 14.944 142.405 15.3347C143.276 15.7268 144.06 16.2867 144.714 16.9823C146.112 18.5133 146.884 20.5134 146.878 22.5866C146.896 24.6819 146.123 26.7071 144.714 28.2581C144.06 28.9537 143.276 29.5136 142.405 29.9058C141.556 30.3077 140.632 30.5254 139.693 30.5446ZM142.383 22.6987C142.404 22.2118 142.328 21.7256 142.161 21.2678C141.993 20.8101 141.738 20.3899 141.408 20.031C141.101 19.7061 140.731 19.4472 140.32 19.2703C139.91 19.0933 139.467 19.0021 139.02 19.0021C138.573 19.0021 138.131 19.0933 137.721 19.2703C137.31 19.4472 136.94 19.7061 136.633 20.031C136.303 20.3899 136.047 20.8101 135.88 21.2678C135.713 21.7256 135.637 22.2118 135.658 22.6987C135.616 23.6855 135.966 24.6488 136.633 25.3775C136.942 25.6996 137.312 25.9559 137.723 26.131C138.133 26.3061 138.574 26.3964 139.02 26.3964C139.467 26.3964 139.908 26.3061 140.318 26.131C140.729 25.9559 141.099 25.6996 141.408 25.3775C141.745 25.0099 142.005 24.5785 142.172 24.1088C142.34 23.639 142.411 23.1405 142.383 22.6426V22.6987Z" fill="#112369"/>
<path d="M156.674 14.5724C157.548 14.5639 158.416 14.7237 159.229 15.0431C159.993 15.344 160.688 15.7979 161.269 16.3769C161.845 16.9552 162.295 17.6458 162.592 18.4057C162.911 19.2194 163.071 20.0871 163.063 20.9612V30.3764H159.7L159.028 28.8632C158.222 29.4937 157.306 29.9688 156.326 30.2643C155.729 30.4369 155.11 30.52 154.488 30.5109C153.091 30.6073 151.709 30.1708 150.621 29.2892C150.182 28.893 149.835 28.4062 149.602 27.8623C149.37 27.3185 149.259 26.7307 149.276 26.1396C149.27 25.4152 149.427 24.6988 149.736 24.0436C150.086 23.3658 150.623 22.802 151.283 22.4183C152.159 21.8811 153.122 21.5017 154.13 21.2975C155.584 21.0115 157.064 20.88 158.546 20.9052C158.589 20.2703 158.384 19.6434 157.974 19.1567C157.79 18.959 157.566 18.8028 157.316 18.6985C157.067 18.5941 156.798 18.544 156.528 18.5514C156.17 18.5355 155.816 18.6251 155.508 18.8092C155.277 18.9521 155.066 19.1255 154.881 19.3248C154.705 19.5415 154.579 19.794 154.511 20.0645L149.971 19.7283C150.096 18.9971 150.334 18.2899 150.677 17.6323C151.01 17.0009 151.463 16.441 152.011 15.9846C152.596 15.4836 153.274 15.1027 154.006 14.8638C154.875 14.6276 155.775 14.5293 156.674 14.5724ZM155.665 27.182C156.046 27.2048 156.428 27.1466 156.785 27.011C157.143 26.8755 157.467 26.6657 157.737 26.3956C158.007 26.1255 158.217 25.8012 158.352 25.4441C158.488 25.0869 158.546 24.7051 158.523 24.3238V23.6513C157.732 23.6411 156.941 23.6936 156.158 23.8082C155.658 23.8712 155.17 24.0111 154.712 24.2229C154.411 24.3485 154.161 24.5741 154.006 24.8618C153.88 25.1121 153.815 25.3886 153.816 25.6688C153.804 25.8812 153.843 26.0934 153.929 26.2881C154.014 26.4828 154.145 26.6546 154.309 26.7897C154.696 27.0852 155.18 27.2252 155.665 27.182Z" fill="#112369"/>
<path d="M171.133 30.3765H166.594V9.19238H171.133V30.3765Z" fill="#112369"/>
<path d="M90.9358 54.4189C92.076 54.4857 93.2031 54.1484 94.1191 53.4661C94.8463 52.8941 95.3788 52.1111 95.6434 51.2244L100.687 51.5607C100.436 52.5814 100.027 53.5569 99.4767 54.4525C98.9219 55.367 98.2171 56.1816 97.392 56.8623C96.532 57.5647 95.5627 58.1213 94.5226 58.51C92.0392 59.3891 89.3171 59.3091 86.8896 58.2858C85.6306 57.7701 84.4873 57.0079 83.527 56.0441C82.5796 55.0704 81.8197 53.9305 81.2853 52.6815C80.1826 49.9724 80.1826 46.9395 81.2853 44.2303C81.8108 42.9566 82.5713 41.793 83.527 40.8005C84.4873 39.8367 85.6306 39.0745 86.8896 38.5588C88.1667 38.0062 89.5443 37.7238 90.9358 37.7294C92.1268 37.7191 93.3091 37.932 94.4217 38.357C95.4465 38.749 96.4006 39.3055 97.2462 40.0047C98.0612 40.6851 98.7581 41.4955 99.3086 42.4033C99.8592 43.2989 100.268 44.2744 100.519 45.2951L95.4753 45.6314C95.3401 45.204 95.1479 44.7968 94.9037 44.4209C94.6504 44.0328 94.3319 43.6915 93.9621 43.4121C93.5687 43.0692 93.122 42.7928 92.6395 42.5939C92.0911 42.4077 91.5149 42.3167 90.9358 42.3249C90.1939 42.3224 89.46 42.4791 88.7838 42.7844C88.1191 43.0808 87.5207 43.5077 87.0241 44.0398C86.5059 44.5965 86.0989 45.247 85.8247 45.9564C85.2422 47.5179 85.2422 49.237 85.8247 50.7985C86.1026 51.496 86.5095 52.1348 87.0241 52.6815C87.5202 53.2169 88.1186 53.6476 88.7838 53.9481C89.4591 54.2576 90.193 54.4181 90.9358 54.4189Z" fill="#112369"/>
<path d="M102.705 51.2242C102.692 50.1348 102.905 49.0545 103.332 48.0522C103.73 47.1008 104.304 46.2336 105.025 45.4967C105.752 44.7631 106.617 44.1804 107.569 43.7818C108.542 43.3671 109.589 43.1533 110.646 43.1533C111.704 43.1533 112.75 43.3671 113.723 43.7818C114.66 44.1855 115.509 44.768 116.222 45.4967C116.947 46.233 117.525 47.1002 117.926 48.0522C118.748 50.0908 118.748 52.3688 117.926 54.4074C117.525 55.3595 116.947 56.2267 116.222 56.963C115.509 57.6917 114.66 58.2742 113.723 58.6779C112.748 59.0845 111.702 59.2939 110.646 59.2939C109.59 59.2939 108.544 59.0845 107.569 58.6779C106.629 58.2754 105.776 57.6929 105.059 56.963C104.338 56.226 103.763 55.3588 103.366 54.4074C102.926 53.4042 102.701 52.3198 102.705 51.2242ZM113.913 51.2242C113.969 50.1916 113.619 49.1781 112.938 48.3997C112.634 48.0703 112.265 47.8074 111.854 47.6276C111.443 47.4479 110.999 47.3551 110.551 47.3551C110.102 47.3551 109.659 47.4479 109.248 47.6276C108.837 47.8074 108.468 48.0703 108.163 48.3997C107.542 49.2015 107.204 50.1872 107.204 51.2018C107.204 52.2164 107.542 53.2021 108.163 54.0039C108.468 54.3333 108.837 54.5962 109.248 54.776C109.659 54.9557 110.102 55.0485 110.551 55.0485C110.999 55.0485 111.443 54.9557 111.854 54.776C112.265 54.5962 112.634 54.3333 112.938 54.0039C113.628 53.2454 113.998 52.2492 113.969 51.2242H113.913Z" fill="#112369"/>
<path d="M129.437 43.3224C130.124 43.3079 130.807 43.4181 131.455 43.6474C131.939 43.8205 132.402 44.05 132.833 44.3312C133.219 44.6036 133.549 44.9457 133.808 45.3399C134.177 44.9506 134.596 44.6115 135.053 44.3312C135.513 44.0595 135.997 43.8306 136.499 43.6474C137.09 43.427 137.717 43.3169 138.348 43.3224C139.097 43.2889 139.844 43.4156 140.54 43.6939C141.236 43.9723 141.864 44.3959 142.383 44.9364C143.483 46.2738 144.025 47.9842 143.896 49.7113V58.9583H139.413V50.2156C139.46 49.4953 139.227 48.7846 138.763 48.2317C138.572 48.0111 138.336 47.834 138.071 47.7121C137.807 47.5903 137.519 47.5267 137.227 47.5256C136.937 47.5269 136.651 47.5906 136.388 47.7125C136.125 47.8343 135.891 48.0114 135.703 48.2317C135.236 48.7835 134.999 49.4939 135.041 50.2156V58.9583H130.558V50.2156C130.605 49.4953 130.372 48.7846 129.908 48.2317C129.717 48.0111 129.482 47.834 129.217 47.7121C128.952 47.5903 128.664 47.5267 128.372 47.5256C128.082 47.5269 127.796 47.5906 127.533 47.7125C127.27 47.8343 127.036 48.0114 126.848 48.2317C126.381 48.7835 126.144 49.4939 126.187 50.2156V58.9583H121.647V43.4905H125.01L125.682 45.0037C125.99 44.677 126.34 44.3941 126.725 44.163C127.118 43.9357 127.53 43.7443 127.958 43.5914C128.432 43.4191 128.932 43.3281 129.437 43.3224Z" fill="#112369"/>
<path d="M155.329 43.3224C156.016 43.3079 156.699 43.4181 157.346 43.6474C157.831 43.8205 158.294 44.05 158.725 44.3312C159.11 44.6036 159.441 44.9457 159.7 45.3399C160.069 44.9506 160.487 44.6115 160.944 44.3312C161.404 44.0595 161.888 43.8306 162.39 43.6474C162.982 43.427 163.609 43.3169 164.24 43.3224C164.988 43.2889 165.736 43.4156 166.431 43.6939C167.127 43.9723 167.756 44.3959 168.275 44.9364C169.375 46.2738 169.917 47.9842 169.788 49.7113V58.9583H165.305V50.2156C165.351 49.4953 165.119 48.7846 164.654 48.2317C164.464 48.0111 164.228 47.834 163.963 47.7121C163.698 47.5903 163.41 47.5267 163.119 47.5256C162.829 47.5269 162.543 47.5906 162.28 47.7125C162.017 47.8343 161.783 48.0114 161.595 48.2317C161.127 48.7835 160.891 49.4939 160.933 50.2156V58.9583H156.394V50.2156C156.441 49.4953 156.208 48.7846 155.744 48.2317C155.553 48.0111 155.317 47.834 155.052 47.7121C154.788 47.5903 154.5 47.5267 154.208 47.5256C153.918 47.5269 153.632 47.5906 153.369 47.7125C153.106 47.8343 152.872 48.0114 152.684 48.2317C152.217 48.7835 151.98 49.4939 152.022 50.2156V58.9583H147.483V43.4905H150.846L151.518 45.0037C151.825 44.677 152.176 44.3941 152.56 44.163C152.953 43.9357 153.366 43.7443 153.793 43.5914C154.286 43.4127 154.805 43.3217 155.329 43.3224Z" fill="#112369"/>
<path d="M179.371 59.1264C178.51 59.1399 177.653 58.9877 176.849 58.678C176.108 58.3882 175.439 57.9407 174.888 57.3666C174.324 56.7703 173.889 56.0645 173.61 55.2931C173.294 54.4202 173.138 53.4975 173.15 52.5694V43.4905H177.69V51.7288C177.645 52.5862 177.93 53.4283 178.486 54.0825C179.039 54.6227 179.781 54.9251 180.554 54.9251C181.327 54.9251 182.069 54.6227 182.622 54.0825C183.18 53.4301 183.461 52.5856 183.406 51.7288V43.4905H187.946V58.9583H184.583L183.911 57.4451C183.108 58.0875 182.191 58.5741 181.209 58.8798C180.612 59.0524 179.993 59.1355 179.371 59.1264Z" fill="#112369"/>
<path d="M200.219 43.3225C201.081 43.3126 201.938 43.4686 202.741 43.7821C203.482 44.0719 204.151 44.5194 204.702 45.0935C205.266 45.6879 205.704 46.3892 205.991 47.1558C206.298 48.0308 206.45 48.9525 206.44 49.8795V58.9584H201.9V50.7201C201.945 49.8627 201.661 49.0206 201.105 48.3663C200.554 47.8269 199.813 47.5248 199.042 47.5248C198.271 47.5248 197.531 47.8269 196.98 48.3663C196.413 49.0146 196.127 49.8611 196.184 50.7201V58.9584H191.633V43.4906H194.996L195.668 45.0038C196.048 44.6754 196.466 44.3932 196.913 44.1631C197.379 43.9362 197.863 43.7451 198.358 43.5915C198.961 43.4053 199.589 43.3145 200.219 43.3225Z" fill="#112369"/>
<path d="M209.971 39.2874C209.968 38.9583 210.034 38.6322 210.163 38.3294C210.292 38.0267 210.482 37.7538 210.721 37.5277C210.953 37.2951 211.229 37.1105 211.532 36.9843C211.835 36.8582 212.16 36.793 212.488 36.7925C212.817 36.792 213.142 36.8561 213.446 36.9813C213.749 37.1065 214.025 37.2902 214.258 37.5221C214.49 37.7539 214.675 38.0293 214.801 38.3324C214.927 38.6356 214.992 38.9607 214.993 39.2891C214.993 39.6174 214.929 39.9427 214.804 40.2463C214.679 40.5499 214.495 40.8258 214.263 41.0584C213.911 41.4062 213.464 41.6425 212.978 41.7378C212.492 41.8331 211.988 41.7832 211.531 41.5943C211.073 41.4055 210.681 41.086 210.403 40.6757C210.126 40.2655 209.975 39.7826 209.971 39.2874ZM214.678 58.9584H210.139V43.4906H214.678V58.9584Z" fill="#112369"/>
<path d="M220.058 47.6937H217.704V43.8267H218.881C219.136 43.8701 219.397 43.8526 219.643 43.7758C219.89 43.6989 220.115 43.5648 220.299 43.3844C220.484 43.2041 220.624 42.9826 220.706 42.738C220.789 42.4934 220.813 42.2328 220.776 41.9773V39.7356H224.642V43.4344H227.837V47.6376H224.642V52.6815C224.615 53.2701 224.82 53.8459 225.214 54.2843C225.401 54.4767 225.627 54.628 225.876 54.7284C226.125 54.8287 226.392 54.876 226.66 54.8671H227.131L227.501 54.8111C227.616 54.7878 227.728 54.754 227.837 54.7102V58.7453C227.64 58.8174 227.438 58.8737 227.232 58.9134C226.714 59.0332 226.183 59.0897 225.651 59.0815C224.904 59.1304 224.155 59.0264 223.45 58.7759C222.745 58.5253 222.098 58.1335 221.549 57.6244C221.037 57.046 220.646 56.3715 220.398 55.6402C220.149 54.9089 220.049 54.1356 220.103 53.3652L220.058 47.6937Z" fill="#112369"/>
<path d="M231.323 39.2874C231.321 38.9583 231.386 38.6322 231.515 38.3294C231.644 38.0267 231.835 37.7538 232.074 37.5277C232.426 37.1805 232.872 36.9444 233.357 36.8487C233.842 36.753 234.344 36.802 234.802 36.9895C235.259 37.177 235.651 37.4947 235.929 37.9033C236.208 38.3118 236.36 38.7932 236.367 39.2874C236.367 39.6179 236.3 39.9449 236.171 40.2492C236.042 40.5534 235.853 40.8286 235.616 41.0584C235.263 41.4062 234.816 41.6425 234.33 41.7378C233.844 41.8331 233.341 41.7832 232.883 41.5943C232.425 41.4055 232.033 41.086 231.756 40.6757C231.478 40.2655 231.328 39.7827 231.323 39.2874ZM236.03 58.9584H231.491V43.4906H236.03V58.9584Z" fill="#112369"/>
<path d="M254.401 54.419C253.954 55.7596 253.11 56.9325 251.98 57.7816C251.344 58.2676 250.632 58.6462 249.873 58.9024C249.001 59.1835 248.088 59.3198 247.172 59.3059C246.149 59.3149 245.136 59.1047 244.201 58.6895C243.277 58.2819 242.439 57.6996 241.736 56.9745C241.022 56.2341 240.452 55.3676 240.054 54.419C239.232 52.3804 239.232 50.1024 240.054 48.0638C240.455 47.1117 241.033 46.2445 241.758 45.5082C242.472 44.7795 243.321 44.197 244.257 43.7933C246.169 42.9814 248.322 42.9532 250.254 43.7148C251.16 44.0914 251.98 44.6482 252.664 45.3513C253.358 46.0914 253.903 46.9593 254.267 47.9068C254.684 48.9776 254.886 50.1204 254.861 51.2694C254.872 51.4448 254.872 51.6208 254.861 51.7962L254.793 52.2782C254.793 52.4575 254.771 52.6256 254.726 52.7826H244.134C244.351 53.4141 244.739 53.973 245.255 54.3966C245.839 54.8998 246.592 55.164 247.362 55.1363C247.741 55.1497 248.12 55.1005 248.483 54.9906C248.743 54.9101 248.989 54.7891 249.212 54.632C249.427 54.5063 249.61 54.3339 249.75 54.1276L254.401 54.419ZM247.34 47.3576C246.566 47.3327 245.812 47.6055 245.233 48.1198C244.694 48.5832 244.304 49.1954 244.112 49.8795H250.501C250.311 49.194 249.921 48.581 249.38 48.1198C248.809 47.6059 248.062 47.3327 247.295 47.3576H247.34Z" fill="#112369"/>
<path d="M261.418 53.9146C261.483 54.3865 261.709 54.8217 262.057 55.1476C262.443 55.4656 262.936 55.6257 263.435 55.5959C263.926 55.6271 264.412 55.4798 264.803 55.1812C264.945 55.07 265.062 54.9293 265.145 54.7687C265.229 54.6082 265.276 54.4315 265.285 54.2509C265.285 53.9819 265.083 53.7689 264.702 53.6008C264.222 53.4051 263.732 53.2367 263.233 53.0964C262.651 52.9283 262.012 52.7265 261.339 52.5024C260.669 52.2897 260.029 51.9922 259.434 51.6169C258.845 51.2424 258.347 50.7407 257.977 50.1486C257.564 49.4756 257.357 48.6961 257.383 47.9069C257.381 47.2864 257.519 46.6736 257.786 46.1135C258.05 45.5395 258.432 45.0276 258.907 44.6115C259.451 44.1602 260.074 43.8143 260.745 43.5916C261.543 43.321 262.38 43.1883 263.222 43.1993C264.871 43.066 266.513 43.5272 267.851 44.4995C268.882 45.3517 269.574 46.5444 269.802 47.862L265.43 48.1983C265.325 47.8385 265.114 47.5184 264.825 47.2792C264.479 46.9858 264.034 46.8337 263.581 46.8533C263.179 46.8255 262.78 46.945 262.46 47.1895C262.343 47.2956 262.249 47.4253 262.185 47.5702C262.121 47.7151 262.089 47.8719 262.09 48.0301C262.09 48.3216 262.281 48.5457 262.673 48.7027C263.065 48.8596 263.559 49.0277 264.141 49.1958C264.724 49.364 265.352 49.5545 266.036 49.7787C266.706 49.9973 267.346 50.2985 267.941 50.6754C268.527 51.0487 269.025 51.546 269.398 52.1325C269.811 52.8055 270.018 53.5849 269.992 54.3742C269.99 55.0039 269.844 55.6249 269.566 56.19C269.274 56.793 268.857 57.3276 268.345 57.7592C267.766 58.2511 267.101 58.6311 266.383 58.88C265.541 59.1587 264.658 59.2951 263.771 59.2835C262.07 59.4089 260.38 58.9197 259.008 57.9049C257.932 56.9612 257.234 55.6587 257.046 54.2397L261.418 53.9146Z" fill="#112369"/>
<path d="M12.2968 28.5831C13.1855 29.6212 14.2913 30.4515 15.536 31.0154C20.5911 33.5709 16.8474 34.0865 15.8835 38.2001C14.9196 42.3136 20.6135 42.8516 20.6135 48.6352C20.6025 49.2411 20.6589 49.8463 20.7816 50.4398C20.9326 51.1 21.2227 51.7204 21.6324 52.2597C22.0422 52.7989 22.5622 53.2446 23.1578 53.567C23.3228 53.66 23.5123 53.7004 23.7008 53.6828C23.8894 53.6653 24.0682 53.5906 24.2132 53.4688C24.3582 53.3469 24.4625 53.1837 24.5123 53.001C24.562 52.8182 24.5548 52.6247 24.4916 52.4461C24.402 52.1435 24.2899 51.8072 24.1554 51.4486C22.3844 46.6737 33.593 43.9949 33.9629 40.5651C34.3327 37.1352 26.9015 37.4939 26.3747 34.2434C25.5789 29.2893 21.2187 33.2459 17.9907 29.9842C16.5224 28.5047 16.8698 22.2167 23.9985 22.1382C29.9726 22.0261 30.6563 21.0174 29.5019 18.4842C28.6052 16.5003 29.6364 16.5003 34.5793 16.6573C37.247 16.7357 37.8858 14.7406 35.532 11.7367C35.0165 11.7367 34.5009 11.6807 33.9741 11.6807C28.9972 11.692 24.1655 13.3592 20.2407 16.4195C16.3159 19.4798 13.5211 23.7592 12.2968 28.5831Z" fill="#8DC63F"/>
<path d="M53.6338 34.9946C53.4209 33.7953 54.4184 32.8426 56.3127 32.6632C56.0724 28.7106 54.7894 24.8921 52.5942 21.5964C50.399 18.3006 47.3699 15.6451 43.8152 13.9001C42.3581 15.021 41.9882 16.3212 42.571 17.6102C43.6134 19.8519 40.5983 20.1097 40.5983 20.1097C36.4175 20.4459 35.958 24.2232 38.861 23.9878C43.2435 23.6404 41.3941 26.577 43.8376 26.8348C46.281 27.0926 51.168 25.7924 51.6836 27.0926C52.1991 28.3928 50.7757 29.4464 49.1841 29.0765C47.5924 28.7066 47.3683 29.6369 47.3683 29.6369C44.0954 31.5088 43.3668 28.4488 38.9843 28.2695C37.034 28.1798 33.9629 30.8475 35.7002 35.3869C36.094 36.4962 36.8845 37.4203 37.9194 37.9812C38.9542 38.5421 40.1601 38.7 41.3045 38.4244C45.3059 37.5502 45.5637 42.1345 43.0866 46.4834C43.0866 46.4834 38.3902 54.6656 45.3283 53.2085C47.92 51.6692 50.1736 49.6216 51.9534 47.1887C53.7333 44.7559 55.0026 41.9882 55.685 39.0521C54.6816 37.8865 53.9776 36.4937 53.6338 34.9946Z" fill="#00984A"/>
<g opacity="0.3">
<path opacity="0.3" d="M48.0184 55.9208L52.3561 62.6459C54.4072 61.328 56.3089 59.7908 58.0276 58.0617C58.816 57.2742 59.5642 56.4474 60.2693 55.5846L55.0797 55.3716L54.1046 50.5183C53.5666 51.1796 52.9838 51.8073 52.3897 52.4238C51.0639 53.7447 49.5981 54.9173 48.0184 55.9208Z" fill="#0066B3"/>
</g>
<g opacity="0.3">
<path opacity="0.3" d="M19.6608 12.2412L15.3119 5.60571C12.3463 7.54308 9.69951 9.92901 7.46588 12.6783L12.5546 12.9249L13.5297 17.8903C14.145 17.1035 14.8075 16.3549 15.5136 15.6486C16.7786 14.377 18.168 13.2355 19.6608 12.2412Z" fill="#65CADA"/>
</g>
<g opacity="0.55">
<path opacity="0.55" d="M42.0331 67.0397C45.6954 66.151 49.1842 64.6585 52.3561 62.6236L48.0072 55.8984C45.5926 57.4393 42.9423 58.5752 40.1613 59.261L42.0331 67.0397Z" fill="#0066B3"/>
</g>
<g opacity="0.55">
<path opacity="0.55" d="M25.6349 1.03247C21.9726 1.94418 18.4876 3.45938 15.3231 5.51589L19.672 12.241C22.0756 10.6565 24.7276 9.48586 27.5179 8.77757L25.6349 1.03247Z" fill="#65CADA"/>
</g>
<path d="M28.1232 59.4067C23.8458 58.4264 19.8861 56.379 16.6134 53.4555C13.3407 50.5319 10.8615 46.8274 9.40681 42.6872C7.95213 38.5469 7.56937 34.1058 8.29422 29.7777C9.01906 25.4496 10.8279 21.3755 13.5521 17.9351L12.5882 12.9585L7.48831 12.7231C2.24873 19.2575 -0.399733 27.4932 0.0489432 35.8567C0.497619 44.2203 4.01198 52.1254 9.92056 58.0617C14.4274 62.5831 20.1257 65.7315 26.3523 67.1406L28.1232 59.4067Z" fill="#0066B3"/>
<path opacity="0.8" d="M40.1052 59.2947C36.1727 60.2509 32.0729 60.2892 28.1232 59.4068L26.3523 67.1407C31.5205 68.3197 36.8916 68.2852 42.0442 67.0398L40.1052 59.2947Z" fill="#0066B3"/>
<path d="M58.0276 9.94333C53.4802 5.38366 47.7248 2.21818 41.4389 0.81958L39.668 8.66556C44.0064 9.631 48.0252 11.6919 51.341 14.6516C54.6567 17.6114 57.1589 21.3712 58.6088 25.5727C60.0588 29.7741 60.4081 34.277 59.6235 38.6517C58.8389 43.0265 56.9466 47.1273 54.127 50.5631L55.0909 55.4164L60.2917 55.6405C65.6518 49.1005 68.3886 40.801 67.9702 32.3554C67.5517 23.9098 64.0079 15.9215 58.0276 9.94333Z" fill="#65CADA"/>
<path opacity="0.8" d="M41.439 0.819634C36.2301 -0.341018 30.8219 -0.268091 25.6462 1.0326L27.5628 8.77769C31.523 7.78647 35.6594 7.72891 39.6456 8.60957L41.439 0.819634Z" fill="#65CADA"/>
</svg>
