<svg version="1.1" id="Layer_1" xmlns="http://www.w3.org/2000/svg" xmlns:xlink="http://www.w3.org/1999/xlink" x="0px" y="0px" width="110" viewBox="0 0 110 70.22" enable-background="new 0 0 1272 812" xml:space="preserve" height="70.22">
  <path opacity="0" stroke="none" d="M72.642 70.307C48.431 70.307 24.263 70.307 0.091 70.307C0.091 46.906 0.091 23.505 0.091 0.095C36.743 0.095 73.4 0.095 110.071 0.095C110.071 23.493 110.071 46.9 110.071 70.307C97.616 70.307 85.15 70.307 72.642 70.307M31.117 57.791C32.839 57.54 34.564 57.302 36.283 57.027C36.643 56.97 36.827 57.037 36.983 57.371C38.219 60.014 39.497 62.638 40.708 65.293C41.768 67.615 43.488 68.908 46.074 68.933C47.976 68.952 49.878 68.931 51.78 68.933C55.772 68.936 59.764 68.926 63.756 68.954C66.44 68.973 68.297 67.77 69.415 65.343C70.642 62.679 71.904 60.032 73.14 57.372C73.261 57.111 73.385 57.017 73.69 57.062C75.27 57.292 76.853 57.502 78.437 57.706C81.987 58.166 85.545 58.346 89.116 57.953C92.277 57.606 95.274 56.727 97.967 55.018C106.465 49.623 109.946 40.429 107.526 30.537C106.549 26.541 104.388 23.206 101.401 20.407C98.934 18.096 96.095 16.41 92.806 15.56C88.345 14.407 83.822 14.517 79.292 15.003C77.676 15.176 76.068 15.422 74.457 15.64C74.221 15.672 74.06 15.644 73.95 15.386C73.74 14.898 73.48 14.432 73.255 13.95C71.929 11.111 70.621 8.262 69.278 5.431C68.316 3.403 66.724 2.225 64.445 2.146C62.878 2.091 61.307 2.14 59.737 2.136C55.227 2.126 50.717 2.102 46.207 2.104C43.765 2.105 41.946 3.162 40.887 5.402C39.812 7.677 38.76 9.963 37.692 12.24C37.213 13.262 36.717 14.275 36.205 15.342C36.057 15.178 35.956 15.077 35.869 14.966C35.807 14.888 35.751 14.801 35.712 14.71C34.356 11.547 32.401 8.782 30.027 6.317C28.739 4.981 27.376 3.715 26.003 2.465C25.231 1.763 24.287 1.333 23.226 1.662C22.623 1.848 22.017 2.16 21.528 2.557C18.431 5.073 15.784 8.002 13.624 11.362C12.463 13.166 11.546 15.085 11.166 17.21C11.003 18.12 10.583 18.79 9.873 19.362C7.026 21.661 4.78 24.436 3.372 27.839C1.66 31.977 1.367 36.271 2.151 40.637C3.481 48.048 7.879 53.104 14.513 56.334C16.798 57.446 19.301 57.831 21.823 58.061C24.908 58.344 27.977 58.219 31.117 57.791z" stroke-width="0.08647798742138364"/>
  <path fill="#551A8B" opacity="1.000000" stroke="none" d="M31.078 57.797C27.977 58.219 24.908 58.344 21.823 58.061C19.301 57.831 16.798 57.446 14.513 56.334C7.879 53.104 3.481 48.048 2.151 40.637C1.367 36.271 1.66 31.977 3.372 27.839C4.78 24.436 7.026 21.661 9.873 19.362C10.583 18.79 11.003 18.12 11.166 17.21C11.546 15.085 12.463 13.166 13.624 11.362C15.784 8.002 18.431 5.073 21.528 2.557C22.017 2.16 22.623 1.848 23.226 1.662C24.287 1.333 25.231 1.763 26.003 2.465C27.376 3.715 28.739 4.981 30.027 6.317C32.401 8.782 34.356 11.547 35.712 14.71C35.751 14.801 35.807 14.888 35.869 14.966C35.956 15.077 36.057 15.178 36.205 15.342C36.717 14.275 37.213 13.262 37.692 12.24C38.76 9.963 39.812 7.677 40.887 5.402C41.946 3.162 43.765 2.105 46.207 2.104C50.717 2.102 55.227 2.126 59.737 2.136C61.307 2.14 62.878 2.091 64.445 2.146C66.724 2.225 68.316 3.403 69.278 5.431C70.621 8.262 71.929 11.111 73.255 13.95C73.48 14.432 73.74 14.898 73.95 15.386C74.06 15.644 74.221 15.672 74.457 15.64C76.068 15.422 77.676 15.176 79.292 15.003C83.822 14.517 88.345 14.407 92.806 15.56C96.095 16.41 98.934 18.096 101.401 20.407C104.388 23.206 106.549 26.541 107.526 30.537C109.946 40.429 106.465 49.623 97.967 55.018C95.274 56.727 92.277 57.606 89.116 57.953C85.545 58.346 81.987 58.166 78.437 57.706C76.853 57.502 75.27 57.292 73.69 57.062C73.385 57.017 73.261 57.111 73.14 57.372C71.904 60.032 70.642 62.679 69.415 65.343C68.297 67.77 66.44 68.973 63.756 68.954C59.764 68.926 55.772 68.936 51.78 68.933C49.878 68.931 47.976 68.952 46.074 68.933C43.488 68.908 41.768 67.615 40.708 65.293C39.497 62.638 38.219 60.014 36.983 57.371C36.827 57.037 36.643 56.97 36.283 57.027C34.564 57.302 32.839 57.54 31.078 57.797M74.961 48.995C74.883 48.91 74.801 48.829 74.728 48.74C74.271 48.186 74.033 48.17 73.522 48.699C73.275 48.954 73.065 49.245 72.887 49.459C72.887 49.073 72.961 48.615 72.863 48.197C72.79 47.884 72.154 47.826 71.646 47.984C71.584 48.411 71.547 48.823 71.461 49.226C71.293 50.012 71.09 50.791 70.919 51.577C70.837 51.953 71 52.135 71.468 52.23C71.787 52.294 72.074 52.416 72.227 51.906C72.418 51.267 72.736 50.662 73.039 50.062C73.162 49.82 73.391 49.632 73.576 49.415C74.147 50.019 74.324 50.005 74.787 49.381C74.855 49.289 74.91 49.188 75.038 49.1C75.136 49.321 75.272 49.533 75.325 49.764C75.545 50.729 75.73 51.702 75.947 52.668C76.044 53.1 75.88 53.378 75.537 53.616C75.007 53.985 74.429 54.025 73.825 53.887C73.748 54.673 74.172 55.088 74.874 54.867C75.299 54.733 75.735 54.502 76.058 54.199C77.379 52.962 78.321 51.459 78.957 49.768C79.03 49.574 79.056 49.341 79.029 49.135C78.98 48.755 78.667 48.744 78.369 48.757C78.074 48.771 78.03 48.919 78.034 49.211C78.048 50.147 77.616 50.945 77.193 51.768C77.023 50.927 76.898 50.131 76.693 49.357C76.531 48.742 75.978 48.526 75.399 48.785C75.247 48.853 75.114 48.964 74.961 48.995M57.599 42.41C58.369 43.29 59.34 43.681 60.507 43.668C62.265 43.648 64.023 43.681 65.78 43.655C66.67 43.642 67.57 43.62 68.446 43.48C71.744 42.951 74.455 41.415 76.274 38.558C78.327 35.335 78.594 31.871 77.34 28.298C76.303 25.345 74.271 23.308 71.369 22.147C69.667 21.465 67.882 21.159 66.059 21.118C64.159 21.076 62.256 21.095 60.355 21.103C58.24 21.111 56.709 22.655 56.709 24.767C56.707 29.823 56.714 34.88 56.703 39.937C56.701 40.858 56.974 41.66 57.599 42.41M50.897 43.592C52.53 44.219 54.397 43.684 55.324 42.324C56.303 40.889 56.148 39.113 54.933 37.757C53.944 36.652 52.959 35.544 51.974 34.435C51.144 33.501 50.315 32.565 49.472 31.613C50.806 30.337 52.129 29.096 53.421 27.824C53.961 27.293 54.564 26.767 54.917 26.118C55.723 24.636 55.114 22.52 53.729 21.58C52.45 20.711 50.353 20.591 49.015 22.098C47.542 23.756 46.026 25.375 44.527 27.009C43.979 27.606 43.426 28.198 42.798 28.876C42.798 27.402 42.802 26.052 42.795 24.702C42.793 24.416 42.767 24.127 42.723 23.844C42.441 22.052 40.802 20.737 39.01 20.855C37.115 20.98 35.619 22.481 35.613 24.339C35.597 29.67 35.597 35.001 35.613 40.333C35.619 42.415 37.235 43.941 39.341 43.922C41.225 43.905 42.739 42.289 42.741 40.29C42.743 38.46 42.742 36.63 42.742 34.801C42.742 34.665 42.742 34.53 42.742 34.29C42.911 34.478 43.009 34.577 43.097 34.684C45.191 37.251 47.288 39.816 49.375 42.388C49.782 42.889 50.234 43.317 50.897 43.592M44.007 9.542C43.288 11.091 42.564 12.638 41.851 14.19C41.546 14.854 41.264 15.528 40.97 16.196C40.829 16.518 40.918 16.704 41.274 16.778C42.774 17.087 44.258 17.545 45.773 17.689C48.646 17.963 51.535 18.111 54.42 18.212C56.128 18.272 57.843 18.161 59.553 18.094C62.009 17.997 64.459 17.801 66.868 17.283C67.684 17.108 68.478 16.826 69.351 16.572C69.06 15.897 68.835 15.342 68.585 14.797C67.518 12.477 66.447 10.159 65.372 7.842C65.021 7.085 64.453 6.647 63.585 6.657C62.895 6.665 62.204 6.66 61.513 6.659C56.601 6.652 51.689 6.65 46.777 6.633C45.769 6.629 45.078 7.041 44.701 7.988C44.499 8.495 44.254 8.983 44.007 9.542M20.53 27.082C22.048 27.639 23.618 27.868 25.217 27.65C27.482 27.341 29.27 26.183 30.65 24.38C31.939 22.695 32.423 20.804 32.094 18.703C31.825 16.977 31.052 15.453 30.179 13.978C28.586 11.288 26.477 9.04 24.113 7.016C23.888 6.824 23.712 6.773 23.484 6.995C22.609 7.847 21.701 8.665 20.856 9.545C19.021 11.456 17.488 13.587 16.385 16.008C15.649 17.624 15.166 19.267 15.557 21.087C16.17 23.939 17.684 26.01 20.53 27.082M56.427 64.422C58.76 64.422 61.093 64.417 63.426 64.425C64.363 64.428 65.002 64.021 65.389 63.162C66.084 61.619 66.811 60.091 67.514 58.551C67.87 57.774 68.202 56.987 68.55 56.193C68.409 56.12 68.349 56.08 68.283 56.058C67.997 55.962 67.713 55.859 67.423 55.781C64.547 55.003 61.593 54.82 58.64 54.681C56.975 54.603 55.305 54.626 53.637 54.633C50.558 54.645 47.488 54.819 44.452 55.36C43.5 55.53 42.57 55.816 41.567 56.065C41.75 56.525 41.871 56.875 42.024 57.21C42.93 59.193 43.85 61.17 44.749 63.157C45.135 64.011 45.76 64.43 46.705 64.426C49.917 64.415 53.129 64.422 56.427 64.422M95.708 36.018C95.708 32.315 95.711 28.611 95.704 24.908C95.703 24.507 95.682 24.097 95.597 23.707C95.181 21.816 93.543 20.71 91.526 20.931C89.846 21.115 88.493 22.685 88.492 24.48C88.487 29.682 88.489 34.884 88.492 40.086C88.493 40.358 88.517 40.632 88.55 40.903C88.717 42.305 90.056 44.051 92.361 43.93C94.062 43.841 95.559 42.453 95.65 40.683C95.728 39.16 95.693 37.631 95.708 36.018M86.729 38.094C86.729 33.526 86.733 28.959 86.727 24.392C86.724 22.44 85.131 20.905 83.135 20.906C81.129 20.908 79.561 22.434 79.561 24.394C79.558 29.725 79.558 35.055 79.561 40.386C79.561 42.203 80.982 43.766 82.759 43.918C84.683 44.082 86.349 42.91 86.635 41.066C86.781 40.121 86.705 39.143 86.729 38.094M13.165 48.058C12.869 48.483 12.585 48.917 12.274 49.33C12.036 49.645 12.092 49.888 12.4 50.09C12.554 50.191 12.725 50.27 12.893 50.348C13.158 50.469 13.325 50.405 13.478 50.128C13.737 49.656 14.056 49.216 14.349 48.763C14.395 48.769 14.44 48.775 14.485 48.781C14.529 48.942 14.612 49.105 14.61 49.266C14.602 49.783 14.557 50.3 14.539 50.817C14.526 51.186 14.551 51.564 14.939 51.747C15.354 51.941 15.765 51.879 16.077 51.688C16.021 50.884 15.97 50.148 15.918 49.396C16.04 49.382 16.094 49.368 16.148 49.37C16.868 49.406 17.42 49.14 17.707 48.458C17.989 47.79 17.698 47.244 17.253 46.774C16.588 46.071 15.736 45.663 14.971 45.354C14.36 46.273 13.782 47.141 13.165 48.058M93.416 46.39C93.283 46.027 93.016 45.945 92.691 46.089C92.383 46.226 92.095 46.407 91.881 46.524C92.127 47.166 92.342 47.731 92.59 48.378C91.629 48.212 90.996 48.558 90.669 49.361C90.24 50.415 90.378 51.455 90.93 52.425C91.306 53.086 92.01 53.135 92.503 52.549C92.71 52.303 92.838 51.987 92.979 51.692C93.063 51.517 93.104 51.32 93.177 51.091C93.321 51.598 93.3 52.156 93.917 52.296C94.287 52.38 94.717 52.104 94.926 51.741C94.715 51.221 94.474 50.777 94.352 50.303C94.023 49.026 93.744 47.736 93.416 46.39M34.726 46.429C34.565 46.517 34.404 46.604 34.304 46.658C34.441 47.115 34.607 47.514 34.674 47.929C34.902 49.333 35.089 50.744 35.308 52.15C35.336 52.328 35.462 52.491 35.542 52.66C35.7 52.577 35.898 52.528 36.006 52.402C36.169 52.213 36.314 52.217 36.53 52.276C37.403 52.515 38.147 52.272 38.563 51.572C39.216 50.474 39.132 49.339 38.587 48.234C38.328 47.709 37.719 47.599 37.266 47.98C36.999 48.204 36.791 48.514 36.602 48.813C36.457 49.045 36.382 49.321 36.243 49.657C36.132 48.726 36.052 47.881 35.924 47.044C35.796 46.21 35.592 46.111 34.726 46.429M83.328 51.556C84.221 51.717 85.127 51.174 85.349 50.345C85.594 49.428 85.209 48.681 84.284 48.38C83.302 48.061 82.307 48.154 81.412 48.328C81.412 48.892 81.432 49.402 81.407 49.91C81.358 50.944 81.284 51.976 81.222 53.008C81.2 53.368 81.319 53.666 81.714 53.684C82.071 53.699 82.433 53.624 82.759 53.592C82.526 52.003 82.864 50.533 82.865 49.059C83.544 49.019 83.922 49.267 83.984 49.748C84.076 50.445 83.795 50.736 82.741 50.918C82.944 51.159 83.103 51.349 83.328 51.556M56.983 50.235C57.669 50.237 57.637 50.228 57.814 49.583C57.992 48.937 58.216 48.299 58.479 47.683C58.563 47.485 58.835 47.368 59.022 47.213C59.059 47.438 59.142 47.667 59.124 47.887C59.08 48.416 58.981 48.94 58.917 49.467C58.825 50.225 59.124 50.526 59.876 50.416C60.106 50.382 60.328 50.283 60.458 50.243C60.412 49.847 60.331 49.536 60.347 49.229C60.387 48.469 60.501 47.713 60.527 46.954C60.551 46.219 60.005 45.863 59.341 46.196C58.996 46.369 58.72 46.688 58.426 46.955C58.313 47.057 58.237 47.199 58.117 47.359C58.003 46.805 58.48 46.219 57.873 45.857C57.465 45.615 57.051 45.787 56.746 45.962C56.746 46.358 56.77 46.673 56.741 46.983C56.66 47.841 56.572 48.698 56.456 49.552C56.403 49.943 56.52 50.164 56.983 50.235M22.127 53.156C22.126 53.823 22.755 54.211 23.428 53.768C23.776 53.539 24.03 53.166 24.321 52.853C24.397 52.771 24.455 52.671 24.54 52.552C24.661 53.053 24.306 53.638 24.846 53.917C25.32 54.162 25.79 53.92 26.091 53.692C26.024 53.234 25.911 52.856 25.928 52.483C25.962 51.709 26.069 50.939 26.136 50.166C26.146 50.047 26.119 49.828 26.072 49.817C25.746 49.741 25.408 49.663 25.081 49.687C24.971 49.695 24.85 49.986 24.789 50.166C24.528 50.935 24.302 51.716 24.028 52.48C23.978 52.621 23.766 52.704 23.629 52.814C23.579 52.645 23.479 52.474 23.487 52.309C23.518 51.678 23.583 51.048 23.636 50.418C23.707 49.587 23.453 49.366 22.633 49.569C22.447 49.615 22.275 49.717 22.153 49.769C22.185 50.144 22.24 50.454 22.231 50.762C22.208 51.537 22.156 52.311 22.127 53.156M86.462 49.575C85.567 50.522 85.46 51.642 85.793 52.829C86.058 53.776 86.893 53.964 87.559 53.241C87.807 52.971 87.988 52.64 88.225 52.301C88.341 52.734 88.193 53.316 88.814 53.425C89.283 53.506 89.642 53.279 89.829 53.042C89.703 52.511 89.549 52.097 89.515 51.673C89.455 50.914 89.452 50.15 89.457 49.389C89.459 49.024 89.296 48.922 88.98 48.984C88.827 49.014 88.684 49.09 88.531 49.127C88.386 49.161 88.225 49.217 88.09 49.185C87.5 49.042 86.981 49.165 86.462 49.575M30.951 49.329C30.231 50.208 30.171 51.21 30.416 52.263C30.531 52.756 30.721 53.229 31.289 53.326C31.872 53.424 32.215 53.028 32.505 52.597C32.609 52.443 32.681 52.268 32.767 52.103C32.812 52.017 32.858 51.93 32.931 51.791C32.996 52.299 32.938 52.797 33.483 52.98C33.849 53.104 34.341 52.841 34.578 52.476C34.448 52.144 34.273 51.867 34.236 51.573C34.124 50.691 34.052 49.803 33.993 48.915C33.971 48.586 33.804 48.412 33.538 48.548C33.016 48.814 32.47 48.736 31.931 48.806C31.603 48.849 31.304 49.116 30.951 49.329M66.533 51.107C67.155 51.678 67.445 51.598 68.833 50.464C68.797 50.91 68.489 51.412 69.03 51.722C69.46 51.968 69.883 51.849 70.169 51.634C70.169 51.179 70.111 50.804 70.181 50.455C70.331 49.709 70.544 48.976 70.736 48.24C70.899 47.616 70.701 47.421 70.043 47.518C69.864 47.545 69.651 47.512 69.487 47.436C69.006 47.211 68.525 47.15 68.022 47.332C66.776 47.784 65.934 49.844 66.533 51.107M54.473 50.037C55.007 50.337 55.406 50.261 55.809 49.842C55.731 49.439 55.605 49.097 55.609 48.756C55.619 47.995 55.678 47.233 55.746 46.474C55.808 45.786 55.614 45.632 54.935 45.836C54.75 45.892 54.525 45.9 54.337 45.853C53.685 45.689 53.109 45.804 52.612 46.256C51.803 46.991 51.456 48.61 51.88 49.621C52.127 50.207 52.687 50.423 53.217 50.075C53.52 49.876 53.756 49.569 54.01 49.299C54.105 49.198 54.167 49.064 54.23 48.966C54.3 49.325 54.364 49.656 54.473 50.037M47.535 45.959C47.158 46.923 47.457 47.66 48.397 48.07C48.765 48.23 49.142 48.37 49.507 48.538C49.752 48.65 50.012 48.837 49.879 49.123C49.789 49.315 49.515 49.539 49.318 49.543C48.731 49.555 48.143 49.466 47.539 49.416C47.418 49.931 47.639 50.315 48.226 50.425C48.97 50.564 49.694 50.461 50.358 50.103C50.974 49.772 51.325 49.25 51.271 48.52C51.222 47.851 50.8 47.467 50.225 47.218C49.87 47.064 49.505 46.933 49.151 46.777C48.905 46.668 48.696 46.516 48.757 46.191C48.82 45.855 49.076 45.74 49.359 45.747C49.839 45.759 50.318 45.825 50.81 45.869C50.961 45.362 50.856 45.068 50.385 44.943C49.586 44.73 48.139 44.849 47.535 45.959M19.121 49.063C18.195 49.425 17.69 50.136 17.469 51.074C17.266 51.934 17.568 52.63 18.289 53.009C19.12 53.445 20.048 53.317 20.617 52.664C20.725 52.54 20.758 52.352 20.862 52.108C20.147 52.295 19.564 52.741 18.996 52.181C18.692 51.882 18.79 51.501 18.872 51.21C19.51 51.21 20.11 51.268 20.693 51.192C21.189 51.128 21.409 50.706 21.469 50.224C21.529 49.753 21.277 49.463 20.894 49.256C20.354 48.965 19.788 48.864 19.121 49.063M42.125 50.707C43.151 51.597 44.674 51.268 45.164 50.036C45.241 49.841 45.213 49.604 45.233 49.386C44.646 49.769 44.294 50.434 43.524 50.144C43.133 49.997 43.059 49.611 43.014 49.231C43.659 49.127 44.259 48.981 44.715 48.51C45.065 48.149 45.106 47.722 44.933 47.27C44.771 46.847 44.413 46.716 44 46.703C43.8 46.697 43.594 46.702 43.399 46.742C41.746 47.081 41.04 49.196 42.125 50.707M65.121 45.432C64.322 45.434 64.354 46.094 64.233 46.601C63.593 46.599 63.524 46.669 63.629 47.175C63.777 47.216 63.926 47.257 64.097 47.305C64.076 47.451 64.061 47.576 64.039 47.7C63.905 48.464 63.759 49.225 63.637 49.99C63.577 50.369 63.65 50.731 64.05 50.893C64.613 51.12 65.183 51.106 65.7 50.769C65.856 50.667 65.939 50.454 66.095 50.236C65.008 50.315 64.962 50.263 65.108 49.266C65.112 49.237 65.111 49.208 65.117 49.18C65.224 48.61 65.333 48.041 65.439 47.478C66.399 47.584 66.499 47.535 66.635 46.912C66.281 46.866 65.928 46.821 65.553 46.772C65.663 46.33 65.768 45.906 65.887 45.425C65.623 45.425 65.409 45.425 65.121 45.432M29.856 51.774C29.609 51.526 29.387 51.244 29.108 51.04C28.87 50.866 28.55 50.808 28.299 50.648C28.169 50.565 28.108 50.373 28.017 50.231C28.165 50.141 28.314 49.976 28.46 49.978C28.824 49.982 29.187 50.063 29.553 50.114C29.699 49.595 29.571 49.333 29.061 49.262C28.394 49.17 27.767 49.303 27.265 49.787C26.53 50.497 26.692 51.503 27.606 51.951C27.837 52.065 28.102 52.122 28.313 52.263C28.481 52.375 28.59 52.576 28.726 52.737C28.528 52.841 28.329 53.03 28.132 53.029C27.755 53.027 27.379 52.916 26.998 52.85C26.871 53.204 26.952 53.537 27.269 53.655C27.981 53.919 28.664 53.777 29.281 53.374C29.829 53.016 30.031 52.487 29.856 51.774M39.628 45.443C39.364 45.57 39.1 45.697 38.91 45.788C39.046 46.288 39.194 46.694 39.262 47.113C39.48 48.447 39.663 49.786 39.871 51.12C39.949 51.621 40.191 51.812 40.677 51.709C40.963 51.648 41.223 51.472 41.421 51.382C41.281 50.88 41.137 50.504 41.076 50.116C40.859 48.753 40.68 47.384 40.468 46.021C40.379 45.449 40.263 45.379 39.628 45.443M96.276 51.209C97.154 51.215 97.796 50.792 98.2 50.05C98.712 49.109 98.133 48.144 97.062 48.092C96.775 48.078 96.48 48.116 96.202 48.064C96.034 48.032 95.891 47.87 95.736 47.767C95.844 47.627 95.924 47.416 96.065 47.361C96.407 47.227 96.777 47.166 97.137 47.075C97.046 46.571 96.873 46.406 96.471 46.449C95.776 46.524 95.004 47.184 94.817 47.862C94.573 48.747 95.118 49.49 96.041 49.527C96.228 49.535 96.417 49.511 96.602 49.533C96.882 49.566 97.301 49.424 97.356 49.834C97.413 50.257 96.99 50.332 96.682 50.417C96.388 50.499 96.077 50.521 95.628 50.592C95.878 50.85 96.046 51.023 96.276 51.209M61.485 47.931C61.374 48.567 61.251 49.201 61.156 49.839C61.068 50.431 61.282 50.676 61.881 50.671C62.129 50.669 62.376 50.598 62.586 50.565C62.586 50.247 62.559 50.002 62.591 49.765C62.702 48.912 62.839 48.063 62.956 47.211C63.063 46.425 62.824 46.184 62.038 46.282C61.859 46.304 61.684 46.366 61.595 46.388C61.557 46.925 61.524 47.39 61.485 47.931M62.981 44.54C62.854 44.518 62.727 44.475 62.6 44.48C62.193 44.494 61.854 44.79 61.81 45.144C61.772 45.447 61.9 45.645 62.186 45.739C62.608 45.879 63.1 45.713 63.278 45.359C63.445 45.028 63.396 44.746 62.981 44.54z" stroke-width="0.08647798742138364"/>
  <path fill="#F3C1DB" opacity="1.000000" stroke="none" d="M57.579 42.387C56.974 41.66 56.701 40.858 56.703 39.937C56.714 34.88 56.707 29.823 56.709 24.767C56.709 22.655 58.24 21.111 60.355 21.103C62.256 21.095 64.159 21.076 66.059 21.118C67.882 21.159 69.667 21.465 71.369 22.147C74.271 23.308 76.303 25.345 77.34 28.298C78.594 31.871 78.327 35.335 76.274 38.558C74.455 41.415 71.744 42.951 68.446 43.48C67.57 43.62 66.67 43.642 65.78 43.655C64.023 43.681 62.265 43.648 60.507 43.668C59.34 43.681 58.369 43.29 57.579 42.387M63.899 30.916C63.899 33.058 63.899 35.199 63.899 37.468C65.055 37.371 66.178 37.398 67.242 37.159C69.042 36.754 70.316 35.624 70.759 33.793C71.205 31.951 70.882 30.231 69.458 28.865C67.89 27.361 65.926 27.322 63.899 27.432C63.899 28.586 63.899 29.708 63.899 30.916z" stroke-width="0.08647798742138364"/>
  <path fill="#F3C1DB" opacity="1.000000" stroke="none" d="M50.865 43.582C50.234 43.317 49.782 42.889 49.375 42.388C47.288 39.816 45.191 37.251 43.097 34.684C43.009 34.577 42.911 34.478 42.742 34.29C42.742 34.53 42.742 34.665 42.742 34.801C42.742 36.63 42.743 38.46 42.741 40.29C42.739 42.289 41.225 43.905 39.341 43.922C37.235 43.941 35.619 42.415 35.613 40.333C35.597 35.001 35.597 29.67 35.613 24.339C35.619 22.481 37.115 20.98 39.01 20.855C40.802 20.737 42.441 22.052 42.723 23.844C42.767 24.127 42.793 24.416 42.795 24.702C42.802 26.052 42.798 27.402 42.798 28.876C43.426 28.198 43.979 27.606 44.527 27.009C46.026 25.375 47.542 23.756 49.015 22.098C50.353 20.591 52.45 20.711 53.729 21.58C55.114 22.52 55.723 24.636 54.917 26.118C54.564 26.767 53.961 27.293 53.421 27.824C52.129 29.096 50.806 30.337 49.472 31.613C50.315 32.565 51.144 33.501 51.974 34.435C52.959 35.544 53.944 36.652 54.933 37.757C56.148 39.113 56.303 40.889 55.324 42.324C54.397 43.684 52.53 44.219 50.865 43.582z" stroke-width="0.08647798742138364"/>
  <path fill="#FFFFFF" opacity="1.000000" stroke="none" d="M44.018 9.511C44.254 8.983 44.499 8.495 44.701 7.988C45.078 7.041 45.769 6.629 46.777 6.633C51.689 6.65 56.601 6.652 61.513 6.659C62.204 6.66 62.895 6.665 63.585 6.657C64.453 6.647 65.021 7.085 65.372 7.842C66.447 10.159 67.518 12.477 68.585 14.797C68.835 15.342 69.06 15.897 69.351 16.572C68.478 16.826 67.684 17.108 66.868 17.283C64.459 17.801 62.009 17.997 59.553 18.094C57.843 18.161 56.128 18.272 54.42 18.212C51.535 18.111 48.646 17.963 45.773 17.689C44.258 17.545 42.774 17.087 41.274 16.778C40.918 16.704 40.829 16.518 40.97 16.196C41.264 15.528 41.546 14.854 41.851 14.19C42.564 12.638 43.288 11.091 44.018 9.511z" stroke-width="0.08647798742138364"/>
  <path fill="#C20E91" opacity="1.000000" stroke="none" d="M20.498 27.07C17.684 26.01 16.17 23.939 15.557 21.087C15.166 19.267 15.649 17.624 16.385 16.008C17.488 13.587 19.021 11.456 20.856 9.545C21.701 8.665 22.609 7.847 23.484 6.995C23.712 6.773 23.888 6.824 24.113 7.016C26.477 9.04 28.586 11.288 30.179 13.978C31.052 15.453 31.825 16.977 32.094 18.703C32.423 20.804 31.939 22.695 30.65 24.38C29.27 26.183 27.482 27.341 25.217 27.65C23.618 27.868 22.048 27.639 20.498 27.07z" stroke-width="0.08647798742138364"/>
  <path fill="#FEFEFF" opacity="1.000000" stroke="none" d="M56.384 64.422C53.129 64.422 49.917 64.415 46.705 64.426C45.76 64.43 45.135 64.011 44.749 63.157C43.85 61.17 42.93 59.193 42.024 57.21C41.871 56.875 41.75 56.525 41.567 56.065C42.57 55.816 43.5 55.53 44.452 55.36C47.488 54.819 50.558 54.645 53.637 54.633C55.305 54.626 56.975 54.603 58.64 54.681C61.593 54.82 64.547 55.003 67.423 55.781C67.713 55.859 67.997 55.962 68.283 56.058C68.349 56.08 68.409 56.12 68.55 56.193C68.202 56.987 67.87 57.774 67.514 58.551C66.811 60.091 66.084 61.619 65.389 63.162C65.002 64.021 64.363 64.428 63.426 64.425C61.093 64.417 58.76 64.422 56.384 64.422z" stroke-width="0.08647798742138364"/>
  <path fill="#F2C0DA" opacity="1.000000" stroke="none" d="M95.708 36.061C95.693 37.631 95.728 39.16 95.65 40.683C95.559 42.453 94.062 43.841 92.361 43.93C90.056 44.051 88.717 42.305 88.55 40.903C88.517 40.632 88.493 40.358 88.492 40.086C88.489 34.884 88.487 29.682 88.492 24.48C88.493 22.685 89.846 21.115 91.526 20.931C93.543 20.71 95.181 21.816 95.597 23.707C95.682 24.097 95.703 24.507 95.704 24.908C95.711 28.611 95.708 32.315 95.708 36.061z" stroke-width="0.08647798742138364"/>
  <path fill="#F2C1DB" opacity="1.000000" stroke="none" d="M86.729 38.137C86.705 39.143 86.781 40.121 86.635 41.066C86.349 42.91 84.683 44.082 82.759 43.918C80.982 43.766 79.561 42.203 79.561 40.386C79.558 35.055 79.558 29.725 79.561 24.394C79.561 22.434 81.129 20.908 83.135 20.906C85.131 20.905 86.724 22.44 86.727 24.392C86.733 28.959 86.729 33.526 86.729 38.137z" stroke-width="0.08647798742138364"/>
  <path fill="#FBFAFC" opacity="1.000000" stroke="none" d="M13.185 48.033C13.782 47.141 14.36 46.273 14.971 45.354C15.736 45.663 16.588 46.071 17.253 46.774C17.698 47.244 17.989 47.79 17.707 48.458C17.42 49.14 16.868 49.406 16.148 49.37C16.094 49.368 16.04 49.382 15.918 49.396C15.97 50.148 16.021 50.884 16.077 51.688C15.765 51.879 15.354 51.941 14.939 51.747C14.551 51.564 14.526 51.186 14.539 50.817C14.557 50.3 14.602 49.783 14.61 49.266C14.612 49.105 14.529 48.942 14.485 48.781C14.44 48.775 14.395 48.769 14.349 48.763C14.056 49.216 13.737 49.656 13.478 50.128C13.325 50.405 13.158 50.469 12.893 50.348C12.725 50.27 12.554 50.191 12.4 50.09C12.092 49.888 12.036 49.645 12.274 49.33C12.585 48.917 12.869 48.483 13.185 48.033M15.158 48.387C15.746 48.712 16.215 48.348 16.409 47.887C16.598 47.436 16.348 46.986 15.777 46.75C15.455 47.211 15.13 47.676 14.788 48.164C14.912 48.24 15.006 48.298 15.158 48.387z" stroke-width="0.08647798742138364"/>
  <path fill="#FBFAFC" opacity="1.000000" stroke="none" d="M93.431 46.42C93.744 47.736 94.023 49.026 94.352 50.303C94.474 50.777 94.715 51.221 94.926 51.741C94.717 52.104 94.287 52.38 93.917 52.296C93.3 52.156 93.321 51.598 93.177 51.091C93.104 51.32 93.063 51.517 92.979 51.692C92.838 51.987 92.71 52.303 92.503 52.549C92.01 53.135 91.306 53.086 90.93 52.425C90.378 51.455 90.24 50.415 90.669 49.361C90.996 48.558 91.629 48.212 92.59 48.378C92.342 47.731 92.127 47.166 91.881 46.524C92.095 46.407 92.383 46.226 92.691 46.089C93.016 45.945 93.283 46.027 93.431 46.42M92.799 50.023C92.793 49.822 92.798 49.62 92.778 49.42C92.747 49.122 92.68 48.85 92.289 48.838C91.916 48.827 91.777 49.109 91.784 49.363C91.803 50.057 91.886 50.751 91.972 51.442C91.985 51.547 92.152 51.708 92.248 51.709C92.345 51.71 92.503 51.557 92.53 51.445C92.641 51.004 92.711 50.552 92.799 50.023z" stroke-width="0.08647798742138364"/>
  <path fill="#FAFAFB" opacity="1.000000" stroke="none" d="M34.756 46.415C35.592 46.111 35.796 46.21 35.924 47.044C36.052 47.881 36.132 48.726 36.243 49.657C36.382 49.321 36.457 49.045 36.602 48.813C36.791 48.514 36.999 48.204 37.266 47.98C37.719 47.599 38.328 47.709 38.587 48.234C39.132 49.339 39.216 50.474 38.563 51.572C38.147 52.272 37.403 52.515 36.53 52.276C36.314 52.217 36.169 52.213 36.006 52.402C35.898 52.528 35.7 52.577 35.542 52.66C35.462 52.491 35.336 52.328 35.308 52.15C35.089 50.744 34.902 49.333 34.674 47.929C34.607 47.514 34.441 47.115 34.304 46.658C34.404 46.604 34.565 46.517 34.756 46.415M36.539 51.067C36.542 51.124 36.551 51.181 36.546 51.237C36.512 51.598 36.681 51.836 37.029 51.869C37.378 51.901 37.46 51.593 37.532 51.332C37.716 50.671 37.71 50.002 37.552 49.339C37.517 49.193 37.381 49.072 37.292 48.939C37.161 49.054 36.95 49.147 36.913 49.286C36.763 49.849 36.667 50.425 36.539 51.067z" stroke-width="0.08647798742138364"/>
  <path fill="#FBFAFC" opacity="1.000000" stroke="none" d="M83.295 51.547C83.103 51.349 82.944 51.159 82.741 50.918C83.795 50.736 84.076 50.445 83.984 49.748C83.922 49.267 83.544 49.019 82.865 49.059C82.864 50.533 82.526 52.003 82.759 53.592C82.433 53.624 82.071 53.699 81.714 53.684C81.319 53.666 81.2 53.368 81.222 53.008C81.284 51.976 81.358 50.944 81.407 49.91C81.432 49.402 81.412 48.892 81.412 48.328C82.307 48.154 83.302 48.061 84.284 48.38C85.209 48.681 85.594 49.428 85.349 50.345C85.127 51.174 84.221 51.717 83.295 51.547z" stroke-width="0.08647798742138364"/>
  <path fill="#FAFAFC" opacity="1.000000" stroke="none" d="M56.947 50.232C56.52 50.164 56.403 49.943 56.456 49.552C56.572 48.698 56.66 47.841 56.741 46.983C56.77 46.673 56.746 46.358 56.746 45.962C57.051 45.787 57.465 45.615 57.873 45.857C58.48 46.219 58.003 46.805 58.117 47.359C58.237 47.199 58.313 47.057 58.426 46.955C58.72 46.688 58.996 46.369 59.341 46.196C60.005 45.863 60.551 46.219 60.527 46.954C60.501 47.713 60.387 48.469 60.347 49.229C60.331 49.536 60.412 49.847 60.458 50.243C60.328 50.283 60.106 50.382 59.876 50.416C59.124 50.526 58.825 50.225 58.917 49.467C58.981 48.94 59.08 48.416 59.124 47.887C59.142 47.667 59.059 47.438 59.022 47.213C58.835 47.368 58.563 47.485 58.479 47.683C58.216 48.299 57.992 48.937 57.814 49.583C57.637 50.228 57.669 50.237 56.947 50.232z" stroke-width="0.08647798742138364"/>
  <path fill="#FBFAFC" opacity="1.000000" stroke="none" d="M22.122 53.121C22.156 52.311 22.208 51.537 22.231 50.762C22.24 50.454 22.185 50.144 22.153 49.769C22.275 49.717 22.447 49.615 22.633 49.569C23.453 49.366 23.707 49.587 23.636 50.418C23.583 51.048 23.518 51.678 23.487 52.309C23.479 52.474 23.579 52.645 23.629 52.814C23.766 52.704 23.978 52.621 24.028 52.48C24.302 51.716 24.528 50.935 24.789 50.166C24.85 49.986 24.971 49.695 25.081 49.687C25.408 49.663 25.746 49.741 26.072 49.817C26.119 49.828 26.146 50.047 26.136 50.166C26.069 50.939 25.962 51.709 25.928 52.483C25.911 52.856 26.024 53.234 26.091 53.692C25.79 53.92 25.32 54.162 24.846 53.917C24.306 53.638 24.661 53.053 24.54 52.552C24.455 52.671 24.397 52.771 24.321 52.853C24.03 53.166 23.776 53.539 23.428 53.768C22.755 54.211 22.126 53.823 22.122 53.121z" stroke-width="0.08647798742138364"/>
  <path fill="#FAFAFB" opacity="1.000000" stroke="none" d="M86.487 49.556C86.981 49.165 87.5 49.042 88.09 49.185C88.225 49.217 88.386 49.161 88.531 49.127C88.684 49.09 88.827 49.014 88.98 48.984C89.296 48.922 89.459 49.024 89.457 49.389C89.452 50.15 89.455 50.914 89.515 51.673C89.549 52.097 89.703 52.511 89.829 53.042C89.642 53.279 89.283 53.506 88.814 53.425C88.193 53.316 88.341 52.734 88.225 52.301C87.988 52.64 87.807 52.971 87.559 53.241C86.893 53.964 86.058 53.776 85.793 52.829C85.46 51.642 85.567 50.522 86.487 49.556M87.467 52.492C88.006 51.769 88.157 50.935 88.122 50.064C88.117 49.936 87.906 49.737 87.769 49.717C87.635 49.697 87.404 49.827 87.336 49.956C86.937 50.707 86.897 51.514 87.087 52.33C87.108 52.417 87.3 52.463 87.467 52.492z" stroke-width="0.08647798742138364"/>
  <path fill="#FAFAFB" opacity="1.000000" stroke="none" d="M30.971 49.305C31.304 49.116 31.603 48.849 31.931 48.806C32.47 48.736 33.016 48.814 33.538 48.548C33.804 48.412 33.971 48.586 33.993 48.915C34.052 49.803 34.124 50.691 34.236 51.573C34.273 51.867 34.448 52.144 34.578 52.476C34.341 52.841 33.849 53.104 33.483 52.98C32.938 52.797 32.996 52.299 32.931 51.791C32.858 51.93 32.812 52.017 32.767 52.103C32.681 52.268 32.609 52.443 32.505 52.597C32.215 53.028 31.872 53.424 31.289 53.326C30.721 53.229 30.531 52.756 30.416 52.263C30.171 51.21 30.231 50.208 30.971 49.305M32.231 49.296C32.084 49.475 31.832 49.642 31.809 49.836C31.732 50.481 31.721 51.135 31.722 51.786C31.722 51.925 31.877 52.065 31.961 52.204C32.092 52.087 32.303 51.99 32.339 51.848C32.502 51.216 32.636 50.574 32.737 49.929C32.784 49.625 32.645 49.368 32.231 49.296z" stroke-width="0.08647798742138364"/>
  <path fill="#FBFAFC" opacity="1.000000" stroke="none" d="M66.517 51.078C65.934 49.844 66.776 47.784 68.022 47.332C68.525 47.15 69.006 47.211 69.487 47.436C69.651 47.512 69.864 47.545 70.043 47.518C70.701 47.421 70.899 47.616 70.736 48.24C70.544 48.976 70.331 49.709 70.181 50.455C70.111 50.804 70.169 51.179 70.169 51.634C69.883 51.849 69.46 51.968 69.03 51.722C68.489 51.412 68.797 50.91 68.833 50.464C67.445 51.598 67.155 51.678 66.517 51.078M69.348 48.163C68.993 47.72 68.729 47.679 68.461 48.16C68.138 48.739 67.935 49.387 67.715 50.017C67.67 50.146 67.78 50.329 67.819 50.487C67.98 50.417 68.191 50.39 68.295 50.271C68.806 49.677 69.208 49.016 69.348 48.163z" stroke-width="0.08647798742138364"/>
  <path fill="#FBFAFC" opacity="1.000000" stroke="none" d="M54.451 50.011C54.364 49.656 54.3 49.325 54.23 48.966C54.167 49.064 54.105 49.198 54.01 49.299C53.756 49.569 53.52 49.876 53.217 50.075C52.687 50.423 52.127 50.207 51.88 49.621C51.456 48.61 51.803 46.991 52.612 46.256C53.109 45.804 53.685 45.689 54.337 45.853C54.525 45.9 54.75 45.892 54.935 45.836C55.614 45.632 55.808 45.786 55.746 46.474C55.678 47.233 55.619 47.995 55.609 48.756C55.605 49.097 55.731 49.439 55.809 49.842C55.406 50.261 55.007 50.337 54.451 50.011M53.583 49.041C53.852 48.357 54.135 47.678 54.38 46.985C54.478 46.71 54.353 46.425 54.059 46.39C53.89 46.371 53.62 46.528 53.526 46.684C53.12 47.355 53.038 48.111 53.103 48.878C53.124 49.133 53.264 49.288 53.583 49.041z" stroke-width="0.08647798742138364"/>
  <path fill="#FBFAFC" opacity="1.000000" stroke="none" d="M47.55 45.929C48.139 44.849 49.586 44.73 50.385 44.943C50.856 45.068 50.961 45.362 50.81 45.869C50.318 45.825 49.839 45.759 49.359 45.747C49.076 45.74 48.82 45.855 48.757 46.191C48.696 46.516 48.905 46.668 49.151 46.777C49.505 46.933 49.87 47.064 50.225 47.218C50.8 47.467 51.222 47.851 51.271 48.52C51.325 49.25 50.974 49.772 50.358 50.103C49.694 50.461 48.97 50.564 48.226 50.425C47.639 50.315 47.418 49.931 47.539 49.416C48.143 49.466 48.731 49.555 49.318 49.543C49.515 49.539 49.789 49.315 49.879 49.123C50.012 48.837 49.752 48.65 49.507 48.538C49.142 48.37 48.765 48.23 48.397 48.07C47.457 47.66 47.158 46.923 47.55 45.929z" stroke-width="0.08647798742138364"/>
  <path fill="#FAF9FB" opacity="1.000000" stroke="none" d="M74.972 49.055C75.114 48.964 75.247 48.853 75.399 48.785C75.978 48.526 76.531 48.742 76.693 49.357C76.898 50.131 77.023 50.927 77.193 51.768C77.616 50.945 78.048 50.147 78.034 49.211C78.03 48.919 78.074 48.771 78.369 48.757C78.667 48.744 78.98 48.755 79.029 49.135C79.056 49.341 79.03 49.574 78.957 49.768C78.321 51.459 77.379 52.962 76.058 54.199C75.735 54.502 75.299 54.733 74.874 54.867C74.172 55.088 73.748 54.673 73.825 53.887C74.429 54.025 75.007 53.985 75.537 53.616C75.88 53.378 76.044 53.1 75.947 52.668C75.73 51.702 75.545 50.729 75.325 49.764C75.272 49.533 75.136 49.321 75.005 49.087C74.973 49.073 74.972 49.055 74.972 49.055z" stroke-width="0.08647798742138364"/>
  <path fill="#FAF9FB" opacity="1.000000" stroke="none" d="M19.154 49.053C19.788 48.864 20.354 48.965 20.894 49.256C21.277 49.463 21.529 49.753 21.469 50.224C21.409 50.706 21.189 51.128 20.693 51.192C20.11 51.268 19.51 51.21 18.872 51.21C18.79 51.501 18.692 51.882 18.996 52.181C19.564 52.741 20.147 52.295 20.862 52.108C20.758 52.352 20.725 52.54 20.617 52.664C20.048 53.317 19.12 53.445 18.289 53.009C17.568 52.63 17.266 51.934 17.469 51.074C17.69 50.136 18.195 49.425 19.154 49.053M20.313 49.8C20.104 49.455 19.864 49.39 19.613 49.679C19.371 49.958 19.204 50.301 18.997 50.628C19.787 50.937 20.116 50.725 20.313 49.8z" stroke-width="0.08647798742138364"/>
  <path fill="#FAF9FB" opacity="1.000000" stroke="none" d="M42.106 50.682C41.04 49.196 41.746 47.081 43.399 46.742C43.594 46.702 43.8 46.697 44 46.703C44.413 46.716 44.771 46.847 44.933 47.27C45.106 47.722 45.065 48.149 44.715 48.51C44.259 48.981 43.659 49.127 43.014 49.231C43.059 49.611 43.133 49.997 43.524 50.144C44.294 50.434 44.646 49.769 45.233 49.386C45.213 49.604 45.241 49.841 45.164 50.036C44.674 51.268 43.151 51.597 42.106 50.682M43.586 48.56C43.876 48.31 43.909 47.991 43.782 47.661C43.727 47.52 43.56 47.296 43.489 47.312C43.322 47.348 43.091 47.481 43.05 47.622C42.945 47.98 42.931 48.363 42.867 48.834C43.164 48.729 43.348 48.664 43.586 48.56z" stroke-width="0.08647798742138364"/>
  <path fill="#FAF9FB" opacity="1.000000" stroke="none" d="M65.157 45.429C65.409 45.425 65.623 45.425 65.887 45.425C65.768 45.906 65.663 46.33 65.553 46.772C65.928 46.821 66.281 46.866 66.635 46.912C66.499 47.535 66.399 47.584 65.439 47.478C65.333 48.041 65.224 48.61 65.117 49.18C65.111 49.208 65.112 49.237 65.108 49.266C64.962 50.263 65.008 50.315 66.095 50.236C65.939 50.454 65.856 50.667 65.7 50.769C65.183 51.106 64.613 51.12 64.05 50.893C63.65 50.731 63.577 50.369 63.637 49.99C63.759 49.225 63.905 48.464 64.039 47.7C64.061 47.576 64.076 47.451 64.097 47.305C63.926 47.257 63.777 47.216 63.629 47.175C63.524 46.669 63.593 46.599 64.233 46.601C64.354 46.094 64.322 45.434 65.157 45.429z" stroke-width="0.08647798742138364"/>
  <path fill="#F9F8FB" opacity="1.000000" stroke="none" d="M29.87 51.806C30.031 52.487 29.829 53.016 29.281 53.374C28.664 53.777 27.981 53.919 27.269 53.655C26.952 53.537 26.871 53.204 26.998 52.85C27.379 52.916 27.755 53.027 28.132 53.029C28.329 53.03 28.528 52.841 28.726 52.737C28.59 52.576 28.481 52.375 28.313 52.263C28.102 52.122 27.837 52.065 27.606 51.951C26.692 51.503 26.53 50.497 27.265 49.787C27.767 49.303 28.394 49.17 29.061 49.262C29.571 49.333 29.699 49.595 29.553 50.114C29.187 50.063 28.824 49.982 28.46 49.978C28.314 49.976 28.165 50.141 28.017 50.231C28.108 50.373 28.169 50.565 28.299 50.648C28.55 50.808 28.87 50.866 29.108 51.04C29.387 51.244 29.609 51.526 29.87 51.806z" stroke-width="0.08647798742138364"/>
  <path fill="#FBFBFC" opacity="1.000000" stroke="none" d="M39.662 45.433C40.263 45.379 40.379 45.449 40.468 46.021C40.68 47.384 40.859 48.753 41.076 50.116C41.137 50.504 41.281 50.88 41.421 51.382C41.223 51.472 40.963 51.648 40.677 51.709C40.191 51.812 39.949 51.621 39.871 51.12C39.663 49.786 39.48 48.447 39.262 47.113C39.194 46.694 39.046 46.288 38.91 45.788C39.1 45.697 39.364 45.57 39.662 45.433z" stroke-width="0.08647798742138364"/>
  <path fill="#FAF9FB" opacity="1.000000" stroke="none" d="M96.245 51.202C96.046 51.023 95.878 50.85 95.628 50.592C96.077 50.521 96.388 50.499 96.682 50.417C96.99 50.332 97.413 50.257 97.356 49.834C97.301 49.424 96.882 49.566 96.602 49.533C96.417 49.511 96.228 49.535 96.041 49.527C95.118 49.49 94.573 48.747 94.817 47.862C95.004 47.184 95.776 46.524 96.471 46.449C96.873 46.406 97.046 46.571 97.137 47.075C96.777 47.166 96.407 47.227 96.065 47.361C95.924 47.416 95.844 47.627 95.736 47.767C95.891 47.87 96.034 48.032 96.202 48.064C96.48 48.116 96.775 48.078 97.062 48.092C98.133 48.144 98.712 49.109 98.2 50.05C97.796 50.792 97.154 51.215 96.245 51.202z" stroke-width="0.08647798742138364"/>
  <path fill="#FAFAFB" opacity="1.000000" stroke="none" d="M74.966 49.025C74.972 49.055 74.973 49.073 74.972 49.083C74.91 49.188 74.855 49.289 74.787 49.381C74.324 50.005 74.147 50.019 73.576 49.415C73.391 49.632 73.162 49.82 73.039 50.062C72.736 50.662 72.418 51.267 72.227 51.906C72.074 52.416 71.787 52.294 71.468 52.23C71 52.135 70.837 51.953 70.919 51.577C71.09 50.791 71.293 50.012 71.461 49.226C71.547 48.823 71.584 48.411 71.646 47.984C72.154 47.826 72.79 47.884 72.863 48.197C72.961 48.615 72.887 49.073 72.887 49.459C73.065 49.245 73.275 48.954 73.522 48.699C74.033 48.17 74.271 48.186 74.728 48.74C74.801 48.829 74.883 48.91 74.966 49.025z" stroke-width="0.08647798742138364"/>
  <path fill="#FAFAFC" opacity="1.000000" stroke="none" d="M61.488 47.893C61.524 47.39 61.557 46.925 61.595 46.388C61.684 46.366 61.859 46.304 62.038 46.282C62.824 46.184 63.063 46.425 62.956 47.211C62.839 48.063 62.702 48.912 62.591 49.765C62.559 50.002 62.586 50.247 62.586 50.565C62.376 50.598 62.129 50.669 61.881 50.671C61.282 50.676 61.068 50.431 61.156 49.839C61.251 49.201 61.374 48.567 61.488 47.893z" stroke-width="0.08647798742138364"/>
  <path fill="#F9F8FB" opacity="1.000000" stroke="none" d="M63.014 44.549C63.396 44.746 63.445 45.028 63.278 45.359C63.1 45.713 62.608 45.879 62.186 45.739C61.9 45.645 61.772 45.447 61.81 45.144C61.854 44.79 62.193 44.494 62.6 44.48C62.727 44.475 62.854 44.518 63.014 44.549z" stroke-width="0.08647798742138364"/>
  <path fill="#55198B" opacity="1.000000" stroke="none" d="M63.899 30.873C63.899 29.708 63.899 28.586 63.899 27.432C65.926 27.322 67.89 27.361 69.458 28.865C70.882 30.231 71.205 31.951 70.759 33.793C70.316 35.624 69.042 36.754 67.242 37.159C66.178 37.398 65.055 37.371 63.899 37.468C63.899 35.199 63.899 33.058 63.899 30.873z" stroke-width="0.08647798742138364"/>
  <path fill="#581E8D" opacity="1.000000" stroke="none" d="M15.129 48.371C15.006 48.298 14.912 48.24 14.788 48.164C15.13 47.676 15.455 47.211 15.777 46.75C16.348 46.986 16.598 47.436 16.409 47.887C16.215 48.348 15.746 48.712 15.129 48.371z" stroke-width="0.08647798742138364"/>
  <path fill="#571D8C" opacity="1.000000" stroke="none" d="M92.798 50.063C92.711 50.552 92.641 51.004 92.53 51.445C92.503 51.557 92.345 51.71 92.248 51.709C92.152 51.708 91.985 51.547 91.972 51.442C91.886 50.751 91.803 50.057 91.784 49.363C91.777 49.109 91.916 48.827 92.289 48.838C92.68 48.85 92.747 49.122 92.778 49.42C92.798 49.62 92.793 49.822 92.798 50.063z" stroke-width="0.08647798742138364"/>
  <path fill="#581E8D" opacity="1.000000" stroke="none" d="M36.545 51.032C36.667 50.425 36.763 49.849 36.913 49.286C36.95 49.147 37.161 49.054 37.292 48.939C37.381 49.072 37.517 49.193 37.552 49.339C37.71 50.002 37.716 50.671 37.532 51.332C37.46 51.593 37.378 51.901 37.029 51.869C36.681 51.836 36.512 51.598 36.546 51.237C36.551 51.181 36.542 51.124 36.545 51.032z" stroke-width="0.08647798742138364"/>
  <path fill="#581E8D" opacity="1.000000" stroke="none" d="M87.44 52.51C87.3 52.463 87.108 52.417 87.087 52.33C86.897 51.514 86.937 50.707 87.336 49.956C87.404 49.827 87.635 49.697 87.769 49.717C87.906 49.737 88.117 49.936 88.122 50.064C88.157 50.935 88.006 51.769 87.44 52.51z" stroke-width="0.08647798742138364"/>
  <path fill="#581F8D" opacity="1.000000" stroke="none" d="M32.264 49.296C32.645 49.368 32.784 49.625 32.737 49.929C32.636 50.574 32.502 51.216 32.339 51.848C32.303 51.99 32.092 52.087 31.961 52.204C31.877 52.065 31.722 51.925 31.722 51.786C31.721 51.135 31.732 50.481 31.809 49.836C31.832 49.642 32.084 49.475 32.264 49.296z" stroke-width="0.08647798742138364"/>
  <path fill="#581E8D" opacity="1.000000" stroke="none" d="M69.353 48.196C69.208 49.016 68.806 49.677 68.295 50.271C68.191 50.39 67.98 50.417 67.819 50.487C67.78 50.329 67.67 50.146 67.715 50.017C67.935 49.387 68.138 48.739 68.461 48.16C68.729 47.679 68.993 47.72 69.353 48.196z" stroke-width="0.08647798742138364"/>
  <path fill="#581E8D" opacity="1.000000" stroke="none" d="M53.561 49.063C53.264 49.288 53.124 49.133 53.103 48.878C53.038 48.111 53.12 47.355 53.526 46.684C53.62 46.528 53.89 46.371 54.059 46.39C54.353 46.425 54.478 46.71 54.38 46.985C54.135 47.678 53.852 48.357 53.561 49.063z" stroke-width="0.08647798742138364"/>
  <path fill="#59218E" opacity="1.000000" stroke="none" d="M20.315 49.833C20.116 50.725 19.787 50.937 18.997 50.628C19.204 50.301 19.371 49.958 19.613 49.679C19.864 49.39 20.104 49.455 20.315 49.833z" stroke-width="0.08647798742138364"/>
  <path fill="#5B238F" opacity="1.000000" stroke="none" d="M43.558 48.579C43.348 48.664 43.164 48.729 42.867 48.834C42.931 48.363 42.945 47.98 43.05 47.622C43.091 47.481 43.322 47.348 43.489 47.312C43.56 47.296 43.727 47.52 43.782 47.661C43.909 47.991 43.876 48.31 43.558 48.579z" stroke-width="0.08647798742138364"/>
</svg>
