<?xml version="1.0" encoding="UTF-8"?>
<svg xmlns="http://www.w3.org/2000/svg" xmlns:xlink="http://www.w3.org/1999/xlink" version="1.1" id="Layer_1" x="0px" y="0px" viewBox="0 0 457.1 150" style="enable-background:new 0 0 457.1 150;" xml:space="preserve">
<style type="text/css">
	.st0{fill:#282826;}
	.st1{fill:#D7E0CB;}
	.st2{fill:#32823B;}
	.st3{fill:#0099AB;}
	.st4{fill:#393E38;}
</style>
<path class="st0" d="M26.7,128.7c0.2,0.6,0.4,1.3,0.4,2.1c0,1.5-0.6,2.7-1.7,3.6c-1.1,0.9-2.8,1.3-5.1,1.3c-1,0-2.1-0.1-3.2-0.3  c-1.1-0.2-1.9-0.5-2.6-0.9v-4.7c0.8,0.5,1.7,0.8,2.7,1.1c0.9,0.2,1.8,0.4,2.6,0.4c0.5,0,0.8,0,1-0.1c0.2-0.1,0.3-0.2,0.3-0.4  c0-0.3-0.2-0.5-0.5-0.7c-0.3-0.2-0.9-0.5-1.9-0.9c-1.5-0.6-2.5-1.3-3.2-2.1c-0.7-0.8-1-1.7-1-2.8c0-1,0.3-1.8,0.8-2.6  c0.5-0.7,1.3-1.3,2.3-1.8c1-0.4,2.1-0.6,3.3-0.6c1,0,1.9,0.1,2.7,0.2c0.8,0.2,1.6,0.4,2.3,0.8v4.5c-1.4-0.8-2.7-1.1-4-1.1  c-1.1,0-1.6,0.2-1.6,0.7c0,0.2,0.1,0.4,0.4,0.6c0.2,0.2,0.7,0.4,1.4,0.6l0.8,0.3c1.1,0.5,1.9,0.9,2.5,1.4  C26,127.6,26.4,128.2,26.7,128.7z M40.1,128.5l-3.3-8.9h-5.6l6.4,15.9h5.1l6.4-15.9h-5.6L40.1,128.5z M54.7,135.4h11.8v-4.5h-6.4  v-1.4h4.5v-4.1h-4.5v-1.4h6.4v-4.5H54.7V135.4z M81.6,126.9l-4.7-7.4h-4.7v15.9h5.2V128l4.7,7.4h4.7v-15.9h-5.2V126.9z M103.3,127.2  c-0.6-0.4-1.4-0.9-2.5-1.4l-0.8-0.3c-0.7-0.3-1.1-0.5-1.4-0.6c-0.2-0.2-0.4-0.3-0.4-0.6c0-0.5,0.5-0.7,1.6-0.7c1.3,0,2.7,0.4,4,1.1  v-4.5c-0.7-0.3-1.5-0.6-2.3-0.8c-0.8-0.2-1.7-0.2-2.7-0.2c-1.3,0-2.4,0.2-3.3,0.6c-1,0.4-1.7,1-2.3,1.8c-0.5,0.7-0.8,1.6-0.8,2.6  c0,1.1,0.3,2.1,1,2.8c0.7,0.8,1.7,1.5,3.2,2.1c1,0.4,1.6,0.8,1.9,0.9c0.3,0.2,0.5,0.4,0.5,0.7c0,0.2-0.1,0.3-0.3,0.4  c-0.2,0.1-0.5,0.1-1,0.1c-0.8,0-1.7-0.1-2.6-0.4c-0.9-0.2-1.8-0.6-2.7-1.1v4.7c0.7,0.4,1.5,0.7,2.6,0.9c1.1,0.2,2.1,0.3,3.2,0.3  c2.3,0,3.9-0.4,5.1-1.3c1.1-0.9,1.7-2.1,1.7-3.6c0-0.9-0.1-1.6-0.4-2.1S103.9,127.6,103.3,127.2z M126.6,119.6h-6.2l-4.4,5.7v-5.7  h-5.4v15.9h5.4v-6.2l4.7,6.2h6.3l-6.4-8.2L126.6,119.6z M142.6,119.6l6.4,15.9h-5.5l-1-2.8h-4.7l-1,2.8h-5.5l6.4-15.9H142.6z   M141.2,128.7l-1.2-3.7l-1.2,3.7H141.2z M176.4,127.2c-0.6-0.4-1.4-0.9-2.5-1.4l-0.8-0.3c-0.7-0.3-1.1-0.5-1.4-0.6  c-0.2-0.2-0.4-0.3-0.4-0.6c0-0.5,0.5-0.7,1.6-0.7c1.3,0,2.7,0.4,4,1.1v-4.5c-0.7-0.3-1.5-0.6-2.3-0.8c-0.8-0.2-1.7-0.2-2.7-0.2  c-1.3,0-2.4,0.2-3.3,0.6c-1,0.4-1.7,1-2.3,1.8c-0.5,0.7-0.8,1.6-0.8,2.6c0,1.1,0.3,2.1,1,2.8c0.7,0.8,1.7,1.5,3.2,2.1  c1,0.4,1.6,0.8,1.9,0.9c0.3,0.2,0.5,0.4,0.5,0.7c0,0.2-0.1,0.3-0.3,0.4c-0.2,0.1-0.5,0.1-1,0.1c-0.8,0-1.7-0.1-2.6-0.4  c-0.9-0.2-1.8-0.6-2.7-1.1v4.7c0.7,0.4,1.5,0.7,2.6,0.9c1.1,0.2,2.1,0.3,3.2,0.3c2.3,0,3.9-0.4,5.1-1.3c1.1-0.9,1.7-2.1,1.7-3.6  c0-0.9-0.1-1.6-0.4-2.1S177,127.6,176.4,127.2z M199.7,119.6h-6.2l-4.4,5.7v-5.7h-5.4v15.9h5.4v-6.2l4.7,6.2h6.3l-6.4-8.2  L199.7,119.6z M219.2,123.2c0.8,1.3,1.1,2.7,1.1,4.3c0,1.6-0.4,3.1-1.1,4.3s-1.8,2.2-3.1,2.9c-1.3,0.7-2.8,1-4.4,1  c-1.6,0-3.1-0.3-4.4-1c-1.3-0.7-2.3-1.7-3.1-2.9s-1.1-2.7-1.1-4.3c0-1.6,0.4-3.1,1.1-4.3s1.8-2.2,3.1-2.9c1.3-0.7,2.8-1,4.4-1  c1.6,0,3.1,0.3,4.4,1C217.4,121,218.5,121.9,219.2,123.2z M214.9,127.5c0-1-0.3-1.8-0.9-2.3c-0.6-0.6-1.3-0.9-2.2-0.9  c-0.9,0-1.7,0.3-2.3,0.9c-0.6,0.6-0.9,1.4-0.9,2.3c0,1,0.3,1.8,0.9,2.3c0.6,0.6,1.3,0.9,2.3,0.9s1.7-0.3,2.2-0.9  C214.6,129.3,214.9,128.5,214.9,127.5z M231.4,119.6H226v15.9h11.3v-4.5h-5.9V119.6z M253.2,119.6l6.4,15.9H254l-1-2.8h-4.7l-1,2.8  h-5.5l6.4-15.9H253.2z M251.8,128.7l-1.2-3.7l-1.2,3.7H251.8z M274.7,126.9l-4.7-7.4h-4.7v15.9h5.2V128l4.7,7.4h4.7v-15.9h-5.2  V126.9z M297.3,135.4h5.4v-15.9h-5.4V135.4z M329.6,126.9l-4.7-7.4h-4.7v15.9h5.2V128l4.7,7.4h4.7v-15.9h-5.2V126.9z M351.9,119.6  l6.4,15.9h-5.5l-1-2.8H347l-1,2.8h-5.5l6.4-15.9H351.9z M350.5,128.7l-1.2-3.7l-1.2,3.7H350.5z M363.9,135.4h5.4v-15.9h-5.4V135.4z   M386.7,130.3l2.5,5.2h-5.4l-2.1-4.3h-1v4.3h-5.3v-15.9h7.6c2,0,3.5,0.5,4.7,1.5c1.1,1,1.7,2.4,1.7,4.3c0,1.2-0.2,2.2-0.7,3  C388.3,129.2,387.6,129.8,386.7,130.3z M384,125.3c0-1.2-0.7-1.7-2.1-1.7h-1.2v3.5h1.2C383.3,127.1,384,126.5,384,125.3z   M410.4,123.2c0.8,1.3,1.1,2.7,1.1,4.3c0,1.6-0.4,3.1-1.1,4.3c-0.8,1.2-1.8,2.2-3.1,2.9c-1.3,0.7-2.8,1-4.4,1c-1.6,0-3.1-0.3-4.4-1  c-1.3-0.7-2.3-1.7-3.1-2.9c-0.8-1.2-1.1-2.7-1.1-4.3c0-1.6,0.4-3.1,1.1-4.3c0.8-1.3,1.8-2.2,3.1-2.9c1.3-0.7,2.8-1,4.4-1  c1.6,0,3.1,0.3,4.4,1C408.6,121,409.6,121.9,410.4,123.2z M406.1,127.5c0-1-0.3-1.8-0.9-2.3c-0.6-0.6-1.3-0.9-2.2-0.9  c-0.9,0-1.7,0.3-2.3,0.9c-0.6,0.6-0.9,1.4-0.9,2.3c0,1,0.3,1.8,0.9,2.3c0.6,0.6,1.3,0.9,2.3,0.9c0.9,0,1.7-0.3,2.2-0.9  C405.8,129.3,406.1,128.5,406.1,127.5z M431,128.4c0.3,0.5,0.5,1.2,0.5,2.1c0,1-0.2,1.9-0.7,2.6c-0.5,0.7-1.1,1.3-2,1.7  c-0.8,0.4-1.7,0.6-2.7,0.6h-8.9v-15.9h8.5c1.6,0,2.9,0.4,3.8,1.2s1.5,1.9,1.5,3.3c0,0.6-0.1,1.2-0.4,1.7c-0.3,0.5-0.6,1-1.1,1.3  C430.2,127.4,430.7,127.9,431,128.4z M422.4,125.6h1.8c0.5,0,0.8-0.1,1-0.3c0.2-0.2,0.3-0.5,0.3-0.9c0-0.4-0.1-0.7-0.3-0.9  c-0.2-0.2-0.6-0.3-1-0.3h-1.8V125.6z M426,130.5c0-0.5-0.1-0.8-0.4-1c-0.2-0.2-0.6-0.3-1.2-0.3h-2.1v2.7h2.1c0.5,0,0.9-0.1,1.2-0.3  C425.9,131.3,426,130.9,426,130.5z M437.2,119.6v15.9h5.4v-15.9H437.2z"></path>
<g>
	<path class="st1" d="M240.8,64.2c-0.3,0.5-3.1,2.6-3.4,3.5c-0.3,1-0.4,3-0.9,3.6c-0.5,0.6-2.7,2.8-3.2,3.3   c-0.5,0.6-1.3,1.2-1.8,1.4c-0.5,0.2-1.5,0.4-2.3,0.5c-0.8,0-1.1,0-1.9-1c-0.8-1-0.6-1.7-1-2.3c-0.4-0.7-0.8-1.1-0.8-1.7   c0-0.6,0.1-1.1-0.1-1.8s0.2-2.3-0.3-2.8c-0.5-0.4-0.9-1.1-4.3-1.1c-3.4,0-4.7-0.6-5.9-2.2c-1.1-1.6,1.2-4.7,1.7-5.5   c0.5-0.8,2.4-1.9,4.6-2.3c2.2-0.4,3.7-0.5,4.2-0.3c0.6,0.2,1.2,1,2,1.4c0.8,0.4,1.5,0.1,2,0.1c0.5,0,1-0.6,1.7-0.7   c0.7-0.1,1.1,0.6,1.7,0.7c0.6,0.1,2.3,0.3,2.6,0.6c0.4,0.5,0.6,1.7,0.9,2.4c0.3,0.7,1.3,2.8,2.1,3.2c0.7,0.4,2.2-0.5,2.5,0   C241.2,63.6,241.1,63.7,240.8,64.2z"></path>
	<path class="st2" d="M238.8,34.4c0.4,1,0.4,0.8,1,0.7c-0.2,0.7-0.6,2.3,0.4,2.4c0.3-0.1,0.3,0.1,0.3,0.2c0.1,0.5,0,1.1,0.5,1.3   c0.5,0.5,1.2,1.1,1.9,1c0.5-1.2,2.2-1.5,2-3c0-0.3-0.2-0.8,0-1c0.5-0.6,0.4-1.3,0.5-2c0-0.2-0.1-0.3-0.3-0.4   c-0.4-0.1-0.6-0.4-0.9-0.6c-0.4-0.5,0.7-0.5,0.5-1.3c-0.1-1-0.4-1.9-0.6-2.8c-0.3-0.7-1.4-0.4-1.9-0.9c-0.3-0.2-0.3-0.3,0-0.5   c1.3-1.2-3.4-3.4-4.1-4.4c1.7-0.1,3.3,0.4,4.8,1.1c0.5,0.3,0.6,0.3,0.8-0.3c0.3-0.7,0.9,0.3,1,0.7c0.1,1.1,1.5,1,2.1,1.8   c0.7,0.4,4.8,3.5,4.7,1.8c-0.1-0.2,0.3-0.3,0.3-0.1c0,0.3,0.2,0.4,0.4,0.6c0,0,0,0,0,0c0.6,0.3,1.2,0.2,1.7,0.1c0,0,0,0,0,0   c0.8-0.5,0.6-0.3,0.5-1.2c-0.1-0.8-0.3-1.6-0.9-2.3c-0.1-0.4-0.8-0.6-0.7-1c0.4-0.5-0.3-0.9-0.6-1.2c-0.2-0.2-0.3-0.6-0.5-0.8   c-1.7-1.3-3-4-5.2-4.1c-0.6,0.2-1.9,0.5-2.4,0.2c0-0.2,0.2-0.3,0.4-0.4c0.5,0,1.3-1.1,0.4-1.1c-1.3-0.3-2.6,0.1-3.8,0   c-1.3-0.4-2.5,0.2-3.7,0.3c-0.8-0.3-3.9,1.6-3.9,0.8c0.4-0.2,0.6-0.7,1.1-0.8c0.7-0.2,1.2-0.8,1.6-1.3c0.5-1.2,3.4-1.4,2.6-2.7   c1-0.1,1.8,0.6,2.9,0.5c1.5-0.1,3.2,0.2,4.6-0.5c0.5,0.2,1,0.1,1.4-0.2c0.2-0.1,0.4-0.1,0.3-0.4c-0.1-0.2,0-0.4-0.4-0.5   c-0.3,0-0.5-0.2-0.8-0.4c-0.9-1.1-2.5-1.1-3.8-1.6c-1.3-0.5-2.7-0.3-4,0.1c-0.3,0.1-0.4,0.1-0.6-0.1c-2.5-1.5-5.2,0.7-7.3,2   c-0.7,0.7-0.4,2.3-0.9,3c0-0.4,1-4.3-0.3-3.5c-0.1,0.1-0.3,0.1-0.4-0.2c-0.1-1-0.9-1.5-1.4-2.3c-0.4-0.7-0.6,0.1-1,0.2   c-0.2,0-0.1-0.2-0.2-0.3c-0.2-0.9-0.3-1-1.1-1.2c-0.2,0-0.4,0-0.5,0.1c-0.3,0.6-0.9-1-2-0.6c-0.6,0-4.1,1.3-3.1,2   c0.7,0.1,0.9,1.1,1.6,0.9c0.2-0.1,0.3,0,0.3,0.2c0,0.5,0.8,1.3,1.3,1.3c0.3,0,0.5-0.1,0.8,0.1c-0.9,0.6,0.5,1.1,0.8,1.7   c-0.3,0-0.6-0.2-0.9,0c-1.7-0.2-3.3,0.1-5,0.5c-0.6,0.1-0.8,0.5-0.5,0.9c0.1,0.1,0.3,0.1,0.2,0.3c-1.2,0.2-2.8-0.5-4,0.4   c-0.2,0.1-0.4,0.2-0.3,0.4c0.2,0.5-0.4,0.5-0.7,0.6c-0.6-0.3-1,0-1.4,0.4c-1.1,0.8-1,2.2-1.8,3.2c-0.7,1.2,1.3,0.9,2,1.1   c0.6,0.2,1.1-0.5,1.8-0.2c0.5,0.2,0.7,0,0.8-0.5c0.1-0.5,0.4-0.6,0.7-0.3c1.2,0.6,2.5-0.3,3.7-0.3c0.8,0,1.6,0.1,2.4-0.5   c0.2-0.1,0.4-0.1,0.5,0.1c0.4,0.5,1,0.3,1.6,0.6c0,0,0,0,0,0c0,0,0.1,0,0.1,0c-0.1,0.3-0.4,0.4-0.7,0.4c0,0,0.1-0.1,0.1-0.1   c-1.5,0.4-2.6,1.9-2.7,3.4c0,0.3,0.1,0.5-0.1,0.8c-4.5-2-12-1-15.2,2.9c-0.5,0.6-1.2,2.2,0.2,2.1c0.1,0,0.2,0,0.2,0.1   c-0.6,0.5-1.6,0.6-2,1.4c-0.4,0.6-1.4,2.2-0.3,2.5c0.3,0,0.3,0.3,0.1,0.4c-1.9,1.5-0.4,4.1,0.6,5.7c0,0.1,0.2,0.2,0.3,0.1   c0.5-0.2,0.9-0.5,1.3-0.8c1.2-0.5,0.6-2.7,1-3.6c0.4,0.3,0.4,0.3,0.7-0.2c0.6-0.8,1.4-1.5,1.9-2.4c0.1-0.3,0.3-0.6,0.6-0.7   c0,0,0.1-0.1,0.1-0.2c-0.1-0.3,0.1-0.4,0.2-0.7c0.4-1,0.4,0.9,1.4-0.4c0.6-1,1.9-1.1,2.7-1.9c0.3-0.3,0.6-0.3,1-0.2   c1.1,0.4,2-0.5,3.1-0.4c0.4,0,0.7-0.1,1-0.3c-0.6,0.7-1.5,1.6-2.2,2.3c-0.9,0.8-1,2-1.7,2.9c-0.2,0.3-0.4,0.7-0.1,1   c0.1,0.1,0,0.2,0,0.3c-0.5,1.2-0.4,2.6-0.5,3.8c-0.1,0.7,0.7,0.4,0.8,0.8c-0.1,0.3,0.3,4.3,0.9,3.5c0.3-0.2,0.5-0.2,0.6,0.2   c0,0.2,0.1,0.3,0.3,0.3c0.9,0.2,1-1,1.7-1.4c0.1-0.1,0.2-0.2,0.2-0.4c-0.1-1.2,1-0.6,1.6-1.7c1.1-0.6-0.5-1.2,0.4-1.6   c0.6-0.2,0.3-1.2,0.5-1.7c0.8-1.5,0.9-3.6,2.4-4.4c0.6,0.7-0.5,2.2,0.3,2.9c0.3,0.1,0.5-0.7,0.8-0.1c0.9,1.6,1,3.8,2.2,5.1   c0.2,0,0.2-0.2,0.3-0.4c0.2-0.3,0-1.1,0.8-0.7c0.4-0.2,0.9-0.4,1.2-0.7c0.2-0.2,0.2-0.1,0.3,0l0.1-4.3l0.8-2.4l2.5,0.9l0.2-2.2   l-3.4-2.2c0,0,0.4-2,0.5-1.9c0.1,0,3.3,1.8,3.3,1.8l2.2-0.1l1.2,1.6l1.2,1.3l-0.6,1.4L238.8,34.4z"></path>
	<path class="st3" d="M257.7,65.9c-0.5-3-1.8-6.2-4.2-8.1c0,0,0,0,0,0c0-0.1-0.1-0.2-0.1-0.2c-0.4-0.1-0.7-0.5-1-0.7   c-2.8-2.7-6.7-4.3-10.5-5.4c-0.6-0.4-2.4-0.6-3.7-0.9l-4.9-0.9c-2.4-0.1-4.7-0.4-7.1-0.2c-9.9,0.8-24.4,4-26.5,15.4   c-1.1,11.7,12.2,17.2,21.7,18.8c4.3,0.6,8.5,1,12.8,0.3c6.3-0.9,13.3-2.5,18.1-6.8c0,0,0,0,0,0C255.7,74.7,258.4,70.4,257.7,65.9z    M240.8,64.2c-0.3,0.5-3.1,2.6-3.4,3.5c-0.3,1-0.4,3-0.9,3.6c-0.5,0.6-2.7,2.8-3.2,3.3c-0.5,0.6-1.3,1.2-1.8,1.4   c-0.5,0.2-1.5,0.4-2.3,0.5c-0.8,0-1.1,0-1.9-1c-0.8-1-0.6-1.7-1-2.3c-0.4-0.7-0.8-1.1-0.8-1.7c0-0.6,0.1-1.1-0.1-1.8   s0.2-2.3-0.3-2.8c-0.5-0.4-0.9-1.1-4.3-1.1c-3.4,0-4.7-0.6-5.9-2.2c-1.1-1.6,1.2-4.7,1.7-5.5c0.5-0.8,2.4-1.9,4.6-2.3   c2.2-0.4,3.7-0.5,4.2-0.3c0.6,0.2,1.2,1,2,1.4c0.8,0.4,1.5,0.1,2,0.1c0.5,0,1-0.6,1.7-0.7c0.7-0.1,1.1,0.6,1.7,0.7   c0.6,0.1,2.3,0.3,2.6,0.6c0.4,0.5,0.6,1.7,0.9,2.4c0.3,0.7,1.3,2.8,2.1,3.2c0.7,0.4,2.2-0.5,2.5,0   C241.2,63.6,241.1,63.7,240.8,64.2z"></path>
	<path class="st4" d="M247.2,24.1c-0.1,0-0.2-0.2-0.2-0.3c0-0.1,0.1-0.2,0.2-0.2c0.2,0,0.2,0.1,0.2,0.3   C247.4,24,247.3,24.1,247.2,24.1z M246.8,24c-0.1,0-0.3,0.1-0.2,0.3c0,0.1,0.1,0.2,0.2,0.2c0.1,0,0.3-0.1,0.3-0.3   C247,24.1,246.9,24.1,246.8,24z M247.2,24.5c-0.1,0-0.2,0.1-0.2,0.2c0,0.1,0.1,0.2,0.2,0.2c0.1,0,0.2-0.1,0.2-0.2   C247.4,24.6,247.4,24.5,247.2,24.5z M247,23.4c0-0.1-0.1-0.3-0.2-0.2c-0.3,0.1-0.3,0.3-0.3,0.5C246.7,23.6,246.9,23.7,247,23.4z    M245.9,24.1c-0.1,0-0.2,0.1-0.2,0.2c0,0.1,0.1,0.2,0.2,0.2c0.1,0,0.2,0,0.2-0.2C246.1,24.3,246.1,24.1,245.9,24.1z M247.7,24.4   c0.1,0,0.2-0.1,0.2-0.2c0-0.1-0.1-0.2-0.2-0.2c-0.1,0.1-0.2,0.1-0.2,0.2C247.5,24.4,247.5,24.5,247.7,24.4z M246.3,24.5   c-0.1,0-0.2,0.1-0.2,0.3c0,0.1,0.1,0.2,0.2,0.2c0.1,0,0.2-0.1,0.2-0.2C246.6,24.6,246.5,24.5,246.3,24.5z M246.5,23.7   c-0.2,0-0.3-0.1-0.4,0.1c-0.1,0.1,0,0.3,0.1,0.3C246.7,24.2,246.4,23.8,246.5,23.7z M245.1,23.9c0.1,0.1,0.2,0.3,0.4,0.1   c0.1-0.1,0.1-0.2,0-0.3C245.3,23.6,245.2,23.8,245.1,23.9z M246,23.5c0-0.2-0.1-0.3-0.2-0.3c-0.1,0-0.2,0.1-0.2,0.2   c0,0.1,0.1,0.3,0.2,0.3C246,23.7,246,23.6,246,23.5z M246.5,23.7C246.5,23.7,246.5,23.7,246.5,23.7   C246.5,23.7,246.5,23.7,246.5,23.7L246.5,23.7C246.5,23.7,246.5,23.7,246.5,23.7C246.5,23.7,246.5,23.7,246.5,23.7L246.5,23.7z    M236.7,13.8c0.1,0,0.2-0.1,0.2-0.2c0-0.1-0.1-0.2-0.2-0.2c-0.1,0-0.3,0.1-0.3,0.2C236.5,13.8,236.6,13.8,236.7,13.8z M236.3,13.9   c-0.1,0-0.2,0.1-0.2,0.2c0,0.1,0.1,0.2,0.2,0.2c0.1,0,0.2-0.1,0.2-0.2C236.5,14,236.4,13.9,236.3,13.9z M237.2,13.8   c-0.1,0-0.2,0.1-0.2,0.2c0,0.2,0.1,0.2,0.3,0.3l0.2-0.2C237.4,14,237.4,13.8,237.2,13.8z M245.1,23.9   C245.1,23.9,245.1,23.9,245.1,23.9C245.1,23.9,245.1,23.9,245.1,23.9L245.1,23.9z M235.9,14.3c-0.1,0-0.2,0.1-0.2,0.2   c0,0.1,0.1,0.2,0.2,0.2c0.1,0,0.2-0.1,0.2-0.2C236.1,14.4,236,14.3,235.9,14.3z M236.7,14.3c-0.1,0-0.1,0.2-0.1,0.2   c0.1,0.2,0.2,0.2,0.4,0.1c0-0.1,0-0.1,0.1-0.2C237,14.3,236.8,14.2,236.7,14.3z M247.7,24.9c-0.1,0-0.2,0.1-0.2,0.2   c0,0.2,0.1,0.2,0.2,0.3c0.2,0,0.2-0.1,0.2-0.2C247.9,25,247.9,24.9,247.7,24.9z M237.8,13.8C237.8,13.8,237.8,13.8,237.8,13.8   C237.8,13.8,237.8,13.8,237.8,13.8L237.8,13.8z M237.5,13.8c0.1,0,0.2,0.1,0.2,0.1c0-0.1,0.1-0.2,0.1-0.2c0-0.1,0-0.2-0.2-0.2   c-0.1,0-0.2,0-0.3,0.1C237.4,13.6,237.4,13.7,237.5,13.8z M237,13.1c0,0.1,0.1,0.2,0.2,0.2c0.1,0,0.2-0.1,0.2-0.2   c0-0.1-0.1-0.2-0.2-0.2C237.1,13,237,13,237,13.1z M248.3,25.3c-0.1-0.1-0.2,0-0.3,0.1c-0.1,0.1,0,0.2-0.1,0.3   c0.1,0,0.2,0.1,0.3,0.1c0.1,0,0.2-0.1,0.2-0.2C248.5,25.5,248.4,25.4,248.3,25.3z M248.6,25.7c-0.1,0-0.2,0.1-0.2,0.2   c0,0.2,0.1,0.3,0.3,0.2c0.1,0,0.2-0.1,0.2-0.2C248.9,25.8,248.8,25.7,248.6,25.7z M249.1,26.1c-0.1,0-0.2,0.1-0.2,0.3   c0,0.1,0.1,0.2,0.2,0.2c0.1,0,0.2-0.1,0.2-0.2C249.4,26.2,249.3,26.2,249.1,26.1z M235.5,13.9c-0.1,0-0.2,0.1-0.2,0.2   c0,0.1,0,0.1,0,0.2c0.1,0,0.1,0,0.2,0c0.1,0,0.2-0.1,0.2-0.2C235.6,14,235.6,13.9,235.5,13.9z M247.9,25.7   C247.9,25.7,247.9,25.7,247.9,25.7C247.9,25.7,247.9,25.7,247.9,25.7L247.9,25.7z M250.5,27.5c-0.1,0-0.2,0-0.2,0.2   c0,0.1,0.1,0.2,0.2,0.2c0.1,0,0.2,0,0.2-0.1C250.7,27.5,250.7,27.5,250.5,27.5z M234.9,14.4c-0.1,0.1-0.2,0.2-0.1,0.3   c0.1,0.1,0.2,0.2,0.3,0.1c0.1,0,0.2,0,0.2-0.2c0-0.1,0-0.2,0-0.3C235.1,14.4,235,14.4,234.9,14.4z M240.3,12.9   c0.1,0,0.2-0.1,0.2-0.2c0-0.1-0.1-0.2-0.2-0.2c-0.1,0-0.2,0.1-0.2,0.2C240.1,12.8,240.2,12.9,240.3,12.9z M237.9,27.2   c-0.1,0-0.2,0.1-0.2,0.3c0,0.1,0.1,0.2,0.2,0.2c0.1,0,0.2-0.1,0.2-0.2C238.2,27.3,238.1,27.2,237.9,27.2z M243.9,34.7   c0,0.1,0.1,0.2,0.2,0.2c0.1,0,0.2-0.1,0.2-0.3c-0.1-0.1-0.1-0.2-0.2-0.2C244,34.5,243.9,34.6,243.9,34.7z M243.8,34.9   c-0.2,0-0.2,0.1-0.2,0.3c0,0.1,0.1,0.2,0.2,0.2c0.2,0,0.2-0.1,0.3-0.3C244,35.1,243.9,35,243.8,34.9z M243.1,31   c-0.1,0-0.2,0.1-0.2,0.2c0,0.1,0,0.2,0.2,0.2c0.2,0,0.2-0.1,0.2-0.2C243.3,31.1,243.2,31,243.1,31z M242.6,31.4   c-0.1,0-0.2,0.1-0.2,0.2c0,0.1,0.1,0.2,0.2,0.2c0.1,0,0.2-0.1,0.2-0.2C242.9,31.5,242.8,31.5,242.6,31.4z M240.5,32   c-0.1,0-0.2,0.1-0.2,0.2c0,0.2,0.1,0.3,0.3,0.3c0.1,0,0.2-0.1,0.2-0.3C240.7,32.1,240.6,32,240.5,32z M243.3,34.6   c-0.1,0-0.3,0.1-0.3,0.2c0,0.2,0.1,0.2,0.3,0.2c0.1,0,0.2-0.1,0.3-0.2C243.5,34.7,243.4,34.6,243.3,34.6z M241.8,29.2   c0.1-0.1,0.1-0.2,0.1-0.3c-0.1-0.1-0.2-0.2-0.3-0.1c-0.1,0-0.1,0.1-0.2,0.1c0,0.1,0,0.2,0.1,0.2C241.5,29.2,241.6,29.3,241.8,29.2z    M241.4,28.9C241.4,28.9,241.4,28.9,241.4,28.9C241.4,28.9,241.4,28.9,241.4,28.9C241.4,28.9,241.4,28.9,241.4,28.9   C241.4,28.9,241.4,28.9,241.4,28.9z M241.4,28.9c0-0.2,0.2-0.4-0.1-0.5c-0.1,0-0.3,0-0.3,0.2C240.9,28.9,241.2,28.8,241.4,28.9z    M240,32.5c-0.1,0-0.2,0-0.2,0.2c0,0.1,0,0.2,0.2,0.3c0.1,0,0.2-0.1,0.2-0.2C240.3,32.6,240.2,32.5,240,32.5z M243.2,29.2   C243.2,29.2,243.2,29.2,243.2,29.2C243.2,29.2,243.2,29.2,243.2,29.2L243.2,29.2z M243,29.6c0.1,0,0.2-0.1,0.2-0.2   c0-0.1,0-0.2-0.1-0.3c-0.1,0-0.2,0-0.3,0.1c-0.1,0.1-0.2,0.1-0.1,0.3C242.8,29.6,242.9,29.6,243,29.6z M241.9,29.5   c0,0.2-0.1,0.2-0.2,0.2c-0.1,0-0.2,0.1-0.2,0.2c0,0.1,0.1,0.2,0.2,0.2c0.3,0.2,0.6,0.4,0.7,0.6c0.2,0.3,0.3,0.3,0.6,0.1   c0.2-0.1,0.3-0.2,0.5,0c0.1,0.1,0.2,0.1,0.3,0c0.1-0.1,0-0.2-0.1-0.3c-0.2-0.1-0.2-0.2-0.3-0.3c-0.3-0.2-0.5-0.9-1.2-0.4   c0-0.1,0-0.2,0.1-0.2c0.1-0.1,0.2-0.3,0-0.4C242,29.2,241.8,29.3,241.9,29.5z M239.9,30.7c-0.1,0-0.2,0.1-0.2,0.2   c0,0.1,0.1,0.2,0.2,0.2c0.1,0,0.2-0.1,0.2-0.2C240.2,30.7,240.1,30.7,239.9,30.7z M237.5,27.3c0.1,0,0.2-0.1,0.2-0.2   c0-0.2-0.1-0.3-0.3-0.3c-0.1,0-0.2,0.1-0.2,0.2C237.3,27.1,237.3,27.3,237.5,27.3z M237.5,27.7c-0.1,0-0.3,0.1-0.3,0.2   c0,0.1,0.1,0.2,0.3,0.2c0.1-0.1,0.3-0.1,0.2-0.3C237.8,27.8,237.7,27.7,237.5,27.7z M238.9,28.5c0.1,0,0.2-0.1,0.2-0.2   c0-0.1-0.1-0.2-0.2-0.2c-0.1,0-0.2,0.1-0.2,0.2C238.7,28.4,238.7,28.5,238.9,28.5z M206.9,34.3c-0.1,0-0.2,0.1-0.2,0.2   c0,0.1,0,0.2,0.2,0.2c0.1,0,0.2,0,0.3-0.2C207.1,34.4,207.1,34.3,206.9,34.3z M240.2,31.8c0-0.1-0.1-0.2-0.2-0.2   c-0.1,0-0.2,0.1-0.2,0.2c0,0.1,0.1,0.2,0.2,0.2C240.1,32,240.2,31.9,240.2,31.8z M238.5,29.4c-0.1,0-0.2,0-0.2,0.2   c0,0.2,0.1,0.3,0.3,0.3c0.1,0,0.1,0,0.2,0c0-0.1,0-0.1,0-0.2C238.8,29.5,238.7,29.4,238.5,29.4z M238.4,28.1c0.1,0,0.2-0.1,0.2-0.2   c0-0.1-0.1-0.2-0.2-0.2c-0.1,0-0.2,0.1-0.2,0.2C238.2,28,238.3,28.1,238.4,28.1z M238.6,28.6c0-0.1-0.2-0.1-0.3,0.1   c-0.1,0.1-0.1,0.3,0.1,0.3c0.2,0.1,0.3,0.2,0.5,0.4c0,0.1,0.1,0.1,0.2,0.1c0.1,0,0.1-0.1,0.2-0.2c0,0,0-0.1-0.1-0.1   C239,28.9,238.7,28.9,238.6,28.6z M241,27.1c0.2,0,0.3-0.1,0.3-0.2c0-0.1-0.1-0.2-0.2-0.2c-0.1,0-0.3,0.1-0.3,0.2   C240.8,27,240.9,27.1,241,27.1z M239.5,32c-0.1,0-0.2,0.1-0.2,0.3c0,0.1,0.1,0.2,0.2,0.2c0.2,0,0.3-0.1,0.2-0.2   C239.8,32.1,239.7,32,239.5,32z M240.1,30c0-0.1-0.1-0.2-0.2-0.2c-0.1,0-0.2,0.1-0.2,0.2c0,0.1,0.1,0.2,0.2,0.2   C240,30.2,240.1,30.1,240.1,30z M239.4,29.3c-0.1,0-0.2,0.1-0.2,0.2c0,0.1,0,0.2,0.2,0.2c0.1,0,0.3,0,0.3-0.2   C239.6,29.4,239.6,29.3,239.4,29.3z M240.4,31.6c0.1,0,0.2-0.1,0.2-0.2c0-0.2-0.1-0.2-0.2-0.2c-0.1,0-0.2,0.1-0.2,0.2   C240.2,31.5,240.3,31.6,240.4,31.6z M238.7,20.7c0,0.1,0.1,0.2,0.2,0.2c0.1,0.1,0.2,0,0.3-0.1c0-0.1,0-0.2,0-0.3   c-0.1,0-0.2,0-0.3,0C238.8,20.5,238.7,20.5,238.7,20.7z M249.6,25.7c-0.1,0-0.2,0.1-0.2,0.2c0,0.2,0.1,0.2,0.2,0.3   c0.2,0,0.2-0.1,0.2-0.2C249.8,25.8,249.7,25.7,249.6,25.7z M243,21.6c-0.1,0-0.2,0.1-0.2,0.2c0,0.1,0.1,0.2,0.2,0.2   c0.1,0,0.2-0.1,0.2-0.2C243.2,21.7,243.2,21.6,243,21.6z M249.5,25.3c0.1,0,0.2-0.1,0.2-0.2c0-0.1-0.1-0.2-0.2-0.2   c-0.1,0-0.2,0.1-0.2,0.2C249.3,25.2,249.4,25.3,249.5,25.3z M249.9,25.7c0.1,0,0.2-0.1,0.2-0.2c0-0.1,0-0.3-0.2-0.3   c-0.2,0-0.2,0.1-0.3,0.2C249.7,25.6,249.8,25.7,249.9,25.7z M243.5,22c-0.1,0-0.2,0.1-0.2,0.2c0,0.1,0.1,0.2,0.2,0.2   c0.2,0,0.2-0.1,0.2-0.2C243.7,22.1,243.6,22,243.5,22z M243.9,21.5c-0.1,0-0.2,0.1-0.2,0.2c0,0.2,0.1,0.2,0.2,0.3   c0.1,0,0.2-0.1,0.2-0.2C244.2,21.6,244,21.5,243.9,21.5z M249.1,25.7c0.1,0,0.2,0,0.2-0.2c0-0.2-0.1-0.3-0.2-0.3   c-0.2,0-0.2,0.1-0.2,0.3C248.8,25.7,248.9,25.7,249.1,25.7z M246.3,23.2c0.1,0,0.2-0.1,0.2-0.2c-0.1-0.1-0.1-0.3-0.3-0.3   c-0.1,0-0.2,0.2-0.2,0.3C246,23.1,246.1,23.2,246.3,23.2z M248.6,25.3c0.1,0,0.3-0.1,0.2-0.2c-0.1-0.3-0.3-0.3-0.5-0.3   C248.4,25,248.4,25.3,248.6,25.3z M245.1,23c0,0.2,0.1,0.2,0.3,0.2c0.1,0,0.2-0.1,0.2-0.2c0-0.2-0.1-0.2-0.3-0.2   C245.2,22.8,245.1,22.9,245.1,23z M245.8,22.8c0.2,0,0.2-0.1,0.2-0.2c0-0.1-0.1-0.3-0.2-0.3c-0.1,0-0.2,0-0.3,0.2   C245.5,22.7,245.6,22.8,245.8,22.8z M248.4,24.8C248.4,24.8,248.4,24.8,248.4,24.8C248.4,24.8,248.4,24.8,248.4,24.8   C248.4,24.8,248.4,24.8,248.4,24.8C248.4,24.8,248.4,24.8,248.4,24.8z M240.7,27.1c-0.2,0-0.3,0.1-0.3,0.2c0,0.1,0.1,0.2,0.2,0.2   c0.1,0,0.2-0.1,0.2-0.2C240.8,27.2,240.8,27.1,240.7,27.1z M248.4,24.8c0-0.1,0-0.1,0-0.2c-0.1-0.1-0.1-0.3-0.3-0.2   c-0.1,0.1-0.1,0.2-0.1,0.4C248.1,25,248.2,24.9,248.4,24.8z M237.2,21c0.3-0.1,0.2-0.3,0.1-0.5c0,0,0,0,0,0c-0.2,0-0.4,0.1-0.3,0.3   C237,21,237.1,21.1,237.2,21z M240.1,26.2c0.1,0,0.2,0,0.3-0.2c0-0.1-0.1-0.2-0.2-0.2c-0.1,0-0.2,0.1-0.2,0.2   C239.8,26.1,240,26.2,240.1,26.2z M237.3,20.5C237.3,20.5,237.3,20.5,237.3,20.5C237.3,20.5,237.3,20.5,237.3,20.5L237.3,20.5z    M239.9,21.3c-0.1,0-0.2,0-0.2,0.2c0,0.1,0.1,0.2,0.2,0.3c0.1,0,0.2-0.1,0.3-0.2C240.1,21.4,240,21.3,239.9,21.3z M240.2,26.7   c-0.1,0-0.2,0.1-0.2,0.2c0,0.1,0.1,0.2,0.2,0.2c0.1,0,0.2-0.1,0.2-0.2C240.4,26.8,240.3,26.7,240.2,26.7z M240.5,26.6   c0.1,0,0.2,0,0.3-0.2c0-0.1-0.1-0.2-0.2-0.2c-0.1,0-0.2,0-0.2,0.1C240.4,26.5,240.4,26.6,240.5,26.6z M239.6,25.8   c0.1,0,0.2-0.1,0.2-0.2c0-0.1,0-0.2-0.2-0.2c-0.1,0-0.3,0.1-0.3,0.3C239.4,25.7,239.5,25.8,239.6,25.8z M236.9,21.8   C236.9,21.8,236.9,21.8,236.9,21.8C236.9,21.8,236.9,21.8,236.9,21.8L236.9,21.8z M239.2,20.5C239.2,20.5,239.2,20.5,239.2,20.5   L239.2,20.5C239.2,20.5,239.2,20.5,239.2,20.5z M239.4,20.9c-0.1,0-0.2,0.1-0.2,0.2c0,0.1,0.1,0.2,0.2,0.2c0.1,0,0.2-0.1,0.2-0.2   C239.6,21,239.5,20.9,239.4,20.9z M245.5,22.2c0-0.1,0-0.2-0.2-0.2c-0.1,0-0.2,0.1-0.2,0.2c0,0.1,0.1,0.2,0.2,0.2   C245.4,22.4,245.5,22.3,245.5,22.2z M237.3,21.5c-0.2,0-0.3,0.1-0.3,0.3c0.2,0.1,0.3,0.4,0.4,0C237.4,21.6,237.4,21.5,237.3,21.5z    M235.2,14.4C235.2,14.4,235.2,14.4,235.2,14.4C235.2,14.4,235.2,14.4,235.2,14.4L235.2,14.4L235.2,14.4   C235.2,14.4,235.2,14.4,235.2,14.4C235.2,14.4,235.2,14.4,235.2,14.4L235.2,14.4z M226.7,35c-0.1,0-0.2,0.1-0.2,0.3   c0,0.1,0.1,0.2,0.3,0.2c0.1,0,0.2-0.1,0.2-0.2C227,35.1,226.8,35,226.7,35z M227.1,25.6c0.1,0,0.2-0.1,0.2-0.2   c-0.1-0.1-0.1-0.2-0.3-0.2c-0.1,0-0.2,0.1-0.2,0.2C226.9,25.5,227,25.6,227.1,25.6z M226.9,33.8c0,0.1,0,0.3,0.2,0.3   c0.1,0,0.2-0.1,0.3-0.2c0-0.1-0.1-0.3-0.3-0.3C227,33.6,226.9,33.7,226.9,33.8z M226.6,28.3C226.6,28.3,226.6,28.3,226.6,28.3   C226.6,28.3,226.6,28.3,226.6,28.3L226.6,28.3z M226.2,33.2c0.1,0,0.2-0.1,0.2-0.2c0-0.1-0.1-0.2-0.2-0.2c-0.1,0-0.2,0.1-0.2,0.2   C226,33.1,226,33.2,226.2,33.2z M226.7,34.6c0.1,0,0.2-0.1,0.2-0.2c0-0.2-0.1-0.2-0.3-0.2c-0.1,0-0.2,0.1-0.2,0.2   C226.5,34.5,226.6,34.5,226.7,34.6z M225.8,33.2c-0.2,0-0.2,0.1-0.2,0.2c0,0.2,0.1,0.3,0.2,0.3c0.1,0,0.2-0.1,0.3-0.2   C226,33.4,225.9,33.2,225.8,33.2z M226.2,33.7c-0.1,0-0.2,0.1-0.2,0.3c0,0.1,0.1,0.2,0.2,0.2c0.2,0,0.2-0.1,0.2-0.3   C226.5,33.7,226.3,33.7,226.2,33.7z M227,32.7c-0.1,0-0.3,0.1-0.2,0.3c0,0.1,0.1,0.2,0.2,0.2c0.1,0,0.2-0.1,0.2-0.3   C227.3,32.8,227.2,32.7,227,32.7z M226.3,26.9c-0.1,0-0.2,0.1-0.2,0.2c0,0.2,0.1,0.2,0.2,0.3c0.1,0,0.2-0.1,0.2-0.2   C226.6,27.1,226.5,27,226.3,26.9z M225.9,27.4c-0.1,0-0.2,0.1-0.2,0.2c0,0.1,0.1,0.3,0.2,0.3c0.1,0,0.2-0.1,0.2-0.2   C226.1,27.5,226,27.4,225.9,27.4z M227,27.6c0-0.1-0.1-0.2-0.2-0.2c-0.2,0-0.2,0.1-0.2,0.2c0,0.1,0.1,0.2,0.2,0.2   C226.9,27.8,227,27.7,227,27.6z M223.5,18.2c0.1,0,0.2-0.1,0.2-0.3c0-0.1-0.1-0.2-0.2-0.2c-0.1,0-0.2,0.1-0.2,0.2   C223.4,18.1,223.4,18.2,223.5,18.2z M226.2,25.6c0.1,0,0.2-0.1,0.2-0.2c0-0.1-0.1-0.2-0.2-0.2c-0.1,0-0.2,0.1-0.2,0.2   C226,25.5,226.1,25.6,226.2,25.6z M226.7,26.5c-0.1,0-0.2,0.1-0.2,0.2c0,0.1,0.1,0.2,0.2,0.2c0.1,0,0.2-0.1,0.2-0.2   C226.9,26.6,226.9,26.5,226.7,26.5z M226,26.3c0,0.2,0.1,0.2,0.2,0.2c0.1,0,0.2-0.1,0.2-0.2c0-0.1-0.1-0.2-0.2-0.3   C226.1,26,226,26.1,226,26.3z M226.7,32.1c0,0.1,0.1,0.2,0.3,0.2c0.1,0,0.2-0.1,0.3-0.2c0-0.2-0.2-0.2-0.3-0.2   C226.9,31.8,226.7,31.9,226.7,32.1z M225.4,18.5c-0.1,0-0.2,0.1-0.2,0.2c0,0.1,0.1,0.2,0.2,0.2c0.1,0,0.2-0.1,0.2-0.2   C225.6,18.6,225.5,18.5,225.4,18.5z M224.5,18.6c-0.3,0-0.3,0.2-0.3,0.4c0.2,0,0.3,0.2,0.4-0.1C224.7,18.8,224.7,18.6,224.5,18.6z    M225,19c-0.1,0-0.2,0-0.2,0.2c0,0.2,0.1,0.3,0.2,0.3c0.1,0,0.2-0.1,0.2-0.2C225.2,19.1,225.1,19,225,19z M225.1,18.3   c0-0.2-0.1-0.2-0.2-0.2c-0.1,0-0.2,0.1-0.2,0.2c0,0.1,0,0.2,0.2,0.2C225,18.5,225.1,18.5,225.1,18.3z M223.6,18.6   c-0.1,0-0.2,0.1-0.2,0.2c0,0.1,0.1,0.2,0.2,0.2c0.1,0,0.2-0.1,0.2-0.2C223.8,18.7,223.7,18.6,223.6,18.6z M224.2,19   C224.2,19,224.2,19,224.2,19C224.2,19,224.2,19,224.2,19C224.2,19,224.2,19,224.2,19L224.2,19C224.2,19,224.2,19,224.2,19   C224.2,19,224.2,19,224.2,19L224.2,19z M223.9,19.3c0,0.1,0.1,0.1,0.2,0.1c0.2-0.1,0.2-0.2,0.1-0.4c0,0,0-0.1,0-0.1   c0,0-0.1,0-0.1,0C223.9,19,223.8,19.1,223.9,19.3z M225.8,18.5c0.1,0,0.2-0.1,0.2-0.2c0-0.1-0.1-0.2-0.2-0.2   c-0.1,0-0.2,0.1-0.2,0.2C225.6,18.4,225.7,18.5,225.8,18.5z M228.6,18.8c-0.1,0-0.2,0.1-0.2,0.2c0,0.1,0.1,0.2,0.2,0.2   c0.1,0,0.2,0,0.2-0.2C228.7,18.9,228.7,18.8,228.6,18.8z M226.6,32.7c0.1,0,0.2-0.1,0.2-0.2c0-0.1-0.1-0.2-0.3-0.2   c-0.2,0-0.2,0.2-0.2,0.3C226.4,32.8,226.5,32.8,226.6,32.7z M227.6,18.9c-0.1,0-0.2,0.1-0.2,0.2c0,0.1,0.1,0.2,0.2,0.2   c0.1,0,0.2-0.1,0.2-0.2C227.8,19,227.8,18.9,227.6,18.9z M225.9,19c-0.1,0-0.2,0-0.2,0.2c0,0.2,0.1,0.2,0.2,0.3   c0.1,0,0.2-0.1,0.2-0.2C226,19.1,226,19,225.9,19z M226.4,33.4c0,0.1,0.1,0.2,0.3,0.2c0.1,0,0.3,0,0.3-0.2   c-0.1-0.1-0.1-0.3-0.3-0.3C226.5,33.2,226.4,33.3,226.4,33.4z M226.3,18.5c-0.1,0-0.2,0-0.2,0.2c0,0.2,0.1,0.2,0.2,0.3   c0.1,0,0.2-0.1,0.2-0.2C226.5,18.6,226.4,18.5,226.3,18.5z M227.2,18.4c-0.1,0-0.2,0.1-0.2,0.2c0,0.1,0.1,0.2,0.2,0.2   c0.1,0,0.2-0.1,0.2-0.2C227.4,18.5,227.3,18.4,227.2,18.4z M226.7,26.1c0.1,0,0.2-0.1,0.2-0.2c0-0.1-0.1-0.2-0.3-0.3   c-0.1,0-0.2,0.1-0.2,0.2C226.5,25.9,226.5,26.1,226.7,26.1z M230.3,18.7c-0.1,0-0.2,0.1-0.3,0.2c0.1,0.1,0.1,0.2,0.3,0.2   c0.1,0,0.2-0.1,0.2-0.3C230.5,18.8,230.4,18.7,230.3,18.7z M231.4,18.9c0-0.1-0.1-0.2-0.2-0.2c-0.2,0-0.2,0.1-0.2,0.3   c0,0.1,0.1,0.2,0.2,0.2C231.3,19.1,231.4,19,231.4,18.9z M230.8,19.1c-0.2,0-0.3,0.1-0.3,0.2c0,0.2,0.1,0.3,0.3,0.3   c0.2,0,0.2-0.1,0.3-0.3C231,19.2,230.9,19.1,230.8,19.1z M229.3,29.5c0-0.1-0.1-0.3-0.3-0.2c-0.1,0.1-0.2,0.2-0.1,0.3   c0.1,0.4,0.2,0.7,0.3,1.1c0.1,0.1,0.1,0.3,0.4,0.2c0.2-0.1,0.2-0.3,0.1-0.5c-0.1-0.1-0.1-0.3-0.1-0.5   C229.5,29.8,229.4,29.7,229.3,29.5z M227,28.5c0-0.2-0.1-0.3-0.3-0.3c0,0-0.1,0-0.1,0c0,0,0,0.1,0,0.1c-0.1,0.2,0,0.3,0.2,0.4   C226.9,28.7,227,28.7,227,28.5z M231.3,22.1c0-0.3,0-0.5-0.3-0.7c-0.1-0.1-0.2-0.1-0.2,0c-0.1,0.2-0.2,0.5-0.1,0.7   c0.1,0.2,0.2,0.5,0.4,0.5C231.3,22.7,231.2,22.3,231.3,22.1z M229.5,18.8c-0.1,0-0.2,0-0.3,0.1c0,0.1,0.1,0.2,0.2,0.3   c0.1,0.1,0.2,0,0.2-0.1C229.7,18.9,229.6,18.8,229.5,18.8z M229.7,18.3C229.7,18.3,229.7,18.3,229.7,18.3c-0.2,0.2-0.1,0.4,0.1,0.4   c0.1,0,0.2-0.1,0.2-0.2C230.1,18.3,229.9,18.4,229.7,18.3z M231.6,30.1c0-0.1,0-0.2-0.1-0.2c-0.1,0-0.2,0-0.3,0c0,0.1,0,0.2,0,0.3   c0,0.1,0.1,0.2,0.2,0.2C231.5,30.2,231.6,30.2,231.6,30.1z M232.8,31.5c0.1,0,0.2-0.1,0.2-0.2c0-0.2-0.1-0.2-0.3-0.2   c-0.1,0-0.2,0.1-0.2,0.2C232.6,31.4,232.6,31.5,232.8,31.5z M252.5,77.5c-4.9,4.4-11.9,6-18.3,7c-4.4,0.7-8.6,0.3-12.9-0.3   c-9.7-1.6-23-7.2-21.9-19.1c2.2-11.5,16.8-14.8,26.7-15.6c2.4-0.2,4.8,0,7.2,0.2c1.2,0.2-0.1-1.9,0-2.5c-0.7-2.9-1.3-5.8-2.9-8.4   c-0.1-0.2-0.1-0.2-0.3,0c-0.3,0.4-0.8,0.5-1.2,0.7c-0.8-0.3-0.6,0.5-0.8,0.7c-0.1,0.1-0.1,0.3-0.3,0.4c-1.2-1.2-1.3-3.5-2.2-5.1   c-0.3-0.6-0.5,0.2-0.8,0.1c-0.8-0.7,0.4-2.2-0.3-2.9c-1.5,0.8-1.6,3-2.4,4.4c-0.2,0.5,0.1,1.4-0.5,1.7c-0.8,0.4,0.7,1.1-0.4,1.6   c-0.6,1.1-1.7,0.4-1.6,1.7c0,0.2-0.1,0.3-0.2,0.4c-0.7,0.4-0.8,1.6-1.7,1.4c-0.2,0-0.3-0.1-0.3-0.3c-0.1-0.5-0.4-0.4-0.6-0.2   c-0.6,0.8-1-3.2-0.9-3.5c0-0.4-0.9-0.1-0.8-0.8c0.1-1.3,0-2.6,0.5-3.8c0-0.1,0.1-0.2,0-0.3c-0.3-0.4-0.1-0.7,0.1-1   c0.7-0.9,0.9-2.2,1.7-2.9c0.8-0.7,1.7-1.6,2.2-2.3c-0.2,0.2-0.6,0.3-1,0.3c-1.1-0.1-2,0.8-3.1,0.4c-0.4-0.1-0.7-0.1-1,0.2   c-0.8,0.7-2.1,0.9-2.7,1.9c-1,1.3-0.9-0.6-1.4,0.4c-0.1,0.2-0.3,0.4-0.2,0.7c0,0.1,0,0.2-0.1,0.2c-0.4,0.1-0.5,0.5-0.6,0.7   c-0.5,0.9-1.2,1.6-1.9,2.4c-0.3,0.5-0.3,0.5-0.7,0.2c-0.4,0.9,0.2,3.1-1,3.6c-0.4,0.3-0.8,0.6-1.3,0.8c-0.2,0.1-0.3,0-0.3-0.1   c-0.9-1.6-2.5-4.3-0.6-5.7c0.3-0.1,0.2-0.4-0.1-0.4c-1.1-0.3-0.1-1.9,0.3-2.5c0.4-0.8,1.3-0.9,2-1.4C206.1,30,206,30,206,30   c-1.4,0.1-0.6-1.5-0.2-2.1c3.2-4,10.7-5,15.2-2.9c0.2-0.2,0.2-0.5,0.1-0.8c0.1-1.5,1.2-3.1,2.7-3.4c0,0-0.1,0.1-0.1,0.1   c0.3,0,0.6,0,0.7-0.4c0,0-0.1,0-0.1,0c0,0,0,0,0,0c-0.5-0.2-1.2-0.1-1.6-0.6c-0.1-0.2-0.3-0.2-0.5-0.1c-0.7,0.6-1.5,0.5-2.4,0.5   c-1.2,0-2.5,0.9-3.7,0.3c-0.4-0.3-0.6-0.2-0.7,0.3c-0.1,0.5-0.3,0.7-0.8,0.5c-0.6-0.4-1.2,0.3-1.8,0.2c-0.6-0.3-2.7,0-2-1.1   c0.8-1,0.7-2.4,1.8-3.2c0.4-0.4,0.8-0.7,1.4-0.4c0.3-0.1,0.9-0.1,0.7-0.6c-0.1-0.2,0.1-0.4,0.3-0.4c1.2-0.9,2.7-0.2,4-0.4   c0.1-0.1-0.1-0.2-0.2-0.3c-0.3-0.3-0.1-0.7,0.5-0.9c1.6-0.4,3.3-0.7,5-0.5c0.3-0.2,0.5,0.1,0.9,0c-0.3-0.6-1.7-1-0.8-1.7   c-0.3-0.1-0.5-0.1-0.8-0.1c-0.5,0-1.3-0.8-1.3-1.3c0-0.3-0.1-0.3-0.3-0.2c-0.7,0.2-0.9-0.8-1.6-0.9c-1-0.6,2.5-1.9,3.1-2   c1.1-0.3,1.7,1.3,2,0.6c0.1-0.2,0.3-0.2,0.5-0.1c0.8,0.2,1,0.4,1.1,1.2c0,0.1,0,0.3,0.2,0.3c0.4-0.1,0.6-0.9,1-0.2   c0.5,0.8,1.3,1.3,1.4,2.3c0,0.3,0.2,0.3,0.4,0.2c1.2-0.8,0.2,3.2,0.3,3.5c0.5-0.7,0.2-2.3,0.9-3c2.1-1.3,4.8-3.6,7.3-2   c0.2,0.2,0.3,0.2,0.6,0.1c1.3-0.4,2.7-0.6,4-0.1c1.3,0.4,2.9,0.5,3.8,1.6c0.2,0.3,0.5,0.4,0.8,0.4c0.4,0,0.3,0.3,0.4,0.5   c0.1,0.2-0.1,0.3-0.3,0.4c-0.5,0.3-0.9,0.3-1.4,0.2c-1.4,0.7-3.1,0.4-4.6,0.5c-1,0.1-1.9-0.6-2.9-0.5c0.8,1.4-2.1,1.6-2.6,2.7   c-0.5,0.5-0.9,1.2-1.6,1.3c-0.5,0.1-0.7,0.5-1.1,0.8c0,0.8,3.1-1.1,3.9-0.8c1.3-0.1,2.5-0.7,3.7-0.3c1.3,0.1,2.5-0.3,3.8,0   c0.9,0,0.1,1-0.4,1.1c-0.2,0.1-0.5,0.1-0.4,0.4c0.5,0.3,1.8,0.1,2.4-0.2c2.3,0.1,3.6,2.8,5.2,4.1c0.3,0.2,0.3,0.6,0.5,0.8   c0.3,0.3,1,0.7,0.6,1.2c-0.2,0.4,0.6,0.6,0.7,1c0.6,0.6,0.8,1.4,0.9,2.3c0.1,0.8,0.3,0.7-0.5,1.2c0,0,0,0,0,0   c-0.6,0.1-1.2,0.3-1.7-0.1c0,0,0,0,0,0c-0.1-0.2-0.3-0.4-0.4-0.6c0-0.3-0.4-0.2-0.3,0.1c0.1,1.7-4-1.4-4.7-1.8   c-0.6-0.8-2-0.6-2.1-1.8c0-0.4-0.6-1.4-1-0.7c-0.2,0.5-0.3,0.6-0.8,0.3c-1.5-0.7-3.1-1.3-4.8-1.1c0.7,0.9,5.4,3.2,4.1,4.4   c-0.3,0.2-0.3,0.3,0,0.5c0.5,0.5,1.6,0.2,1.9,0.9c0.2,0.9,0.5,1.9,0.6,2.8c0.2,0.8-0.9,0.8-0.5,1.3c0.3,0.2,0.5,0.5,0.9,0.6   c0.2,0.1,0.3,0.2,0.3,0.4c-0.1,0.7,0,1.4-0.5,2c-0.2,0.2,0,0.7,0,1c0.2,1.5-1.6,1.8-2,3c-0.8,0.2-1.4-0.5-1.9-1   c-0.5-0.2-0.3-0.9-0.5-1.3c-0.1-0.2-0.1-0.3-0.3-0.2c-1-0.1-0.7-1.7-0.4-2.4c-0.7,0.1-0.7,0.3-1-0.7c0,0.4-0.1,2.2-0.8,1.3   c-0.4-0.4-1-0.5-1.4-0.8c-0.3,4.8,0.1,9.8,0,14.7c0.1,0.9,4.2,1.1,5.3,1.7c3.8,1,7.8,2.7,10.6,5.4c0.3,0.2,0.6,0.6,1,0.7   c0.1,0,0.1,0.1,0.1,0.2c0,0,0,0,0,0c2.4,2,3.8,5.2,4.3,8.2C258.7,70.5,256,74.8,252.5,77.5C252.5,77.5,252.5,77.5,252.5,77.5z    M254.8,67.1c-0.8,0.3-3-0.8-3,0.4c-0.3,2.3-0.9,4.8-2.5,6.5c0,0,0,0,0,0c0,0.1,0,0.3,0.1,0.4c0,0,0,0,0,0c1.6-0.4,3.5,0.1,5.2-0.2   c1.8-1.4,2.5-4,2.8-6.2C257.7,66.4,255.7,67.2,254.8,67.1z M252.4,74.6C252.4,74.6,252.4,74.6,252.4,74.6   C252.4,74.6,252.4,74.6,252.4,74.6C252.4,74.6,252.4,74.6,252.4,74.6z M248.7,73.9c2.4-3.7,2.3-5.3,2.4-6c0-0.3,0-0.7,0.1-0.9   c-2-0.5-4.3,0-6.3-0.2c-0.6,0-0.6,0-0.6,0.6c0.5,7-5.6,7.4,4.5,6.9C248.5,74.1,248.7,74,248.7,73.9z M236.3,72.1L236.3,72.1   c-0.6,0.7-1.3,1.3-1.8,2c-0.4,0.6,0.8,0.3,1.1,0.3c0.3,0,0.4-0.2,0.4-0.5C235.9,73.3,236.6,72.7,236.3,72.1z M233.9,80.4   c-0.2,0.3-0.1,0.5,0.3,0.5c0.9,0,2.2,0.1,2.6-0.4c1.1-0.9,2.1-1.9,3-3c0.2-0.4,2.2-2.4,1.3-2.5c-1.2,0.2-4-0.4-4.8,0.3   C235.6,77,234.9,78.8,233.9,80.4z M237.8,59.1L237.8,59.1c-0.3,0.1-1.1-0.2-1,0.3c0.3,1.1,0.8,2.2,1.5,3.2c0.6,0.8,1.8-0.2,2.6,0.1   c2.4,1.1-2.2,3.5-1.2,3.7c1.2,0,2.4,0,3.6,0c0.7-0.2,0.1-1.7,0.1-2.4C241.8,59.4,242.9,58.8,237.8,59.1z M247.7,58.3   c-2.6-2.6-5.7-5.9-9.6-5.5c-0.9-0.3,2.1,2.7,2.2,3.1c1.4,1.8,1,2.9,3.7,2.8C244.4,58.6,248.3,59.1,247.7,58.3z M243.5,59.1   c-0.2,0-1.5-0.2-1.2,0.2c3.6,6.6-0.8,7.3,5.6,7.1c0,0,0,0,0,0c0.9,0,1.8,0,2.7,0c1.8,0.1-1.3-6.1-2-6.8   C247.2,58.6,245.1,59.6,243.5,59.1z M243.1,66.8c-3,0.3-3.9-1-5.6,2v0c-0.2,1.7-0.5,3.4-0.9,5c-0.1,0.5-0.1,0.5,0.4,0.5   c1.2-0.2,4.5,0.4,5.1-0.4C242.7,72.8,244.7,67.5,243.1,66.8z M236.4,61.2c-0.5,0.1-0.5,4.2,0.5,3.2c0.2-0.1,0.3-0.5,0.5-0.1   c0.6,0.4,0.4,1.2,0.3,1.8c0.4,0.4,3.8-2.9,2.3-2.5C237.7,64.5,237.7,62.3,236.4,61.2z M237.3,80.7c4,1,8.3-2.7,10.6-5.7   c-1.6-0.3-3.5,0-5.2-0.1c-0.2,0-0.4,0-0.4,0.2c-1,1.4-2.1,2.7-3.3,3.9C238.5,79.6,237.9,80.1,237.3,80.7z M251.7,66.3   c1.8,0.1,3.6,0.2,5.4,0c1-1.5-1.6-5.7-2.8-7c0,0,0,0,0,0c0,0,0,0,0,0C245.4,58.9,251.1,59,251.7,66.3z M241.9,52.8   c0.1,0.5,0.5,0.5,0.7,0.6c1.2,0.6,2.2,1.5,3.3,2.4c2.8,2.6,2.4,3.2,6.5,2.9c4.3,0.5-7-6-8-5.8C243.6,52.6,242.8,52.8,241.9,52.8z    M238.4,51.2c0.1,0.1,0.3,0.1,0.4,0.3c1.1,0.4,2.1,1,3.4,0.6C241.3,51.6,238.9,51,238.4,51.2z M236.7,52c0.3,0,1.8,0.3,1.6-0.2   c-0.1-0.2-0.3-0.3-0.5-0.2c-0.4,0-0.9-0.4-1.2-0.1C236.4,51.7,236.7,51.8,236.7,52z M236.5,58c-0.1,0.5,0.4,0.5,0.8,0.5   c0.1,0.1,0.1,0.1,0.2,0c1.2-0.1,2.5,0.1,3.6-0.1c-0.7-2-2.5-3.8-4.1-5.4C236.2,52.1,236.8,57.4,236.5,58z M238.7,31   c-0.5,0.3-0.6,0.3-0.8-0.2c-0.1-0.2-0.2-0.5-0.4-0.6c-0.1-0.3-0.2-0.6-0.6-0.7c0,0,0,0,0,0c0,0,0,0,0,0c-0.1-0.2-0.2-0.4-0.3-0.6   c0-0.1-0.1-0.1-0.2-0.1c-0.2,0.1-0.4,0.2-0.5,0.3c-0.1,0.2,0,0.4,0.2,0.5c0.7,0.7,1.5,1.3,1.9,2.2c0,0.1,0.1,0.1,0.1,0.1   c0.1,0.1,0.2,0.1,0.2,0C238.5,31.6,238.6,31.4,238.7,31z M240.8,35.6c0-0.3,0.1-0.5,0.5-0.5c0,0,0,0,0,0c0-0.1-0.1-0.3,0.1-0.4   c0.4-0.1,0.3-0.4,0.4-0.6c-0.1,0-0.2,0.1-0.3,0.1c-0.1,0-0.2-0.1-0.2-0.2c0-0.1,0-0.2,0.1-0.2c0.1,0,0.3,0,0.3-0.3   c-0.1-0.2-0.3-0.2-0.4-0.2c-0.1-0.1,0.1-0.4-0.1-0.4c-0.2,0-0.3-0.1-0.3-0.3c0-0.3,0.3-0.1,0.4-0.2c-0.1-0.2,0-0.4-0.4-0.4   c-0.2,0-0.2-0.3-0.1-0.4c0.1-0.1,0.3-0.1,0.2-0.3c-0.2-0.2-0.3-0.5-0.6-0.6c-0.3-0.1-0.3-0.3-0.1-0.4c0.2-0.2,0.2-0.3,0-0.4   c-0.1-0.1-0.2-0.2-0.2-0.3c0-0.1,0-0.2-0.1-0.1c-0.1,0-0.3,0-0.3-0.2c0-0.2,0-0.2,0.2-0.3c0.1,0,0.1-0.1,0.1-0.2   c0,0-0.1-0.1-0.1-0.1c-0.1,0-0.1,0.1-0.1,0.2c-0.1,0.1-0.1,0.2-0.3,0.2c-0.1,0-0.2-0.1-0.2-0.2c0-0.2,0.1-0.2,0.2-0.3   c0.1,0,0.2-0.1,0.2-0.2c0-0.2-0.1-0.1-0.2-0.2c-0.2,0-0.2-0.2-0.2-0.3c0-0.1,0-0.2-0.1-0.2c-0.2,0-0.3,0-0.4-0.2   c-0.1-0.2,0.1-0.2,0.3-0.3c0.1,0,0.1-0.1,0.1-0.2c0-0.1-0.1-0.2-0.2-0.2c-0.1,0-0.1,0.1-0.1,0.2c0,0.1-0.1,0.2-0.3,0.2   c-0.1,0-0.2,0-0.2-0.2c0-0.1,0-0.2,0.2-0.3c0.1,0,0.2,0,0.1-0.1c-0.1-0.1-0.1-0.1-0.2,0c-0.1,0.1-0.2,0.3-0.4,0.1   c-0.2-0.2,0-0.3,0.2-0.4c0.2-0.1,0-0.2-0.1-0.3c-0.1-0.1-0.1-0.1-0.2,0c-0.1,0.3-0.4,0.5-0.5,0.8c-0.1,0.1-0.2,0.3,0,0.5   c0.2,0.2,0.2,0.3-0.1,0.4c-0.1,0-0.2,0-0.2,0.1c0.1,0.3,0.5,0.4,0.5,0.7c0.1,0,0.3,0,0.4,0c0-0.2-0.1-0.3,0.1-0.4   c0.1-0.1,0.3,0,0.3,0.1c0.1,0.4-0.1,0.4-0.4,0.4c0,0.2,0,0.4,0.3,0.4c0.2,0,0.2,0.2,0.1,0.3c-0.1,0.1-0.3,0.3-0.1,0.5   c0.2,0.2,0.4,0.3,0.6,0.1c0,0,0,0,0,0c0,0,0,0,0,0l0,0c0,0,0,0,0,0l0,0c0.4-0.2,0.6,0.3,0.8,0.5c0.2,0.2-0.2,0.7,0.2,1   c0,0,0,0.1,0,0.2c-0.2,0.1-0.3,0.4-0.5,0.6c-0.2,0.2-0.6,0.4,0.1,0.5c0,0,0.1,0.1,0.1,0.2c0,0.2,0.1,0.2,0.3,0.2   c0.1,0,0.2,0.1,0.2,0.3c0,0.2-0.2,0.2-0.3,0.2c-0.2-0.1-0.2,0-0.2,0.2c0,0.1,0,0.3,0.2,0.3c0.1,0,0.3,0,0.4-0.2   c0.1-0.3,0.6-0.3,0.6-0.7c0,0,0,0,0,0c0.1,0,0.2,0,0.3,0c0.1,0.1,0.1,0.2,0,0.3c-0.1,0.1-0.3,0.2-0.1,0.3c0.2,0.1,0.1-0.1,0.2-0.2   c0.1-0.1,0.3-0.1,0.4-0.1c0,0.2,0.1,0.4-0.1,0.4c-0.3,0.1-0.2,0.3-0.2,0.5h0c0.2,0,0.4-0.1,0.4,0.2c0,0.3-0.3,0.2-0.5,0.2   c0,0.2,0,0.4-0.1,0.6C240.4,35.4,240.5,35.6,240.8,35.6z M241.3,35.7c0-0.1,0.1-0.2,0.2-0.2c0.2,0,0.3,0,0.3,0.2   c0,0.1,0.1,0.2,0.2,0.1c0.1-0.1,0.1-0.2,0-0.3c-0.3-0.1-0.2-0.3-0.1-0.6c-0.2,0.1-0.4,0.1-0.6,0.1c0,0,0,0,0,0   c0.2,0.5-0.1,0.5-0.5,0.5c0,0.1,0.1,0.1,0.1,0.2c0,0.1,0,0.3,0.2,0.3C241.4,36,241.3,35.9,241.3,35.7z M242.2,37.3   c-0.7-0.1-0.4-0.4-0.1-0.6c0,0,0-0.1,0-0.2c0,0-0.1,0-0.2,0c-0.1,0.4-0.6,0.4-0.6,0.9c0.1,0,0.2,0,0.3,0c0.1,0,0.2,0.1,0.2,0.2   c0,0.1-0.1,0.1-0.1,0.2c-0.4,0.1-0.3,0.4-0.4,0.6c0.5-0.1,0.5-0.6,0.9-0.8C242.3,37.5,242.3,37.4,242.2,37.3z M244.2,36.9   c-0.2,0.4-0.4,0.4-0.7,0.3v0c0.1,0.1,0.2,0.3,0,0.4c0,0.1-0.1,0.1-0.2,0.1c-0.2-0.1-0.2-0.2-0.2-0.4c-0.1,0.1-0.1,0.2-0.1,0.3   c0.1,0.2,0.2,0.3,0,0.6c-0.2,0.2-0.3,0.3-0.5,0.5c-0.1,0-0.3-0.1-0.2,0.1c0,0.1,0,0.2,0.1,0.2c0.1,0,0.3,0,0.3-0.1   c0-0.3,0.4-0.4,0.6-0.7c0.1-0.2,0.2-0.4,0.5-0.6C244.1,37.5,244.1,37.2,244.2,36.9z M243.9,34.1c0,0.2,0.1,0.4-0.2,0.4   c-0.2,0-0.3-0.2-0.3-0.4C243.6,34.1,243.7,34,243.9,34.1c0-0.2-0.1-0.3-0.1-0.4h0c-0.2,0.1-0.2,0.3-0.4,0.4c-0.2,0-0.4,0.1-0.4-0.2   c-0.1-0.2,0.1-0.2,0.3-0.3c0.3-0.1,0.1-0.3,0.1-0.4c0,0,0,0,0,0c-0.1,0-0.3,0-0.4,0c0,0.3,0,0.6-0.5,0.5c0,0.2-0.1,0.5,0.3,0.5   c0.1,0,0.1,0.1,0.1,0.2c0,0.1,0,0.2-0.2,0.2c-0.2,0-0.2,0.1-0.2,0.2c0,0.2,0.1,0.2,0.2,0.2c0.2,0,0.3,0.2,0.1,0.4   c-0.1,0.1-0.1,0.2,0,0.3c0.2-0.2,0.4-0.4,0.6,0c0.1,0.2,0.4,0.2,0.6,0.5c0,0.1,0.2,0,0.3-0.1c0.1-0.1,0.1-0.3,0.1-0.4   c-0.1,0.1-0.2,0.3-0.4,0.1c-0.1-0.1-0.2-0.2-0.1-0.3c0.1-0.3,0.3,0,0.5,0c-0.2-0.3-0.3-0.5,0.1-0.6c0.2,0,0.1-0.2,0-0.3   C244.4,34.4,244.3,34.1,243.9,34.1z M243,33.2L243,33.2C243,33.2,243,33.2,243,33.2C243,33.2,243,33.2,243,33.2z M243.9,34.1   L243.9,34.1C243.9,34.1,243.9,34.1,243.9,34.1C243.9,34.1,243.9,34.1,243.9,34.1z M238,24.3c0-0.1,0-0.1-0.2-0.1   c-0.1,0-0.2,0.1-0.2,0.2c0,0.1,0,0.2,0.1,0.1c0.2,0,0.3,0.1,0.3,0.3c0,0.2-0.2,0.2-0.4,0.3c0.3,0.3,0.3,0.3,0.4,0.1   c0.1-0.2,0.2-0.2,0.4-0.1c0.2,0.1,0.1,0.3-0.1,0.4c-0.1,0-0.1,0.1-0.1,0.2c0.1,0.1,0.1,0.1,0.2,0c0.1-0.2,0.3-0.2,0.4-0.1   c0.2,0.2-0.1,0.3-0.1,0.4c0.2,0.1,0.2-0.1,0.4-0.1c0.1,0,0.2,0,0.2,0.1c0.1,0.1,0.1,0.2,0,0.2c0,0.1-0.3,0.1-0.1,0.2   c0.1,0.1,0.2-0.1,0.3-0.1c0.1-0.1,0.2,0,0.3,0.1c0.1,0.1,0,0.1,0,0.2c-0.2,0.1-0.4,0.3-0.2,0.5c0.2,0.2,0.2,0.5,0.4,0.5   c0.4,0.1,0.3,0.3,0.3,0.6c0.2,0,0.4-0.3,0.5,0c0.2,0.2-0.1,0.3-0.2,0.4c-0.1,0.1-0.2,0.3,0,0.3c0.3,0.1,0.3,0.5,0.6,0.6   c0.2,0.1,0.1,0.2,0,0.3c-0.2,0.1-0.3,0.3-0.1,0.4c0.3,0.1,0.2,0.7,0.7,0.6c0.1,0,0.1,0.3,0,0.4c-0.1,0.1-0.3,0.1-0.1,0.2   c0.1,0.1,0.2,0,0.3-0.1c0.1-0.1,0.4-0.3,0.3,0c0,0.4,0,0.7,0.1,1.1c0,0-0.1,0.1-0.1,0.2c-0.1,0-0.1,0.1-0.1,0.2   c0.4,0.3,0.2,0.7,0.3,1.1c0,0,0,0,0.1,0c0-0.3,0.1-0.5,0.5-0.4c-0.1-0.1-0.1-0.3,0-0.5c-0.2,0-0.4,0.1-0.5-0.1   c-0.1-0.2,0.2-0.2,0.3-0.3c0.2-0.2,0.2-0.5,0.6-0.4c0,0,0-0.1,0-0.1c0-0.1-0.1-0.3,0.1-0.3c0.2-0.1,0.3,0,0.3,0.2   c0,0.1,0.1,0.1,0.3,0.1c0.1,0,0.1-0.1,0.1-0.1c-0.4-0.3-0.3-0.6-0.2-1c0,0,0-0.1,0-0.1c-0.2-0.2-0.2-0.4-0.1-0.7   c-0.2,0-0.3,0.3-0.5,0.1c-0.1-0.1-0.1-0.2,0-0.3c0.4-0.3,0.1-0.4-0.2-0.5c-0.1-0.2-0.2-0.3-0.4-0.1c-0.2,0.2-0.4,0.1-0.5-0.1   c0-0.1,0-0.1-0.1-0.1c-0.5-0.2-0.7-0.6-1.1-0.8c-0.1-0.1-0.2-0.2-0.2-0.3c0.1-0.3,0.6-0.6,0.9-0.6c0-0.2-0.1-0.3-0.3-0.4   c-0.5-0.3-0.9-0.7-1.3-1.2c-0.2-0.2-0.4-0.3-0.6-0.5c-0.3,0.5-0.5,0.3-0.8,0C238.5,24.7,238.2,24.6,238,24.3z M239.3,21.7   c-0.3,0.1-0.5,0.3-0.5,0.6C239.5,22.5,239.3,22,239.3,21.7z M241.1,22.2c-0.2-0.2,0-0.5-0.4-0.5c-0.4-0.2,0.6-0.7-0.2-0.9   c0.1,0.2,0.1,0.6-0.2,0.4c-0.3-0.1,0-0.4-0.1-0.6c-0.5,0.4-0.7-0.1-1-0.2c-0.3-0.5-0.8,0.4-1-0.2c-0.4-0.4-0.2,0.6-0.8,0.2   c0-0.2,0-0.4-0.2-0.4c-0.1,0-0.1,0-0.2,0.1c-0.2,0.7-0.4,0-0.7,0c-0.4,0.3,0.3,0.3,0.3,0.6c0,0.2-0.2,0-0.3,0.1   c0.2,0.3,0.5,0.6,0.8,0.8c0,0.2,0.3,0.8,0.5,0.5c0.2-0.4,0.2-0.4,0.5-0.1c0.1,0.1,0.3,0.2,0.4,0.1c0.1-0.1,0-0.2-0.1-0.3   c-0.3-0.1-0.4-0.5-0.7-0.6c-0.3-0.2,0.4-0.9,0.6-0.8c0.3,0.1,0.7,0.4,0.7,0.6c0,0.3,0.2,0.2,0.3,0.2c0.2,0,0.4,0,0.4,0.2   c0.1,0.3,0.3,0.3,0.5,0.4c-0.2,0.1-0.3,0.2-0.4,0.4c0.6-0.6,0.7,0.3,1.2,0.2c-0.1-0.2,0-0.3,0-0.5c-0.7,0.4-0.9-0.5-0.1-0.3   C240.8,21.9,240.8,22.2,241.1,22.2z M242,23c-0.1-0.4-0.7-0.4-0.5-0.9C241.3,22.5,241.4,22.8,242,23z M251.5,26.4   c-0.3-0.8-0.5,0.6-0.9-0.1c-0.1-0.1-0.2-0.1-0.2,0c-0.1,0.3,0.5,0.2,0.3,0.5c-0.1,0.2-0.3,0.2-0.5,0.2c0,0,0,0.1,0,0.1   c0,0.2,0,0.4-0.3,0.3c-0.3-0.1-0.1-0.3-0.1-0.4c-0.3,0.1-0.8-0.2-0.4-0.4c0.3-0.1,0.3-0.5,0.6-0.6c0.2,0,0.1-0.5,0.4-0.5   c-0.1-0.2-1.1-1.5-1.2-0.9c-0.1,0.3-0.8,0.1-0.4-0.2c0,0,0.1-0.1,0-0.2c-0.1,0.1-0.2,0.2-0.4,0c-0.2-0.2,0-0.3,0-0.5   c-0.5,0.2-0.6,0.1-0.5-0.4c-0.5,0.3-0.6,0-0.4-0.4c-0.5,0.3-0.6,0.1-0.5-0.4c-0.1,0-0.3,0.2-0.4,0.1c-0.4-0.4-1-1.1-1.6-0.8   c-0.4,0.2-0.6-0.8-1.4-0.4c-0.3,0.2-0.5-0.6-0.7-0.2c-0.1,0.3-0.5,0.6-0.1,0.9c0.1,0.1,0.1,0.3,0.4,0.3c0.2,0,0.2,0.4-0.1,0.4   c-0.1,0.1-0.2-0.1-0.3,0c0,0.3,0.3,0.7,0.5,0.3c0.1-0.3,1.2-1.8,1.3-1c-0.1,0.4,0.4,0,0.4,0.4c0.1,0.3-0.5,0.2-0.4,0.6   c0,0.1,0,0.3,0.3,0.3c0.4,0-0.3,0.3,0.2,0.5c0,0.5,0.4,0.8,0.6,1.4c0.2-0.8,0.7,0.4,1-0.2c0.1-0.2,0.5,0,0.3,0.2   c0,0.1-0.2,0.1-0.1,0.2c0.2,0.1,0.4-0.3,0.5-0.1c0.2,0.2-0.2,0.4-0.1,0.6c0.2-0.1,0.3-0.4,0.6-0.4c0.1,0.2-0.2,1,0.3,0.5   c0.1-0.1,0.2,0,0.2,0.1c-0.1,0.2,0.1,0.3,0.2,0.3c0.8,0.4,1.6,0.9,2.3,1.5c0.2-0.1,0-0.3,0.1-0.4c0.2-0.2,0.3-0.4-0.1-0.5   c-0.3-0.2,0.2-0.6,0.4-0.2c0,0.1-0.1,0.2,0.1,0.2c0.1,0,0.2-0.3,0-0.3C251,26.8,251.2,26.4,251.5,26.4L251.5,26.4z M234.5,16.3   c-0.1,0.1-0.1,0.3-0.3,0.3c-0.1,0-0.2,0-0.2,0.1c0.1,0.5,0.8-0.1,0.9-0.4C235,16.1,234.6,16.1,234.5,16.3z M245.4,13.1   c0.2-0.1,0.6,0,0.6-0.5c0.1-0.2,0.4,0,0.5,0.2c0.2,0.2,0.4-0.1,0.1-0.2c-0.3-0.3-0.7-0.3-1.1-0.3C245,12.2,245.7,12.8,245.4,13.1z    M243.7,12.2c-0.3,0.1-0.6-0.1-0.9,0c0.4-0.1,0.3,0.4,0.6,0.5c0.4,0.1,0.3,0.3,0.2,0.6C244.7,12.8,243.3,12.6,243.7,12.2z    M238.6,11.6c1.7-0.3,3.4-0.1,5.1-0.2c-0.7-0.4-1.4-0.5-2.1-0.8c-0.4-0.2-0.7,0.1-1.1,0.2C239.9,11,239.2,11.1,238.6,11.6z    M238.5,12.5c0.3,0.1,0.5,0.3,0.8,0c0.4,0,0.7,0.8,1.3,0.4c0.6-0.3,0,0.6,0.7,0.3c0.2,0.1,0.1-0.1,0.1-0.2c0-0.1,0-0.2,0.1-0.4   c-0.2,0.1-0.4,0.2-0.5,0c-0.1-0.2,0.1-0.3,0.3-0.3c0.2,0,0.1-0.4-0.1-0.4c-0.1,0-0.2,0-0.2,0.1c-0.3,1-0.6-0.4-0.9,0.1   c-0.3,1-0.6-0.5-0.9,0c-0.3,0.8-0.5-0.1-0.9,0.1C238.1,12.4,238.4,12.6,238.5,12.5z M236,13.4c0.3,0.3-0.1,0.7-0.3,0.4   c-0.2-0.7-3.3,2.8-3,3.1c0.5,0.1,0.4-0.4,0.7-0.6c0.4-0.4,0.8-0.7,1.1-1.2c0.1-0.3,0.6,0,0.4,0.2c0,0.1-0.2,0.1-0.1,0.3   c0.1-0.4,0.5-0.1,0.5-0.4c0-0.2,0-0.3,0.2-0.4c0.3-0.1,0.3,0.6,0.6,0.4c0.2,0,0-0.1,0-0.2c0.1-0.6,0.7,0.3,0.9-0.3   c0.3-0.3,0.7-0.4,0.9-0.9c0.1,0,0.2,0,0.4-0.1C236.4,11.8,237,13.6,236,13.4z M234,13.5c0,0.1,0,0.3,0.1,0.3c0.2,0.1,0.3,0,0.4-0.1   c0.9-1.1,2.4-1.5,3.6-2.1c-0.4-0.2-1.1,0.3-1.3-0.1c-0.1-0.4,0.3-0.4,0.6-0.5c0-0.1,0-0.3-0.1-0.4c-1.1,0-2.3,0.2-3.3,0.8   C233.5,11.8,234.2,12.8,234,13.5z M222.2,9c0.7-0.1,1.4,0.1,2.1,0.5c0.9,1,2.1,1.7,3,2.7c0.8,0.9,1.7,1.8,2.1,3   c0.7,1.1,0.7-1.9,0.5-2.2c-0.6-0.2-0.7-0.3-0.7-1.2c-0.5-0.4-0.7-1.3-1.3-1.6c-0.3,0.3-0.5,0.9-0.9,0.4c-0.5-0.4-0.2-1.5-0.9-1.7   c-0.9,1.6-1.7-0.8-2.7-0.6c-0.5,0.1-1.3,0.2-1.5,0.7C221.9,9.1,222.1,9,222.2,9z M221.9,9.6c0.2,0.2,0.5,0.1,0.7,0.1   C223.3,9.9,222.9,9.1,221.9,9.6z M225.3,11.3c-0.4-0.5-1.1-1.3-1.7-1.3c-0.1,0.5-1,1-0.2,1.3C223.9,11.2,225.6,12,225.3,11.3z    M225.9,13.6c0.3,0.8,1.9,1.2,2.8,1.3c-0.9-0.8-2.1-3.6-3.3-2.7C224.5,12.6,225.9,13.1,225.9,13.6z M214.8,20.6   c-0.3-0.2-0.5-0.4-0.7-0.6c-0.3-0.3,0.3-0.5,0.2-0.8c-0.1,0.4-0.6,0.4-0.7,0.8c0,0.1-0.2,0.2-0.4,0.1c-0.1-0.1-0.2-0.1-0.4,0   c0.5,0.1,0.4,0.6,0,0.4c-0.3-0.2-0.3-0.2-0.5,0.2c0.2-0.1,0.4,0,0.5,0.1c0.4,0.4,0.2-0.5,1.1-0.1c-0.1-0.1-0.1-0.1-0.2-0.2   c-0.1-0.1-0.2-0.1-0.1-0.3c0.1-0.1,0.2-0.2,0.3-0.1c0.1,0.1,0.2,0.2,0.1,0.3c0,0.1,0,0.1,0,0.2c0,0,0,0,0,0   C214.3,20.3,214.5,20.7,214.8,20.6z M215.1,20.2c0-0.2-0.3-0.3-0.2-0.6C214.3,20.1,214.9,20,215.1,20.2z M222.3,23   c0.2,0.3,0.2,0.7,0.5,0.9c0.4-0.1,0.6-0.8,1-1.1c0.3-0.3,0.1-0.5-0.1-0.8c-0.4-0.4-0.9,0.3-1.2,0.6C222.4,22.6,222.2,22.8,222.3,23   z M205.9,37.3c0,0.2,0,0.3,0,0.5c0,0.2-0.2,0.4-0.1,0.5c0.3,0.1,0.1-0.3,0.3-0.3C206.6,37.7,206.3,37.4,205.9,37.3z M206.4,35.9   c0-0.1,0-0.2-0.1-0.2c-0.5,0.2,0.4,0.7,0,0.9c-0.3,0.1-0.3,0.4-0.4,0.6c0.1,0,0.1,0,0.2,0C206.6,36.9,206.6,36.5,206.4,35.9z    M219.8,27.4c-0.3,0-0.4,0-0.5-0.3c0-0.2-0.4-0.2-0.4,0c0.1,0.5-0.3,0.3-0.5,0.3c0.1-0.4-0.3-0.3-0.5-0.4c0.3,0.6-0.9,0.7-0.2-0.1   c-1.4,0.8,0.2,0.4-0.2,1c-0.4,0.4-0.5-0.3-0.8-0.4c-0.2,0-0.1-0.2,0-0.4c0.1-0.1,0.3,0,0.3-0.2c-0.3-0.2-0.7,0.4-0.4,0.6   c0.2,0.2,0.2,0.5-0.1,0.4c-0.5-0.1,0,0.4-0.4,0.5c-0.3,0-0.2-0.5-0.5-0.4c-0.5-0.2,0.2-0.5,0-0.8c-0.4-0.5-0.8,0.2-1.2-0.1   c-0.1-0.1-0.3-0.1-0.4,0.1c-0.2,0-0.4,0-0.7-0.1c0.2,0.3,0.4,0.6-0.2,0.6c-0.1,0,0,0.1,0,0.2c-0.1,0.3-0.3,0.7,0.1,1   c-0.3,0.2-0.3,0.7-0.8,0.7c0,0,0,0,0,0c0,0,0,0,0,0c-0.1-0.1-0.1-0.1-0.2-0.2c-0.1,0-0.2,0.1-0.2,0.2l0,0c0.7,0.2-0.2,0.9-0.2,0.1   c-0.2,0.1-0.4,0-0.5,0.3c-0.3,0.3-0.6-0.3-0.2-0.4c0.8-0.3-0.9-0.5,0-1c0.1-0.1,0.1-0.1,0-0.2c-0.4-0.4-0.2,0.5-0.7,0.3   c-0.4-0.1,0.4,0.8-0.7,0.4c0.6,0.5-0.4,0.8-0.6,1.2c-0.3,0.7-2.4,2-1.8,2.8c0.2,0.1,0,0.4-0.2,0.3c-0.1,0-0.1-0.2-0.3-0.1   c0.2,0.4-0.3,0.8-0.5,1.2c-0.2,0.3,0.6,0.7,0.9,0.9c-0.4-0.7,0.1-0.5,0.4-0.5c-0.3-0.5,0.1-0.5,0.4-0.5c-0.3-0.3,0-0.8,0.3-0.4   c0,0.1,0.1,0.1,0.1,0c0.1-0.2-0.3-0.3-0.4-0.4c-0.2-0.1-0.1,0.1-0.2,0.2c-0.1,0.2-0.4,0-0.4-0.2c0-0.3,0.4,0,0.4-0.3   c-0.1-0.4,0.5-0.5,0.5-0.1c0,0.2,0.2,0.1,0.3,0.1c0.3,0,0-0.2,0-0.2c0.1-0.4,0.5,0.2,0.5-0.7c0,0,0,0,0,0c0.4-0.2,0.6-0.7,0.4-1   c0,0,0,0,0,0c0,0,0,0,0,0c-0.1-0.1-0.2-0.3,0-0.4c0,0,0,0,0,0c0.4,0,0.3-0.7,0-0.4c0,0,0,0,0,0c-0.7-0.5,0.5-0.5,0.2-0.9   c0.3-0.4,0.6,0.3,0.9,0.3c0,0,0,0,0,0c0.8,1.1,0.7,0.3,1.5-0.1c0.4,0,0.4-0.2,0.4-0.5c0.1-0.1,0.3,0.1,0.5,0c0-0.2-0.2-0.3,0-0.4   c0.3-0.2,0.4,0.4,0.7,0.1c0.3-0.3,0.8-0.6,1-1c0-0.1,0.2-0.2,0.2-0.1c0.1,0.4,0.5,0.3,0.7,0.6c0.1,0.1,0.3,0.3,0.4-0.1   c0.2-0.5,0.6,0.3,0.9-0.1c0.2-0.2,0.5-0.2,0.5-0.5c0.2-0.4,0.6,0.4,0.9-0.1c0.2-0.3,0.4,0.2,0.6,0c0.1-0.1,0-0.1-0.1-0.2   c-0.3-0.2,0.1-0.6,0.3-0.3C219.6,28,219.6,27.4,219.8,27.4z M218.8,41.7c0.2-0.3,0-0.7-0.3-0.6c0-0.9-1.1,0-0.8-1.1   c0.5-1.1,0.1-2.3,0.5-3.4c0-0.1,0.1-0.2,0-0.3c-0.6,0.6-1.1,1.2-1.9,1.5c-0.1,0-0.2,0-0.2,0.1c0.1,0.3,0.4,0,0.6,0   c1.1-0.1,0.1,2.8,0.6,3.6c0.2-0.1,0.3-0.1,0.5,0c0,0.5,0.5-0.1,0.7,0.3c0.1,0.1,0.1,0.2,0.3,0.2C218.8,42.1,218.8,41.9,218.8,41.7z    M221.7,36.5c-0.2,0.1-0.4,0.1-0.6,0.1c0.2,0.1,0.1,0.4,0.3,0.4C221.7,37,221.6,36.7,221.7,36.5z M224.8,25.5c-0.6,0.7-1.5,1-2,1.8   c-0.1,0.3-0.3,0.4-0.6,0.4c-1.6,0.4-2.8,2-4,3.2c0.7,0.1,1-0.4,1.7-0.4c0.4,0,0.5,0.4,0.1,0.5c-0.6,0.2-1.4,0.8-2,0.6   c-0.5-0.3-0.7,0-0.8,0.3c0,0.4-1.1,1.6-0.4,1.6c0.1,0,0.2,0.2,0.1,0.3c-0.2,1.2-0.9,2.2-0.9,3.4c0.4-0.5,1.1-0.6,1.5-1.2   c0.2-0.2,0.4-0.4,0.7-0.2c0.4-0.5,0-1.3,0.5-1.7c1-0.8,1.2-2.3,2.1-3.2c1.1-0.5,1.8-3.2,3.1-3c0,0.3-0.1,0.5-0.3,0.6   c0,0.1,0.1,0.2,0.2,0.2c0.1,0,0.2,0.1,0.2,0.3c0,0.1-0.1,0.2-0.2,0.2c-0.2,0-0.2-0.1-0.2-0.2c0-0.1,0-0.1-0.1-0.2c0,0,0,0,0,0   c-0.1,0.1-0.2,0.3-0.4,0.4c0,0,0,0,0,0c0,0,0,0,0,0c0,0-0.1,0.1-0.1,0.1c0,0,0,0,0,0c0,0,0,0,0,0c-0.1,0.2-0.5,0.3,0,0.5   c0.1,0,0.1,0.2,0,0.3c-0.3,0.3-0.3-0.4-0.6-0.1c-0.3,0.3,0.5,0.2,0.2,0.6c-0.4,0.3-0.3-0.3-0.5-0.1c-0.3,0.2,0.3,0.4,0,0.6   c-0.2,0.3-0.3-0.3-0.5,0c-0.3,0.3,0.3,0.2,0,0.6c0,0,0,0,0,0c0,0,0,0,0,0c-0.7-0.6-0.9,0.7-1.2,1.1c-0.1,0.3-0.8,0.9-0.4,1.3   c0.3,0.1,0,0.5-0.2,0.4c-0.1,0-0.2-0.1-0.3,0c0.6,0.7-0.2,0.2-0.3,0.6c0,0.3-0.2,0.5-0.2,0.8c0,0,0,0,0,0c0,0,0,0,0,0   c0,0,0,0.1,0.1,0.1c0.2-0.1,0.4-0.1,0.4,0.1c0,0.2-0.1,0.3-0.4,0.3c-0.2,0,0,0.4-0.2,0.5c0,0,0,0,0,0c0,0,0,0,0,0   c0,0.4-0.4,0.8-0.2,1.2c0.1,0.3-0.3,1.3,0.2,1.1c0.5-0.2,0.5,0.8-0.3,0.3c0.2,0.4,1.1,0.7,0.5,1c-0.2,0.1-0.2,0.2-0.1,0.3   c0,0,0,0,0,0l0,0c0,0,0,0,0,0c0.1,0.1,0.3,0.2,0.3-0.1c0.3-0.8,0.6,0.6,0.9-0.1c0.1-0.2,0.6-0.2,0.5-0.7c0,0,0,0,0.1,0   c0.4-0.1,0.2-0.3,0-0.4c-0.2-0.1-0.3-0.2-0.2-0.4c0,0,0,0,0,0c0,0,0,0,0,0c0.4-0.3-0.1-0.4-0.1-0.6c0,0,0,0,0,0   c-0.1-0.3,0.8-0.5,0.1-0.8c-0.4-0.1,0.1-0.4-0.1-0.7c-0.2,0.5-0.8,0.3-0.4-0.1c0.4-0.1,0.1-0.3,0-0.4c-0.2-0.2-0.2-0.5-0.6-0.6   c-0.2-0.1,0-0.4,0.2-0.4c0.1,0,0.3,0.2,0.2-0.1c-0.1-0.4,0.3-0.5,0.4-0.1c0,0,0,0,0,0c-0.5,0.5,0.7-0.2,0.4,0.6   c0,0.1-0.1,0.1,0,0.2c0.1,0,0.2-0.3,0.4-0.2c0.3,0.2,0,0.4,0,0.6c0.2-0.3,0.7-0.2,0.6-0.7c0.5,0,0.4-0.5,0.5-0.7   c-0.5,0.6-1-0.1-0.2-0.2c-0.4-0.7-0.4,0.4-0.8,0c-0.4-0.4,0.4-0.3,0.2-0.6c-0.3-0.1-0.2-0.9-0.5-0.6c0,0,0,0,0,0   c-0.3,0-0.4-0.5,0-0.4c0.1,0,0.2,0,0.1-0.2c-0.1-0.2,0-0.3,0.1-0.4c0,0,0,0,0,0c0.1,0,0.2,0.1,0.2,0.2c0.1,0.3,0.6,0.3,0.5,0.7   c0.5-0.1,0.4,0.2,0.2,0.7c0.3-0.2,0.4-0.3,0.6-0.4c-0.1-0.1,0-0.2-0.1-0.3c0,0,0,0,0,0c-0.1,0-0.1,0-0.2,0   c-0.1-0.1-0.2-0.2-0.2-0.4c0-0.1,0.1-0.1,0.2-0.1c0.2,0,0.2,0.2,0.2,0.4c0,0,0,0,0,0c0,0,0,0,0,0c0.2,0,0.3-0.2,0.3-0.4   c0,0,0,0,0,0c0,0,0,0,0,0c-0.2,0-0.3,0-0.3-0.3c0-0.1,0.1-0.2,0.2-0.2c0.2,0,0.2,0.2,0.2,0.4c0.5-0.2-0.2-0.5,0-0.7   c0.2-0.3,0.4,0.2,0.6,0c0.1-0.2-0.5-0.3-0.2-0.5c0.4-0.4,0.3,0.5,0.6,0.2c0.1,0,0.1-0.1,0-0.2c-0.7-0.4,0.2-0.5,0.1-0.9   c0-0.1-0.1,0-0.2,0c-0.1,0-0.2,0-0.3-0.2c-0.1-0.4,0.7-0.2,0.2-0.7c-0.1,0-0.2,0.1-0.2,0.3c-0.1,0.1-0.2,0.2-0.3,0.2   c-0.2,0-0.2-0.2-0.2-0.3c0.1-0.2,0.2-0.2,0.3-0.1c0.1-0.2,0-0.6,0.4-0.5c0,0,0,0,0,0c0.1-0.4,0.4-0.8,0-1.2c0-0.2,0.3-0.1,0.4-0.3   c0.1-0.7,0.4-1.4,0.4-2.2C225.1,25.4,224.9,25.4,224.8,25.5z M226.2,22.7c-0.3,0-0.7,0.1-1,0c-0.5-0.2-1,0.2-1,0.6   c0.2,0.2,0.8-0.1,0.8,0.5c-0.2,0.7-1.5,0.1-1.7,1.1c-0.2,0.3-0.4,1-0.8,0.8c-0.4-0.4,0.5-0.9-0.2-1.4c-0.1-0.1-0.2-0.4-0.4-0.4   c-0.2,0.1-0.1,0.3-0.1,0.5c0.5,3.3-0.9,0.7-2.6,0.5c-1.2-0.3-2.8-0.8-3.9-0.2c-0.1,0.2,0.2,0.3,0.3,0.4c0.3,0.2,0,0.7-0.3,0.5   c-2-2.3-8.4,0.8-9.4,3.3c-0.2,0.3-0.1,0.5,0.3,0.5c0.4,0,2-0.3,1.6,0.4c-0.7,1-2.1,1-3.1,1.7c-0.1,0.6-1.3,2-0.1,2.1   c1.4,0.4-1.1,1.4-1,1.9c-0.1,1.4,0.3,2.6,1.1,3.8c0.8-3.6,1.2-7.2,4.1-9.9c0.5-1-1.9,0-1.9-0.9c1.1-1,1.9,1.1,3.9-1.3   c-0.6-0.1-1.7,0-1.9-0.5c0-0.2,0.2-0.3,0.4-0.3c0.7,0.2,1.4-0.1,2,0.5c0.1,0.1,0.1,0,0.2,0c0.6-0.2,1.2-0.2,1.8-0.4   c0.4-0.1,0.8-0.7,1.4-0.3c0.9-0.1,1.9-0.4,2.9-0.2c0.7,0.2,1.5-0.2,2.2,0.2c0.4,0.6,1.9-0.1,1.4,0.9c1.4,0.2,0.6-0.7,1.5-1   c0.2-0.1,0.4-0.1,0.6-0.3C223.7,25.4,227.3,22.6,226.2,22.7z M226.2,20.5c-0.6,0-1.2,0.5-1.6,1.2c0.6-0.3,1.2-0.6,1.7-0.9   C226.6,20.7,226.4,20.5,226.2,20.5z M225.7,21.9c0.4,0.2,1.2-0.2,1.4-0.7C226.5,21.2,226.2,21.6,225.7,21.9z M231,23.5   c0.4,0.2,0.7-1.3,1.1-1.4c1-4.1,1.2,1.7,1.8,2.9c0.1,0.7,0.7,0.2,1.1,0.6c0.1,0.8-0.8,1.2,0.1,1.9c0.3,0.2,0.5,0.9,0.9,0.4   c0.4-0.7,1.5-2.4,0.8-3c-0.4,0.2-0.6-0.1-0.8-0.3c-0.7-0.6,0.3,2-0.1,2.4c-0.7,1.5-0.6-3-1.2-3.5c-0.3,0.1-0.2,0.7-0.6,0.6   c-0.4-0.1-0.2-0.5-0.2-0.8c0.2-0.5,0.6-0.9,0.1-1.3c-0.3-0.4-1-1-0.7-1.5c0.8-0.3,2,3.4,2.6,3.2c0.3,0.1,0.5,0.8,0.9,0.7   c0-1.4-0.3-2.3-1.3-3.2c-0.5,0-0.9-0.4-1.4-0.5c-0.6-0.1-0.2-0.7-0.4-1.1c0,0,0,0,0,0c0.7-0.5,0.2,0.6,0.7,0.3   c0.1-0.1,0.2,0,0.3,0.1c0.1,0.2,0.3,0.2,0.4,0.2c0-0.4-0.5-0.3-0.5-0.7c0.1-0.3,0.5-0.3,0.7-0.3c0,0,0-0.1,0-0.1   c2.6,0.9,4.7-2,5.3-1.1c0.3,0.9-1.2,0.8-1.4,1.3c0,0.1,0.1,0.2,0.2,0.2c0.5,0,0.9,0.3,1.4,0.2c1.1,0.1,2.2,0.4,3.2,0.7   c3.4,0.9,6.1,3.5,8.6,5.8c0.4-0.1,0.6,0.5,1,0.6c0.1-0.2-0.1-0.4-0.2-0.5c-0.1,0-0.2-0.1-0.2-0.2c-0.1-0.6-1-0.8-0.9-1.4   c-0.4-0.2-0.6-0.7-0.5-1.1c0-0.3-0.1-0.5-0.3-0.6c-1.4-1.2-2.6-2.8-4.2-3.8c-1.1-0.2-4,0.7-4.8-0.2c-0.2-0.8,1.2-0.7,1.3-1.3   c-1-0.1-2.1,0.4-3.1,0.1c-1.7,0.1-3.7,0.3-5.3,1.1c0,0,0.1-0.1,0.1-0.1c-0.6,0.4-1.5,0.2-1.9,0.7l0,0c0,0,0,0,0,0   c-0.5-0.1-0.8-0.4-1-0.8c0,0,0,0,0,0c0,0,0,0,0,0c-0.2,0-0.3-0.1-0.3-0.3c0.1-0.3,0.3,0,0.5-0.1c-0.5-0.5,0.4-0.5,0.4-0.9   c0-0.2,0.3,0.1,0.5,0c-0.3-0.7-0.8,0.2-1.2-0.2c-0.1,0.3,0.3,0.3,0.1,0.6c-0.1,0.1-0.2,0.1-0.2,0c-0.2-0.2-0.5,0-0.7,0   c-0.5-0.4,0.1-0.7,0.3-1c0-0.4,0.4-0.6,0.6-0.9c0.3-0.4,0.8-0.8,0.8-1.2c0-0.5,0.2-2.5-0.5-2.3c-2,0.8-1.4,3.2-2.3,4.8   c0,0.1-0.1,0.2-0.2,0.2c-0.3-0.2-0.6-0.1-0.8-0.6c0.2-0.6-4.8-2.4-5.1-2c0,0.5,0.7,0.9,1.1,1.1c0.2,0.1,0.4,0.2,0.3,0.5   c-0.8,0.5-1.8-1.2-2.5-1.6c-0.8-0.5-2.7-0.2-3.5,0.3c-0.1,0.2,0.3,0.3,0.4,0.5c0.3,0.2,0.7,0.8,0,0.8c-1.4,0.2-2.8-0.6-4.1,0   c0,0,0,0,0,0c0,0,0,0,0,0c-0.2,0-0.3,0.1-0.3,0.3c-0.1,0.8-0.9,0.8-1.5,1c-0.7-0.1-0.9-0.5-1.3,0.2c-0.6,0.6-1,1.1-1.1,2   c2.9-1.8,0.9-0.7,1.3-2c0.8-0.4,0.5,1.1,2.1,0.1c0,0,0,0,0,0c0,0,0,0,0,0c4.6-1.1,9.5-1.7,13.9,0.4c-0.4,1.1-0.8,0-1.2,0.5   c-0.1,0.3-0.6,0-0.4-0.2c0.1-0.1,0.1-0.2,0-0.2c-0.4,0.3-0.7-0.5-1-0.1c-0.1,0.5-0.7,0.2-0.4-0.3c-0.5,0.3-0.6-0.4-1.1,0   c-0.2,0.2-0.4,0.2-0.4-0.1c0.1-0.3-0.9-0.4-1-0.2c-0.1,0-0.1,0-0.2,0c-0.4-0.6-0.7,0.5-1-0.1c-0.1-0.2-0.3-0.3-0.4,0   c-0.2,0.6-0.5-0.2-0.7-0.1c-0.1,0.3-0.7,0.3-0.6,0.8c-0.7,0.1-0.5-0.4,0-0.7c-0.5-0.1-0.7,0.5-1.1,0.7c-0.2,0-0.2-0.1-0.3-0.3   c-0.5-0.7-1,0.1-1.6-0.3v0c0,0,0,0.1,0,0.1c0.1,0.1,0.3,0.2,0.2,0.4c0,0.1-0.1,0.1-0.2,0.1c-0.2,0-0.3-0.1-0.3-0.3   c0-0.2-0.2,0.1-0.3-0.1c0,0,0,0,0.1,0c-0.4,0,0,0.4-0.4,0.5c-0.3,0.1-0.3-0.8-0.7-0.2c-0.1,0.2-0.3,0.3-0.5,0.1   c-0.4-0.3-1,0.6-0.4,0.6c-0.1-0.6,0.4-0.7,0.5-0.1c0.3-0.1,0.5-0.6,0.8-0.3c0.3,0.3-0.7,0.5-0.2,0.7c0.8,0.4-0.3,0.4-0.1,0.8   c0.3-0.1,1.1-0.6,0.4-0.7c-0.4-0.2,0.2-0.8,0.3-0.3c0.1,0.3,0.6,0.2,0.7,0.6c0,0.1,0.2,0,0.2-0.2c0.2-0.8,0.6,0.5,0.9-0.1   c0.1-0.2,0.3-0.2,0.4-0.1c0.4,0.4,0.6-0.5,0.9-0.1c0.4,0.5,0.4-0.4,0.9-0.1c0-0.5,0-0.5,0.5-0.4c0.6-0.1,1.3-0.1,1.3,0.7   c0.4,0,0.8,0.2,1.2-0.1c0.1,0,0.2,0.1,0.2,0.1c0.3,0.5,0.5-0.5,0.9,0c0.1,0.1,0.3,0.2,0.4,0.1c0.2-0.2,0.4-0.2,0.6-0.2   c-0.1-0.2-0.2-0.6,0.2-0.5c0.3,0.1,0,0.3,0.1,0.5c0.4-0.4,0.7,0.5,0.9,0c0.1-0.2,0.2-0.2,0.3-0.1c0.5,0.8,0.5-0.3,1,0   c0.4,0.5,0.6-0.3,0.9-0.1c0.4,0.3,0.8,0.6,0.2,0.9c-0.1,0.3-0.3,0.5-0.6,0.3c-0.2-0.2-0.3,0.1-0.4,0.2c0,0,0,0,0,0   c-0.1,0-0.3,0-0.3,0.1c-0.1,0.4-0.6,0.3-0.6,0.8c-0.1,0.3-0.4-0.2-0.5,0c0,0.1,0.1,0.1,0.1,0.2c0.2,0.1-0.1,0.4-0.2,0.3   c-0.1-0.1-0.1-0.2-0.3-0.1c-0.1,0.1,0.1,0.2,0.1,0.3c0,0.2,0.1,0.2,0.3,0.3c0.2,0,0.2,0.4,0,0.5c-0.1,0.1-0.3-0.1-0.3,0.1   c0,0.3,0.8,0.3,0.4,0.8c-0.5,0.3-1.2,2-1.7,1.2c-0.1-0.1-0.4-0.2-0.3-0.1c0.1,0.3-0.4,0.6,0,0.9c0.1,0.1,0.1,0.2-0.1,0.3   c-0.7,0.3,0.5,0.5,0.1,0.8c-0.5,0-0.3,0.5-0.4,0.7c-0.1,0.2,0.1,0.4,0.3,0.6c0.1,0.1,0.2-0.1,0.2-0.1c0.2-0.4,0.6-0.2,0.5,0.2   c-0.7,0.2,0.2,0.5,0,0.8c-0.4,0.1-0.3,0.4-0.5,0.6c-0.3,0.3-0.4,0.6-0.6,0.9c0.4-0.1,0.6,0.4,0.2,0.5c-0.1,0-0.2,0-0.2,0.1   c0.2,0.6,0.6-0.3,0.8-0.5c0,0,0,0,0,0c-0.1,0-0.2,0-0.3,0c-0.1-0.1-0.2-0.1-0.2-0.3c0-0.1,0.1-0.2,0.2-0.2c0.1,0,0.2,0.1,0.3,0.1   c0.1,0.1,0.1,0.1,0.1,0.2c0.3-0.1,0.4-0.7,0.8-0.1c0,0,0,0,0,0c-0.2,0.2-0.4,0.4-0.1,0.7c0.3,0.5-2.5,2.2-1.5,3   c0.3,0.1,0.4,0.5,0.7,0.6c0.5,0.2-0.3,0.9,0.5,1.4c0.6,0.2-0.2,0.4-0.1,0.7c0.1,0.4,1.2,0.8,0.5,1.1c-0.5,0.4,0.7,0.2,0.1,1.1   c0.4-0.2,0.8-0.2,0.7-0.7c-0.5,0-0.5-0.1-0.3-0.5c0.1-0.1,0-0.3-0.1-0.4c-0.3-0.2-0.1-0.4,0-0.6c-0.1,0-0.2,0-0.2,0   c-0.1,0.1-0.2,0.2-0.3,0c-0.1-0.1-0.1-0.2,0-0.3c0.1-0.1,0.2-0.1,0.3,0c0,0,0.1,0.1,0.1,0.1c-0.1-0.2,0-0.6-0.5-0.6   c-0.1,0-0.2-0.1-0.1-0.3c0.1-0.2,0.2-0.2,0.5,0.1c0-0.3-0.2-0.5,0-0.7c-0.2,0-0.4,0.2-0.5,0c-0.1-0.1-0.1-0.2,0-0.3   c0.1-0.2,0.3,0,0.5,0c-0.2-0.4,0.2-0.8-0.2-1.2c0.2-0.3,0.3-0.7,0-1c0.4-0.3,0.3-0.5,0-0.8c-0.1-0.1,0.1-0.3,0.2-0.3   c0.1,0,0.1-0.2,0.2-0.3c0-0.2-0.1,0-0.2-0.1c-0.3-0.1-0.4-0.3-0.1-0.5c0.1-0.1,0.3,0.3,0.3-0.2c0-0.3,0.2-0.6-0.1-0.9   c0,0,0-0.1,0.1-0.2c0.2-0.2,0.2-0.4,0-0.6c-0.2-0.1-0.1-0.3,0-0.4c0.2-0.1,0.2-0.3,0-0.4c-0.2-0.2-0.2-0.3,0-0.5   c0.2-0.1,0.2-0.2,0-0.4c-0.3-0.2-0.3-0.4,0-0.6c0.2-0.1,0.2-0.3,0.3-0.5c0.2-0.2,0-0.3-0.1-0.5c-0.1-0.1,0-0.3,0.1-0.4   c0.1-0.1,0.3,0.1,0.3-0.2c0-0.2-0.1-0.3-0.3-0.3c-0.2,0-0.3-0.3-0.1-0.4c0.5-0.2,0.4-0.6,0.3-0.9c0-0.3,0-0.3,0.2-0.5   c0.2-0.2,0.3-0.4,0.5-0.6c0.5-0.6,1.1-1.2,1.6-1.7c0.2-0.1,0.1-0.5,0.5-0.4c0,0.1,0,0.2,0.1,0.2c0.5,0.2,0.2,0.4,0,0.5   c-0.6,0.5-1,1.3-1.7,1.8c-0.7,0.4-0.5,1-0.5,1.5c0,0-0.1,0-0.1,0c-0.1,0-0.1-0.1-0.1-0.1c0,0.2-0.1,0.4,0,0.6l0,0   c0.1,0.4,0.1,0.7,0,1.1c0,0.6-0.1,1.2-0.3,1.8c-0.1,0.3,0,0.6,0,0.9c0,0.3,0.2,0.6-0.1,0.8c-0.1,0.1,0,0.2,0.1,0.2   c0.1,0.1,0.1,0.2,0.1,0.3c-0.3,1.1-0.2,2.3-0.2,3.4c0,0.5,0.1,1,0,1.5c-0.1,0.8,0.1,1.5,0.1,2.2c0,0.4-0.1,0.8-0.2,1.2   c0.2,0,0.5-0.4,0.7,0c0.3,0,0.2-0.3,0.3-0.5c-0.2-1.4,1.4-2.5,0.4-4c-0.1-0.2,0-0.5,0.2-0.6c0.2,0.1,0.3,0.5,0.5,0.8c0,0,0,0,0.1,0   c0,0,0,0.1,0,0.2c0.1-0.3,0.2-0.5,0.2-0.9c-0.3-0.1-0.7-0.6-0.4-0.9c0.2-0.2,0.3,0.5,0.5,0.2c0.1-0.1,0-0.4,0.2-0.5   c0.2-0.7-0.8-0.8-0.6-1.6c0.1-0.6-1.1-1.7,0-2c0.2-0.1,0.4-0.1,0.4-0.3c0,0,0-0.1,0-0.1c0.1-0.2,0.2-0.3,0.1-0.5   c-0.1-1,0.2-2-0.3-2.9c-0.2-0.3-0.2-1.2,0.4-0.9C230.9,23.5,230.9,23.5,231,23.5z M227.7,36.6C227.7,36.6,227.7,36.6,227.7,36.6   L227.7,36.6L227.7,36.6z M234.8,64.6c1.1-0.6,0.1-3.9,0.3-5.1c-0.2-0.8-3.3-0.2-4.2-0.4c-0.3,0-0.6,0.1-0.9-0.2   c-0.1-0.1-0.3,0-0.3,0.1c-0.4,2.1-0.2,4.4-0.1,6.6c0.2,0.9,1.5,0.3,2.2,0.5v0c0.8-0.2,2.8,0.5,2.5-0.8   C234.3,65,234.4,64.7,234.8,64.6z M229.9,56.5c0.5-0.3,0.9-1,1.5-0.7c0.6,0.5,3.7,1.5,3.4,0c-0.1-0.2,0-0.5-0.1-0.7   c-1.3-3-1.6-2.5-4.6-2.5c-0.7,0-0.7,0-0.7,0.6C229.6,53.9,229.1,57,229.9,56.5z M234.4,53.4c0.1-0.3,0-0.8-0.3-0.6   C234,53.1,234.3,53.2,234.4,53.4z M232.3,57c-1.1-0.3-0.9-0.9-2,0c-0.1,0.2-0.2,0.2-0.3,0.3c-0.5,0.3-0.4,1.1,0.3,1   c1.5,0,3.3,0.4,4.7-0.1C234.9,57.1,233.1,57.3,232.3,57z M231.8,27.7c0-0.2-0.1-0.3-0.3-0.4c-0.7-0.5-0.7,0.8-0.3,1   c0.5,0.1,0.9,0.2,1.2,0.7c0.2,0.2,0.5,0.3,0.4-0.2c-0.3-1.1-0.2-0.2-0.8-0.4C231.8,28.2,231.8,28,231.8,27.7z M231.4,30.7   c0.8,0.3-0.5,0.5,0.3,1c0.3,0.3,0.4,0,0.5-0.1c0.1-0.1,0.3-0.2,0.4,0c0.1,0.5,0.5,0.3,0.9,0.4c-1-0.5,0.3-0.5-0.2-0.9   c-0.3-0.3-0.7-0.5-0.9-0.9c-0.1,0.2-0.2,0.3-0.3,0.5c-0.4,0.2-0.7-0.6-0.1-0.5c0.4-0.2-0.6-0.8-0.8-0.9v0.4c-0.1,0-0.3,0.1-0.2,0.3   C231.1,30.3,231.1,30.6,231.4,30.7z M234.7,40c-0.2-1.8-0.4-3.6-0.6-5.4c0-0.2,0-0.5-0.2-0.6c-0.5-0.3-0.6-0.9-1.2-1.1   c-2-0.5-1.3,0-0.7,1.3C232.4,34.5,234.6,41.7,234.7,40z M232.1,50.5c0.6,0.4,1.2,2.1,2.1,1.5C234.4,51,232.7,50.9,232.1,50.5   C232.1,50.4,232.1,50.5,232.1,50.5z M229.4,51.6c-0.1,1,2.3,0.4,3,0.5c0.8,0-1.7-2.4-2.2-2C229.2,49.8,229.6,51,229.4,51.6z    M230,74.4c1-0.3,2.3,0.3,3.1-0.3c1.2-1.5,3.9-3.1,3.3-5.2c-0.3,0.1-0.3-0.1-0.5-0.3c-0.4-0.5-0.9-0.9-1.4-1.4   c-1.3-0.6-3-0.2-4.4-0.3c-0.8,0.2-0.3,2.6-0.6,3.3C229.8,71.2,228.8,74.3,230,74.4z M231.6,74.9c-0.5,0.2-1.2,0-1.7,0.2   c-0.4-0.2-0.5,0.1-0.5,0.3C229,76.8,232.9,75.1,231.6,74.9z M227.8,50.1c-1.4,1.5-2.6,2.1,0.4,1.9c0.3,0,0.7,0.2,0.8-0.2   c0.2-0.6-0.1-1.2-0.1-1.8C228.6,49.9,228,49.9,227.8,50.1z M224.4,52L224.4,52c0.4-0.1,1,0.2,1.2-0.2c0.1-0.3,1.6-1.7,0.7-1.5   C225.6,50.7,221.6,52.2,224.4,52z M228.9,70.6c0-1.1,0-2.2,0-3.2c0-0.8-1.1-0.4-1.6-0.5v0c-0.5,0.1-1.4-0.3-1.6,0.3   c-0.3,1-0.1,2,0.1,3c-0.2,2.3,0.6,2.1,1.2,3.8c0.1,0.8,0.9,0.3,1.4,0.5C229.3,74.4,228.6,71.4,228.9,70.6z M227.5,75.2   c-0.1,0.2,0.2,0.4,0.3,0.5c0.8,0.6,0.6,0.3,0.9-0.4C229,74.8,227.7,74.9,227.5,75.2z M206.7,65.5c-0.4,1.4,1.3,0.8,2.2,0.9   c1.6-0.1,3.3,0.4,4.8-0.1c0.2-2,0.2-4.6,1.2-6.3c0-0.4,0.7-1.3,0-1.2c-0.9,0.1-1.8,0-2.6,0.1c-1.1,0.2-2.5-0.6-3.1,0.7   c-1,1.6-1.8,3.3-2.2,5.1C206.7,64.9,206.8,65.2,206.7,65.5z M228.8,59.9c0.1-1.2-0.3-0.9-1.1-0.9c-1.9,0.1-4.1-0.5-5.8,0.2   c-0.1,1-1.9,5.9-0.8,6c3.2-0.4,2.9,1.1,4.7,1c0.8-0.4,2.9,0.5,3-0.6C228.8,63.6,228.9,61.7,228.8,59.9z M214.2,65.2   c-0.2,0.4,0,1.2,0.6,1.2c1.6-0.1,3.4,0.2,5-0.2C215.1,66.2,214.1,62.4,214.2,65.2z M215.7,74.1c1.2,0.7,3.8,0,5.4,0.2   c0-1.5-0.8-3-0.9-4.6c-0.3-0.7,0.2-3-0.6-3c-1.6,0-3.3,0-4.9,0.1C213.1,66.5,215.1,73.4,215.7,74.1z M221.2,59.6   c0.2-0.7,0.1-0.8-0.6-0.8c-1.4,0.1-2.9-0.3-4.1,0.1c0,0.2-0.3,0.4-0.3,0.5l-0.7,1.7c-0.2,0.5-0.2,1.2-0.3,1.8   c0.6,1.2,4.3,3.3,5,1.7C220.2,63,220.7,61.3,221.2,59.6z M222.6,56.4c-0.1-1.6-9.7,2.3-3.1,1.8v0C221.8,58.3,221.6,58.7,222.6,56.4   z M221.1,52.6c-4.4-0.9-7.9,2.3-10.7,5.3c-1.1,0.9,4.8,0.2,5.4,0.5C217.2,56.2,219.1,54.3,221.1,52.6z M210.1,74.4   c0.7-0.3,5.9,0.6,4.9-0.6c-3.1-6.8,1.6-7.1-5.2-7c-0.7,0.2-2.8-0.4-3.1,0.3C206.6,69.1,208.1,73.8,210.1,74.4z M210.2,74.9   c1.6,2.4,4.5,4,7,5.5c0.9,0.4,2.3,0.8,3.1,0.3c-0.2-0.5-0.9-0.8-1.2-1.2c-1.2-1.2-2.4-2.5-3.2-4c-0.6-1.1-2-0.4-3-0.6v-0.1   C212,74.9,211,74.7,210.2,74.9z M219.8,81.4c0.3,0.3,2.5,1.1,2.8,1C221.8,81.5,221,81,219.8,81.4z M224.1,80.3   c-1-1.6-1.8-3.4-2.5-5.2c-0.7-0.8-2.7-0.1-3.9-0.3c-0.4,0-1.7-0.3-1.3,0.4c1.5,2.1,3.2,4.6,5.7,5.6   C222.5,80.7,224.7,81.3,224.1,80.3z M225.9,74.4c0-0.6-0.1-1.2-0.5-1.6c-1-0.9-0.2-2.3-0.7-3.4c-0.3-0.5-0.3-1-0.2-1.5   c0-1.9-2.6-0.9-3.8-1.1c-0.3,2.3,0.3,4.9,0.9,7.2C222.3,74.9,224.9,74.2,225.9,74.4z M228.2,57.2c-1.3,0.2-2-0.9-3-1.4   c-2-0.1-1.8,0.5-2.4,2.1c-0.1,0.4,0.1,0.4,0.4,0.4c1.8-0.1,3.6,0,5.4,0C229.2,58.3,229,57,228.2,57.2z M224.5,53.4   c1.1-1.3-0.8-0.6-1.5-0.8c-1.9,0.3-3.3,2.1-4.6,3.3c0,0.2,0.1,0.2,0.2,0.1c1.2-0.2,2.4-0.8,3.6-0.9   C223.5,55.4,223.9,54.3,224.5,53.4z M219.3,52c2.6,0.1,2.7,0.2,4.9-1.5C223.2,50.4,219.7,51.5,219.3,52z M215.5,51.9   c1.7,0.4,3.1-0.3,4.5-1c0.2,0,0.4-0.1,0.6-0.2c-0.3-0.1-0.5-0.1-0.7,0.1C218.4,51,216.9,51.3,215.5,51.9z M208.8,58.4   c0.4,0,0.7-0.1,0.9-0.4c1.7-2.2,4-3.7,6.4-5.2c-4.5-0.8-8.8,2.5-12.1,5.2C203.5,58.6,208.2,58.2,208.8,58.4z M203,66.4L203,66.4   c5.8,0.4,1.1-0.8,5.7-7.2c0.9-0.9-4.5-0.2-5.1-0.5c-1.7,0.4-2.4,2.8-3.2,4.2C199.4,66.6,199.2,66.5,203,66.4z M207.6,74.4   c0.5,0,1.7,0.2,1-0.6c-4.2-6,0.1-7.3-5.6-6.9v0c-0.7,0.2-3.1-0.5-3.1,0.5c0.1,2.5,1.2,4.8,2.7,6.8   C203.2,74.9,206.3,74.1,207.6,74.4z M212.8,80.9c0.6,0,1.1,0,1.7,0v0c2.4,0,2.9,0.1,0.4-1.2c-1.8-1.2-3.5-2.5-4.9-4.1   c-0.8-1.1-1.8-0.5-2.8-0.8c-1,0.1-2,0.2-3,0c-0.3,0-0.6-0.1-0.7,0.1C205.5,77.8,209.4,79.8,212.8,80.9z M223.8,83.6   c-1.6-0.7-3.6-1.1-5.3-2c-1.3-0.5-2.8-0.2-4.1-0.1C217.3,82.6,220.7,83.4,223.8,83.6z M225.9,83.3c-0.4-0.9-0.9-2.2-2.1-1.9   c-0.1,0-0.2,0-0.4,0c-0.2,0.1-0.7-0.2-0.7,0.1c-0.1,0.2,0.4,0.3,0.6,0.5C224.1,82.6,225,82.9,225.9,83.3z M228.8,82.5L228.8,82.5   c0-0.3,0-0.5,0-0.8c0-0.4-0.1-0.5-0.5-0.4c-0.9,0.2-2-0.2-2.8,0.1c-0.1,0.2,0.1,0.4,0.2,0.5c0.2,0.4,0.8,0.7,1,1   c0.3,0.8,1,0.6,1.6,0.7C229.1,83.8,228.8,82.9,228.8,82.5z M228.5,76.9c-2.7-0.5-1.1-2.4-4.3-2v0c-0.5,0.1-2.3-0.4-2.1,0.3   c0.6,1.8,1.5,3.5,2.5,5.1c0.1,0.2,0.2,0.5,0.5,0.5c0.9-0.1,3.3,0.4,3.7-0.4C228.6,79.4,229.5,77.6,228.5,76.9z M229,53   c-0.1-0.8-1.4-0.2-2-0.4c-1-0.1-1.7,0.2-2.1,1.1c0,0,0,0,0,0c-0.2,0.4-0.5,0.8-0.7,1.2c0,0,0,0,0,0c0,0.3,0.1,0.2,0.3,0.2   c0.5-0.1,1.3-0.1,1.7,0.5c0.5,1,1.6,0.7,2.5,0.9C229.5,57,228.8,53.6,229,53z M229.3,80.4c0.1,0.8,1.4,0.3,1.9,0.4c0,0,0,0,0,0   c0.8-0.1,1.8,0.3,2.2-0.6c0.9-1.5,1.7-3.2,2.2-4.9c0.2-0.9-1.3-0.3-1.8-0.5c-0.8,0.1-1.2,1.1-2,1.4c-0.7,0.4-2.1,0.3-2.5,1   C229.4,78.4,229.3,79.4,229.3,80.4z M232.4,81.7c0.6-0.6-1.1-0.3-1.5-0.4v0c-0.5,0.1-1.6-0.3-1.7,0.4c0.1,0.7-0.1,1.6,0.2,2.3   C230.9,84.4,231.6,82.5,232.4,81.7z M235.1,81.3c-2.2-0.3-2.3,0.9-3.5,2.5c0.2,0,0.2,0,0.3-0.1C232.3,83.5,235.9,81.6,235.1,81.3z    M234.7,83c1.4-0.2,2.8-1,4.1-1.4c0.8-0.4-1.9-0.3-2-0.3C236.5,81.5,233.9,82.9,234.7,83z M244,81.5c-2.9-0.5-5.3,0.9-7.9,1.9   C238.8,83.1,241.4,82.5,244,81.5z M252.6,76.6c0.3-0.3,0.7-0.7,1.1-0.9c0-0.1,0.1-0.1,0.1-0.2c0.8-1-4.3,0-4.7-0.5c0,0,0,0,0,0   c-2,2.1-4.2,4.2-6.6,5.7c3.8,1,6.9-1.6,9.8-3.7C252.2,76.7,252.4,76.7,252.6,76.6z M231.2,29.8C231.2,29.8,231.2,29.8,231.2,29.8   C231.2,29.8,231.2,29.8,231.2,29.8L231.2,29.8z M231.8,18.5c0.1-0.2-0.1-0.3-0.3-0.3c-0.2,0.1-0.2,0.2-0.2,0.3   C231.5,18.6,231.8,18.7,231.8,18.5z M232.1,30.7L232.1,30.7C232.1,30.7,232.1,30.7,232.1,30.7C232.1,30.7,232.1,30.7,232.1,30.7z    M231.9,31.6c0.1,0,0.2-0.1,0.2-0.3c0-0.1-0.1-0.2-0.2-0.2c-0.2,0-0.2,0.1-0.3,0.3C231.6,31.5,231.7,31.6,231.9,31.6z M232.4,31.1   c0.1,0,0.3-0.1,0.2-0.3c-0.1-0.2-0.3-0.3-0.5-0.1C232.1,30.9,232,31.2,232.4,31.1z M230.7,18.6c0.2,0.1,0.3,0,0.3-0.2   c-0.1-0.2-0.2-0.2-0.4-0.2C230.6,18.4,230.4,18.5,230.7,18.6z M227.2,27.8c-0.1,0-0.2,0-0.2,0.2c0,0.1,0,0.2,0.2,0.3   c0.1,0,0.2-0.1,0.3-0.2C227.5,27.9,227.4,27.8,227.2,27.8z M227,27.1c0,0.1,0.1,0.2,0.2,0.2c0.2,0,0.3-0.1,0.3-0.2   c0-0.1-0.1-0.3-0.2-0.3C227.1,26.8,227,27,227,27.1z M227.2,26c-0.1,0-0.2,0-0.3,0.2c0,0.1,0,0.2,0.2,0.3c0.1,0,0.2,0,0.3-0.2   C227.4,26.1,227.3,26,227.2,26z M227.3,29.5c-0.1,0-0.2,0.1-0.2,0.3c0,0.1,0.1,0.2,0.3,0.2c0.1-0.1,0.2-0.1,0.2-0.3   C227.5,29.6,227.4,29.5,227.3,29.5z M226.4,29.6c-0.1,0-0.2,0.1-0.2,0.2c0,0.1,0.1,0.2,0.2,0.2c0.1,0,0.2-0.1,0.2-0.2   C226.6,29.7,226.6,29.6,226.4,29.6z M226.9,29.2c-0.2,0-0.2,0.1-0.2,0.2c0,0.1,0.1,0.2,0.2,0.2c0.2,0,0.2-0.1,0.2-0.2   C227.1,29.2,227,29.2,226.9,29.2z M227.3,29.1c0.1,0,0.2-0.1,0.2-0.2c0-0.1-0.1-0.3-0.2-0.3c-0.1,0-0.2,0.1-0.2,0.2   C227.1,29,227.1,29.2,227.3,29.1z M228.9,21.7c0,0.3-0.2,0.2-0.4,0.2c0,0,0,0.1,0,0.1c0,0.2,0,0.4-0.3,0.4c-0.1,0-0.2-0.1-0.2-0.2   c0-0.3,0.1-0.3,0.4-0.3c0,0,0-0.1,0-0.1c0-0.2,0-0.4,0.3-0.4C228.8,21.5,228.9,21.6,228.9,21.7z M228.4,22   C228.4,22,228.4,22,228.4,22C228.4,22,228.4,22,228.4,22C228.4,22,228.4,22,228.4,22z M227.6,25.5c-0.1,0-0.2,0.1-0.2,0.2   c0,0.2,0.1,0.3,0.3,0.3c0.1,0,0.2-0.1,0.2-0.2C227.8,25.7,227.7,25.5,227.6,25.5z M232.2,18.6c-0.1-0.1-0.2,0-0.2,0.1   c-0.1,0.2,0,0.3,0.2,0.4c0,0,0.1,0,0.1,0C232.4,18.9,232.4,18.7,232.2,18.6z M229.5,20.5c-0.2,0-0.3,0.2-0.2,0.3   c0.1,0.1,0.2,0.3,0.4,0.1C229.8,20.7,229.7,20.6,229.5,20.5z M231.7,19.1c-0.1,0-0.2,0.1-0.2,0.2c0,0.2,0.1,0.3,0.2,0.3   c0.1,0,0.1-0.1,0.2-0.1C232,19.2,231.9,19.1,231.7,19.1z M227.5,24.6c-0.1,0-0.2,0.1-0.2,0.3c0,0.1,0.1,0.2,0.2,0.2   c0.1,0,0.2-0.1,0.2-0.2C227.7,24.7,227.6,24.6,227.5,24.6z M229.2,21c-0.2,0-0.3,0-0.3,0.2c0,0.1,0.1,0.2,0.2,0.2   c0.2,0,0.2-0.1,0.2-0.3C229.3,21.2,229.3,21.1,229.2,21C229.2,21.1,229.2,21.1,229.2,21z M232.1,18.1c0.1,0,0.2-0.1,0.2-0.2   c0-0.1-0.1-0.2-0.2-0.2c-0.1,0-0.2,0.1-0.2,0.2C231.8,18,231.9,18.1,232.1,18.1z M219.3,39.4c-0.1,0-0.2,0.1-0.2,0.3   c0,0.2,0.1,0.3,0.4,0.2c0.1,0,0.1,0,0.2,0c0-0.1,0-0.1,0-0.2C219.6,39.5,219.5,39.4,219.3,39.4z M218.4,27.4   C218.4,27.4,218.4,27.4,218.4,27.4C218.4,27.4,218.4,27.4,218.4,27.4L218.4,27.4z M219.6,39.9C219.6,39.9,219.6,39.9,219.6,39.9   C219.6,39.9,219.6,39.9,219.6,39.9L219.6,39.9C219.6,39.9,219.6,39.9,219.6,39.9C219.6,39.9,219.6,39.9,219.6,39.9L219.6,39.9z    M219.2,37.2c0.1,0,0.2-0.1,0.2-0.2c0-0.2-0.1-0.2-0.2-0.3c-0.1,0-0.2,0.1-0.2,0.2C219,37.1,219.1,37.2,219.2,37.2z M207.3,33.8   c-0.1,0-0.2,0.1-0.2,0.2c0,0.1,0.1,0.2,0.2,0.2c0.1,0,0.2-0.1,0.2-0.2C207.6,33.9,207.5,33.8,207.3,33.8z M219.5,37.9   c0-0.1-0.1-0.2-0.2-0.2c-0.2,0-0.2,0.1-0.2,0.2c0.1,0.1,0.1,0.2,0.2,0.3C219.4,38.2,219.5,38.1,219.5,37.9z M215.1,27.1   c-0.1,0-0.2,0.1-0.2,0.2c0,0.1,0,0.3,0.2,0.3c0.1,0,0.3-0.1,0.3-0.2C215.3,27.2,215.2,27.1,215.1,27.1z M216.9,27.9   c-0.1,0-0.2,0.1-0.2,0.2c0,0.1,0.1,0.2,0.2,0.2c0.1,0,0.2-0.1,0.2-0.2C217.1,28,217,27.9,216.9,27.9z M218.1,27.4   c-0.1,0.1-0.2,0.1-0.1,0.3c0.1,0.1,0.1,0.2,0.2,0.2c0.1,0,0.2-0.1,0.2-0.2c0-0.1,0-0.2-0.1-0.3C218.3,27.4,218.2,27.3,218.1,27.4z    M220.3,34.5c-0.2,0.3-0.1,0.4,0.3,0.4C220.8,34.6,220.7,34.4,220.3,34.5z M219.6,39.9c0,0.2-0.1,0.5,0.2,0.4   c0.1,0,0.2-0.1,0.2-0.2C220,39.8,219.8,39.9,219.6,39.9z M214.7,27.6c-0.1,0-0.2,0.1-0.3,0.2c0,0.1,0.1,0.2,0.2,0.2   c0.1,0,0.2-0.1,0.2-0.2C214.9,27.7,214.8,27.6,214.7,27.6z M219.7,37.2c-0.2,0-0.3,0.1-0.3,0.2c0,0.1,0.1,0.2,0.2,0.2   c0.1,0,0.2,0,0.3-0.2C219.9,37.3,219.8,37.2,219.7,37.2z M219.6,36.8c0.2,0,0.2-0.1,0.3-0.2c0-0.1-0.1-0.2-0.2-0.3   c-0.1,0-0.3,0.1-0.3,0.2C219.4,36.7,219.4,36.8,219.6,36.8z M220.3,38.5c-0.1,0-0.2,0-0.3,0c0-0.2,0-0.5-0.3-0.4   c-0.3,0-0.2,0.3-0.2,0.5c0,0,0,0,0,0c0,0,0,0,0,0c-0.1,0-0.2,0-0.3,0c-0.1,0.2-0.2,0.3,0,0.5c0.2,0.1,0.2-0.1,0.3-0.1   c0.1-0.1,0.1-0.2,0-0.3c0,0,0,0,0,0c0.1,0,0.2-0.1,0.4-0.1c0,0,0,0,0,0c0,0,0.1,0,0.1,0c0,0.2-0.1,0.5,0.4,0.4   C220.4,38.8,220.5,38.6,220.3,38.5z M219.8,39.4c0.1,0,0.2-0.1,0.2-0.3c0-0.2-0.1-0.2-0.2-0.2c-0.1,0-0.2,0.1-0.2,0.2   C219.5,39.3,219.6,39.4,219.8,39.4z M220,39.6c0,0.1,0.1,0.2,0.2,0.2c0.2,0,0.3-0.1,0.3-0.3c0-0.1-0.1-0.2-0.2-0.2   C220.1,39.4,220,39.5,220,39.6z M214,27.2C214,27.2,214,27.2,214,27.2C214,27.2,214,27.2,214,27.2L214,27.2z M208.9,32   c-0.1,0-0.1,0.1-0.1,0.2c0.1,0.2,0.2,0.2,0.4,0.1c0,0,0,0,0,0c0,0,0,0,0,0C209.2,32.1,209.2,31.9,208.9,32z M209,31.5   c0.1,0,0.2-0.1,0.2-0.3c0-0.1-0.1-0.3-0.2-0.2c-0.1,0-0.2,0.1-0.2,0.3C208.8,31.4,208.8,31.5,209,31.5z M214.2,28.1   c-0.1,0-0.2,0.1-0.2,0.2c0,0.1,0.1,0.2,0.2,0.2c0.1,0,0.2-0.1,0.2-0.2C214.4,28.1,214.3,28.1,214.2,28.1z M208.8,31.7   c0-0.1-0.1-0.2-0.2-0.2c-0.1,0-0.2,0.1-0.2,0.3c0,0.1,0.1,0.2,0.2,0.2C208.7,31.9,208.8,31.9,208.8,31.7z M208.1,32   c-0.1,0-0.2,0.1-0.2,0.2c0,0.2,0.1,0.2,0.3,0.2c0.1,0,0.2-0.1,0.2-0.2C208.4,32,208.3,32,208.1,32z M223.1,18.3   c-0.1,0-0.2,0.1-0.2,0.2c0,0.1,0.1,0.2,0.2,0.2c0.1,0,0.2-0.1,0.2-0.3C223.3,18.3,223.2,18.2,223.1,18.3z M207.7,32.5   c-0.1,0-0.2,0.1-0.2,0.2c0,0.1,0.1,0.2,0.2,0.2c0.1,0,0.2-0.1,0.2-0.2C207.9,32.5,207.8,32.5,207.7,32.5z M208.6,32.4   c-0.1,0-0.2,0.1-0.2,0.2c0,0.1,0,0.2,0.2,0.2c0.1,0,0.2-0.1,0.2-0.2C208.8,32.5,208.8,32.4,208.6,32.4z M213.3,28.1   c-0.1,0-0.2,0.1-0.2,0.2c0,0.1,0.1,0.2,0.2,0.2c0.1-0.1,0.3-0.1,0.3-0.3C213.6,28.2,213.5,28.1,213.3,28.1z M213.7,28.1   c0.1,0,0.2-0.1,0.2-0.2c0-0.1-0.1-0.2-0.2-0.2c-0.1,0-0.2,0.1-0.3,0.2C213.5,28,213.6,28.1,213.7,28.1z M213.8,28.6   c-0.1,0-0.2,0.1-0.2,0.2c0,0.1,0.1,0.2,0.2,0.2c0.1,0,0.2-0.1,0.2-0.2C214,28.7,213.9,28.6,213.8,28.6z M221.6,35.7   C221.6,35.7,221.6,35.7,221.6,35.7C221.6,35.7,221.6,35.7,221.6,35.7L221.6,35.7z M210.7,29.2c-0.1,0-0.2,0.1-0.2,0.2   c0,0.1,0.1,0.2,0.2,0.2c0.1,0,0.2-0.1,0.2-0.3C210.9,29.2,210.8,29.1,210.7,29.2z M214,27.4c0,0.1,0.1,0.2,0.2,0.2   c0.1,0,0.2-0.1,0.2-0.2c0-0.1-0.1-0.2-0.2-0.2c-0.1,0-0.1,0-0.2,0C214,27.2,214,27.3,214,27.4z M209.4,30.5c-0.1,0-0.2,0.1-0.2,0.2   c0,0.1,0.1,0.2,0.2,0.2c0.2,0,0.2-0.1,0.2-0.2C209.6,30.6,209.5,30.5,209.4,30.5z M220.2,38.1c0.1,0,0.2-0.1,0.3-0.2   c0-0.1-0.1-0.2-0.2-0.2c-0.2,0-0.3,0.1-0.3,0.2C219.9,38,220,38.1,220.2,38.1z M219.5,18.4c-0.1,0-0.2,0.1-0.2,0.2   c0,0.1,0.1,0.2,0.3,0.2c0.1,0,0.2-0.1,0.2-0.2C219.7,18.5,219.6,18.4,219.5,18.4z M219.1,18.9c-0.1,0-0.1,0-0.2,0   c0,0.1,0,0.1,0,0.2c0,0.1,0.1,0.2,0.3,0.2c0.1,0,0.2-0.1,0.2-0.2C219.4,19,219.3,18.9,219.1,18.9z M220,18.9c-0.1,0-0.3,0-0.2,0.2   c0,0.1,0.1,0.2,0.2,0.2c0.1,0,0.2-0.1,0.2-0.2C220.3,18.9,220.1,18.9,220,18.9z M221.5,35.7c0.1,0,0.1,0,0.2,0c0-0.1,0-0.1,0-0.2   c0-0.2-0.1-0.3-0.3-0.3c-0.1,0-0.2,0.1-0.2,0.2C221.1,35.8,221.3,35.7,221.5,35.7z M218.9,18.5c0.1,0,0.2,0,0.3-0.1   c0.1-0.1,0.2-0.2,0.1-0.3c-0.1-0.1-0.2-0.2-0.3-0.1c-0.1,0-0.2,0.2-0.2,0.3C218.9,18.4,218.9,18.5,218.9,18.5   c-0.2-0.1-0.3-0.1-0.5,0.1c-0.1,0.1-0.1,0.2,0,0.2c0.1,0.2,0.3,0.2,0.5,0.1C218.9,18.8,218.9,18.6,218.9,18.5z M218.9,18.9   C218.9,18.9,218.9,18.9,218.9,18.9C218.9,18.9,218.9,18.9,218.9,18.9L218.9,18.9z M224.4,18.1c0.1,0,0.3,0,0.3-0.2   c0-0.2-0.1-0.2-0.2-0.3c-0.2,0-0.2,0.1-0.2,0.2C224.2,18,224.3,18.1,224.4,18.1z M218.9,18.9C218.9,18.9,218.9,18.9,218.9,18.9   C218.9,18.9,218.9,18.9,218.9,18.9L218.9,18.9z M224,18.6c0.1,0,0.2-0.1,0.2-0.2c0-0.1-0.1-0.2-0.3-0.2c-0.1,0-0.2,0.1-0.2,0.2   C223.8,18.5,223.9,18.6,224,18.6z M222.2,18.3c-0.2,0-0.2,0.1-0.2,0.2c0,0.1,0.1,0.2,0.2,0.2c0.1,0,0.2,0,0.2-0.2   C222.5,18.4,222.4,18.3,222.2,18.3z M222.7,17.8c-0.1,0-0.2,0.1-0.2,0.2c0,0.1,0.1,0.2,0.2,0.2c0.1,0,0.2,0,0.2-0.2   C222.9,17.9,222.8,17.8,222.7,17.8z M221.7,17.8c-0.1,0-0.2,0.1-0.2,0.2c0,0.1,0.1,0.2,0.2,0.3c0.2,0,0.2-0.1,0.2-0.3   C222,17.9,221.9,17.9,221.7,17.8z M220.9,18.8c-0.1,0-0.2,0.1-0.2,0.2c0,0.1,0.1,0.2,0.2,0.2c0.1,0,0.2-0.1,0.2-0.2   C221.1,18.9,221,18.8,220.9,18.8z M218.2,19c-0.1,0-0.2,0.1-0.2,0.2c0,0.1,0.1,0.2,0.2,0.2c0.1,0,0.3-0.1,0.2-0.3   C218.4,19,218.4,19,218.2,19z M221.1,18.3c0,0.2,0,0.5,0.3,0.4c0.1,0,0.3-0.1,0.2-0.3C221.5,18.2,221.3,18.3,221.1,18.3z    M221.1,18.3C221.1,18.3,221.1,18.3,221.1,18.3C221.1,18.3,221.1,18.3,221.1,18.3L221.1,18.3z M220.4,18.4c-0.1,0-0.2,0.1-0.2,0.2   c0,0.1,0.1,0.2,0.2,0.2c0.1,0,0.2-0.1,0.2-0.2C220.6,18.4,220.5,18.3,220.4,18.4z M222.5,31.6c0.2,0,0.2-0.1,0.2-0.3   c0-0.1-0.1-0.2-0.2-0.2c-0.2,0-0.2,0.1-0.2,0.3C222.3,31.6,222.4,31.6,222.5,31.6z M222.9,31.1c0.1,0,0.2-0.1,0.2-0.3   c0-0.1-0.1-0.2-0.2-0.2c-0.1,0-0.2,0.1-0.2,0.3C222.7,31.1,222.8,31.1,222.9,31.1z M221.6,32.1c-0.1,0-0.1,0-0.2,0c0,0,0,0.1,0,0.1   c0,0.1,0,0.4,0.2,0.3c0.1,0,0.2-0.1,0.2-0.2C221.9,32.2,221.8,32.1,221.6,32.1z M222.2,32c0.1-0.1,0.1-0.2,0-0.2   c-0.2-0.2-0.3-0.1-0.5,0c0,0.1,0,0.2,0,0.3C222,32.1,222.1,32.2,222.2,32z M217.8,18.5c-0.2,0-0.3,0.1-0.3,0.2   c0,0.1,0.1,0.2,0.2,0.2c0.1,0,0.3-0.1,0.3-0.3C218,18.6,217.9,18.5,217.8,18.5z M220.8,34.4c0.1,0,0.2-0.1,0.2-0.3   c0-0.1-0.1-0.2-0.2-0.2c-0.2,0-0.2,0.1-0.2,0.3C220.6,34.3,220.7,34.5,220.8,34.4z M220.3,33.6c-0.1,0-0.1,0.1-0.1,0.2   c0,0.2,0.1,0.2,0.3,0.2c0.1-0.1,0.1-0.2,0.2-0.3C220.6,33.6,220.4,33.5,220.3,33.6z M221,34.9c-0.3-0.2-0.3,0.1-0.4,0.3l0,0   c0.1,0.1,0.3,0.3,0.4,0C221.2,35.1,221.1,35,221,34.9z M223.8,31.1c0.1,0,0.2-0.1,0.2-0.2c0-0.1-0.1-0.3-0.2-0.3   c-0.1,0-0.3,0.1-0.2,0.2C223.6,31,223.7,31.1,223.8,31.1z M222.2,32.5c-0.1,0-0.3,0-0.3,0.2c0,0.1,0.1,0.2,0.2,0.3   c0.2,0,0.2-0.1,0.2-0.2C222.3,32.6,222.3,32.5,222.2,32.5z M223.3,30.2c-0.1,0-0.2,0.1-0.2,0.2c0,0.1,0.1,0.2,0.2,0.2   c0.2,0,0.2-0.1,0.2-0.2C223.5,30.3,223.5,30.2,223.3,30.2z M223.4,31.1c-0.2,0-0.3,0.1-0.3,0.2c0,0.1,0.1,0.2,0.2,0.2   c0.2,0,0.2-0.1,0.2-0.2C223.6,31.2,223.5,31.1,223.4,31.1z M222.6,32c-0.2,0-0.3,0.1-0.3,0.2c0,0.1,0.1,0.3,0.2,0.3   c0.1,0,0.2-0.1,0.3-0.2C222.8,32.1,222.7,32.1,222.6,32z M222.9,31.5c-0.1,0-0.2,0.1-0.2,0.2c0,0.2,0.1,0.2,0.3,0.2   c0.1,0,0.2-0.1,0.2-0.2C223.1,31.7,223.1,31.5,222.9,31.5z M213.8,46.5c0.1-0.1,0.2-0.1,0.3-0.1c0.1,0,0.2,0,0.3,0   c0.1,0,0.2,0.1,0.3,0.1c0.1,0.1,0.2,0.2,0.2,0.3l0,0l0.4-0.1l-0.3-0.9l0,0c-0.2,0-0.4,0-0.6,0.1c-0.2,0-0.3,0.1-0.5,0.1   c-0.3,0.1-0.5,0.2-0.7,0.4c-0.2,0.2-0.3,0.3-0.4,0.5c-0.1,0.2-0.1,0.4,0,0.7c0,0.1,0.1,0.3,0.2,0.4c0.1,0.1,0.2,0.2,0.3,0.3   c0.1,0.1,0.2,0.1,0.4,0.2c0.1,0,0.3,0.1,0.5,0.1c0.2,0,0.4,0.1,0.5,0.1c0.1,0,0.2,0.1,0.3,0.2c0.1,0.1,0.1,0.2,0.2,0.3   c0,0.1,0,0.2,0,0.3c0,0.1-0.1,0.2-0.2,0.2c-0.1,0.1-0.2,0.1-0.3,0.1c-0.2,0.1-0.4,0.1-0.5,0c-0.1-0.1-0.3-0.2-0.4-0.4l0,0l-0.4,0.1   l0.3,0.9l0,0c0.2,0,0.4,0,0.6-0.1c0.2,0,0.4-0.1,0.6-0.1c0.3-0.1,0.5-0.2,0.7-0.4c0.2-0.2,0.3-0.3,0.4-0.5c0.1-0.2,0.1-0.4,0-0.7   c-0.1-0.2-0.1-0.3-0.2-0.5c-0.1-0.1-0.2-0.2-0.4-0.3c-0.2-0.1-0.4-0.1-0.7-0.2c-0.2,0-0.4-0.1-0.5-0.1c-0.1,0-0.2-0.1-0.3-0.2   c-0.1-0.1-0.1-0.2-0.1-0.3c0-0.1,0-0.2,0-0.3C213.7,46.6,213.7,46.6,213.8,46.5z M205,50.3C205,50.3,205,50.3,205,50.3   c0.1,0,0.1,0,0.2,0c0.1,0,0.2,0.1,0.3,0.2l0,0l0.4-0.2l-0.5-0.8l-2.6,1.6l0.1,0.2l0,0c0.1,0,0.1,0,0.2,0c0,0,0.1,0,0.1,0   c0,0,0.1,0.1,0.1,0.1c0,0.1,0.1,0.1,0.1,0.2l1.3,2.2c0,0.1,0.1,0.1,0.1,0.2c0,0.1,0,0.1,0,0.1c0,0,0,0.1,0,0.1c0,0-0.1,0.1-0.1,0.1   l0,0l0.1,0.2l2.5-1.6l0,0l-0.5-1l-0.4,0.2l0,0c0,0.1,0.1,0.2,0.1,0.3c0,0.1,0,0.1,0,0.2c0,0,0,0.1,0,0.1c0,0,0,0.1,0,0.1   c0,0,0,0.1-0.1,0.1c0,0-0.1,0.1-0.1,0.1l-0.5,0.3l-0.8-1.3l0.3-0.2c0.1,0,0.1-0.1,0.2-0.1c0,0,0.1,0,0.2,0c0.1,0,0.1,0.1,0.2,0.2   l0,0l0.3-0.2l-0.7-1.1l-0.3,0.2l0,0c0,0.1,0.1,0.2,0.1,0.3c0,0.1,0,0.1,0,0.2c0,0-0.1,0.1-0.1,0.1l-0.3,0.2l-0.7-1.2l0.5-0.3   C204.8,50.4,204.9,50.3,205,50.3z M217.4,45.4L217.4,45.4l0-0.2l-1.6,0.3l0,0.2l0,0c0.1,0,0.1,0,0.2,0c0,0,0.1,0,0.1,0.1   c0,0,0,0.1,0.1,0.1c0,0.1,0,0.1,0.1,0.2l0.5,2.5c0,0.1,0,0.2,0,0.2c0,0.1,0,0.1,0,0.2c0,0,0,0.1-0.1,0.1c0,0-0.1,0.1-0.2,0.1l0,0   l0,0.2l1.6-0.3l0-0.2l0,0c-0.1,0-0.1,0-0.1,0c0,0-0.1,0-0.1,0c0,0,0,0-0.1-0.1c0,0,0-0.1-0.1-0.1c0-0.1,0-0.1,0-0.2l-0.2-1.1   l1.3-0.3l0.2,1.1c0,0.2,0,0.3,0,0.3c0,0.1,0,0.1,0,0.1c0,0-0.1,0.1-0.2,0.1l0,0l0,0.2l1.6-0.3l0-0.2l0,0c-0.1,0-0.2,0-0.2,0   c0,0-0.1-0.1-0.1-0.1c0-0.1-0.1-0.2-0.1-0.3l-0.5-2.5c0-0.1,0-0.2,0-0.2c0,0,0-0.1,0-0.1c0,0,0-0.1,0.1-0.1c0,0,0.1-0.1,0.2-0.1   l0,0l0-0.2l-1.6,0.3l0,0.2l0,0c0.1,0,0.2,0,0.2,0c0,0,0.1,0.1,0.1,0.1c0,0.1,0.1,0.2,0.1,0.3l0.2,0.9l-1.3,0.3l-0.2-1   c0-0.1,0-0.3,0-0.3c0-0.1,0-0.1,0-0.1C217.2,45.5,217.3,45.5,217.4,45.4z M211.8,47.1c0,0,0.1-0.1,0.1-0.1l0,0l-0.1-0.2l-1.5,0.5   l0,0l0.1,0.2l0,0c0.1,0,0.1,0,0.2,0c0,0,0.1,0,0.1,0.1c0,0,0.1,0.1,0.1,0.1c0,0.1,0.1,0.1,0.1,0.2l0.9,2.4c0,0.1,0.1,0.2,0.1,0.2   c0,0.1,0,0.1,0,0.2c0,0,0,0.1-0.1,0.1c0,0-0.1,0.1-0.1,0.1l0,0l0.1,0.2l1.5-0.6l-0.1-0.2l0,0c-0.1,0-0.1,0-0.1,0c0,0-0.1,0-0.1,0   c0,0-0.1,0-0.1-0.1c0,0,0-0.1-0.1-0.1c0-0.1,0-0.1-0.1-0.2l-0.9-2.4c0-0.1-0.1-0.2-0.1-0.2c0-0.1,0-0.1,0-0.1   C211.7,47.1,211.8,47.1,211.8,47.1z M198,55.5c0.1,0,0.1,0,0.2,0c0,0,0.1,0,0.2,0c0.1,0,0.2,0.1,0.3,0.2l2.9,1.9l0,0l0.6-0.5l0,0   l-1.2-2.5l2.3,1.6l0,0l0.6-0.5l-1.4-3.2c-0.1-0.2-0.1-0.3-0.1-0.4c0-0.1,0-0.1,0-0.2c0-0.1,0-0.1,0.1-0.2l0,0l-0.2-0.2l-0.9,0.8   l0,0l0.2,0.2l0,0c0.1-0.1,0.1-0.1,0.2-0.1c0.1,0,0.1,0,0.2,0.1c0,0,0.1,0.1,0.1,0.2c0,0.1,0.1,0.2,0.1,0.3l0.8,1.8l-2.5-1.7l0,0   l-0.5,0.5l1.4,2.8l-1.7-1.1c-0.2-0.1-0.3-0.2-0.4-0.3c-0.1-0.1-0.1-0.1-0.1-0.2c0-0.1,0-0.1,0.1-0.2l0,0l-0.2-0.2l-1.2,1.1l0,0   L198,55.5L198,55.5z M257.3,80.1c-0.1,0-0.1,0.1-0.1,0.1c0,0-0.1,0-0.1,0c0,0-0.1,0-0.1,0c0,0-0.1,0-0.1-0.1c0,0-0.1-0.1-0.2-0.2   l-0.5-0.6l-0.4-1.7c0-0.2-0.1-0.3-0.1-0.4c0-0.1,0-0.2,0-0.2c0-0.1,0-0.1,0-0.1c0,0,0-0.1,0.1-0.1l0,0l-0.2-0.2l-0.9,0.8l0.2,0.2   l0,0c0.1,0,0.1-0.1,0.2-0.1c0,0,0.1,0,0.1,0.1c0,0.1,0.1,0.1,0.1,0.2c0,0.1,0.1,0.2,0.1,0.3l0.3,1.1l-1-0.5   c-0.1-0.1-0.2-0.1-0.3-0.1c-0.1,0-0.1-0.1-0.1-0.1c-0.1-0.1-0.1-0.2,0-0.3l0,0l-0.2-0.2l-1.2,1l0,0l-0.9,0.6l0,0l0.1,0.2l0,0   c0.1,0,0.1,0,0.2,0c0,0,0.1,0,0.1,0c0,0,0.1,0,0.1,0.1c0,0,0.1,0.1,0.2,0.2l0.3,0.5c0.3,0.5,0.6,0.9,0.8,1.2l0,0   c-0.2-0.1-0.3-0.2-0.5-0.3c-0.2-0.1-0.3-0.2-0.5-0.3l-1.8-1l0,0l-1,0.6l0,0L250,81l0,0c0.1,0,0.2,0,0.2,0c0,0,0.1,0,0.1,0.1   c0,0,0.1,0.1,0.2,0.2l1.3,2.1c0,0.1,0.1,0.1,0.1,0.2c0,0.1,0,0.1,0,0.1c0,0,0,0.1,0,0.1c0,0-0.1,0.1-0.1,0.1l0,0l0.1,0.2l0.9-0.6   l0,0l-0.1-0.2l0,0c-0.1,0-0.2,0-0.2,0c0,0-0.1,0-0.1-0.1c0,0-0.1-0.1-0.2-0.2l-0.5-0.8c-0.2-0.4-0.5-0.7-0.7-1.1   c0.2,0.1,0.4,0.2,0.7,0.4l2.3,1.2l0,0l0.6-0.4l0,0l-1.7-2.8c-0.1-0.1-0.1-0.2-0.1-0.2c0-0.1,0-0.1,0-0.1c0,0,0-0.1,0-0.1   c0,0,0.1-0.1,0.1-0.1l0,0l-0.1-0.1l0.1,0.1l0,0c0,0,0.1,0,0.1,0c0,0,0.1,0,0.1,0c0,0,0.1,0,0.2,0.1c0.1,0,0.2,0.1,0.3,0.1l1.7,0.8   l0.5,0.6c0.1,0.1,0.1,0.1,0.1,0.2c0,0,0.1,0.1,0.1,0.1c0,0,0,0.1,0,0.1c0,0-0.1,0.1-0.1,0.2l0,0l0.2,0.2l1.2-1l0,0L257.3,80.1   L257.3,80.1z M210,48.7c0.1,0.2,0.3,0.4,0.4,0.6c0.1,0.3,0.2,0.6,0.3,0.8c0,0.3,0,0.5,0,0.7c-0.1,0.2-0.1,0.4-0.3,0.6   c-0.1,0.2-0.3,0.3-0.5,0.5c-0.2,0.1-0.4,0.3-0.7,0.4l-1.2,0.6l-0.1-0.2l0,0c0.1,0,0.1-0.1,0.1-0.1c0,0,0-0.1,0-0.1c0,0,0-0.1,0-0.1   c0-0.1-0.1-0.1-0.1-0.2l-1.1-2.3c0-0.1-0.1-0.2-0.1-0.2c0-0.1-0.1-0.1-0.1-0.1c0,0-0.1,0-0.1,0c0,0-0.1,0-0.2,0l0,0l-0.1-0.2   l1.4-0.7c0.3-0.1,0.6-0.2,0.8-0.3c0.2,0,0.4-0.1,0.6,0c0.2,0,0.4,0.1,0.6,0.2C209.8,48.4,209.9,48.5,210,48.7z M209.8,50.6   c0-0.2-0.1-0.5-0.3-0.8c-0.2-0.3-0.3-0.6-0.5-0.8c-0.2-0.2-0.4-0.3-0.6-0.3c-0.2,0-0.4,0-0.7,0.1c-0.1,0-0.2,0.1-0.2,0.1l1.4,3   c0,0,0.1,0,0.2-0.1c0.2-0.1,0.3-0.2,0.5-0.3c0.1-0.1,0.1-0.2,0.2-0.3C209.8,51,209.8,50.8,209.8,50.6z M260,56.1L260,56.1l-0.2,0.1   l0,0c0,0.1,0,0.1,0,0.2c0,0,0,0.1,0,0.1c0,0-0.1,0.1-0.1,0.1c0,0-0.1,0.1-0.2,0.1l-2.1,1.5c-0.1,0.1-0.1,0.1-0.2,0.1   c-0.1,0-0.1,0-0.1,0.1c0,0-0.1,0-0.1,0c0,0-0.1-0.1-0.1-0.1l0,0l-0.2,0.1l1.7,2.4l1.1-0.7l-0.3-0.4l0,0c-0.1,0-0.2,0.1-0.3,0.1   c-0.1,0-0.2,0.1-0.3,0.1c-0.1,0-0.2,0-0.2,0c-0.1,0-0.1-0.1-0.2-0.2l-0.3-0.5l2.4-1.7c0.1-0.1,0.1-0.1,0.2-0.1c0.1,0,0.1,0,0.1,0   c0,0,0.1,0,0.1,0c0,0,0.1,0.1,0.1,0.1l0,0l0.2-0.1L260,56.1z M243.4,47.1l0.4,0.1l0.2-0.9l0,0c-0.2-0.1-0.4-0.2-0.5-0.2   c-0.2-0.1-0.3-0.1-0.5-0.2c-0.3-0.1-0.6-0.1-0.8-0.1c-0.2,0-0.5,0.1-0.6,0.2c-0.2,0.1-0.3,0.3-0.3,0.6c0,0.1-0.1,0.3,0,0.4   c0,0.1,0.1,0.3,0.1,0.4c0.1,0.1,0.1,0.2,0.2,0.4c0.1,0.1,0.2,0.2,0.3,0.3c0.1,0.1,0.3,0.3,0.3,0.4c0.1,0.1,0.1,0.2,0.1,0.3   c0,0.1,0,0.2,0,0.3c0,0.1-0.1,0.2-0.2,0.3c-0.1,0.1-0.2,0.1-0.3,0.1c-0.1,0-0.2,0-0.3,0c-0.2-0.1-0.4-0.2-0.4-0.3   c-0.1-0.1-0.1-0.3-0.1-0.6l0,0l-0.4-0.1l-0.2,0.9l0,0l0,0c0.2,0.1,0.4,0.2,0.6,0.3c0.2,0.1,0.4,0.1,0.6,0.2   c0.2,0.1,0.4,0.1,0.5,0.1c0.1,0,0.2,0,0.2,0c0.2,0,0.4-0.1,0.6-0.3c0.2-0.1,0.3-0.3,0.3-0.6c0.1-0.2,0.1-0.4,0-0.5   c0-0.2-0.1-0.3-0.2-0.5c-0.1-0.2-0.3-0.3-0.5-0.5c-0.2-0.2-0.3-0.3-0.4-0.4c-0.1-0.1-0.1-0.2-0.1-0.3c0-0.1,0-0.2,0-0.3   c0-0.1,0.1-0.2,0.1-0.2c0.1-0.1,0.1-0.1,0.2-0.1c0.1,0,0.2,0,0.3,0c0.1,0,0.2,0.1,0.3,0.1c0.1,0.1,0.1,0.1,0.1,0.2   C243.4,46.7,243.4,46.9,243.4,47.1L243.4,47.1z M197,59.2c0.1,0,0.3,0,0.4,0c0.1,0,0.3-0.1,0.4-0.1c0.1-0.1,0.3-0.1,0.4-0.2   c0.2-0.1,0.3-0.2,0.4-0.2c0.1,0,0.2,0,0.3,0c0.1,0,0.2,0.1,0.3,0.1c0.1,0.1,0.2,0.2,0.2,0.2c0,0.1,0,0.2,0,0.3   c0,0.1-0.1,0.2-0.1,0.3c-0.1,0.2-0.3,0.3-0.4,0.3c-0.2,0-0.3,0-0.6-0.1l0,0l-0.3,0.4l0.8,0.5l0,0l0,0c0.1-0.1,0.3-0.3,0.4-0.5   c0.1-0.2,0.3-0.3,0.4-0.5c0.2-0.2,0.3-0.5,0.3-0.7c0-0.2,0-0.5-0.1-0.7s-0.2-0.4-0.4-0.5c-0.2-0.1-0.3-0.2-0.5-0.2   c-0.2,0-0.3,0-0.5,0c-0.2,0-0.4,0.1-0.6,0.3c-0.2,0.1-0.4,0.2-0.5,0.2c-0.1,0-0.2,0.1-0.3,0c-0.1,0-0.2,0-0.3-0.1   c-0.1-0.1-0.1-0.1-0.2-0.2c0-0.1,0-0.2,0-0.3c0-0.1,0.1-0.2,0.1-0.3c0.1-0.1,0.2-0.2,0.2-0.2c0.1,0,0.2-0.1,0.3-0.1   c0.1,0,0.2,0,0.4,0.1l0,0l0.3-0.4l-0.7-0.5l0,0c-0.2,0.1-0.3,0.3-0.4,0.4c-0.1,0.1-0.2,0.3-0.3,0.4c-0.2,0.2-0.3,0.5-0.4,0.7   c-0.1,0.2-0.1,0.5,0,0.7c0.1,0.2,0.2,0.4,0.4,0.5C196.8,59.1,196.9,59.1,197,59.2z M254.4,55.6c0-0.5,0.3-0.9,0.7-1.4   c0.3-0.3,0.6-0.6,0.9-0.7c0.3-0.1,0.6-0.2,1-0.1c0.3,0.1,0.6,0.2,0.9,0.5c0.4,0.4,0.6,0.9,0.6,1.3c0,0.5-0.3,0.9-0.7,1.4   c-0.3,0.3-0.5,0.5-0.8,0.6c-0.3,0.1-0.5,0.2-0.7,0.2c0,0-0.1,0-0.1,0c-0.2,0-0.4,0-0.6-0.1c-0.2-0.1-0.4-0.2-0.6-0.4   C254.6,56.5,254.4,56,254.4,55.6z M255.3,56.6c0.1,0.1,0.2,0.2,0.4,0.2c0.1,0,0.3,0,0.4-0.1c0.1-0.1,0.3-0.2,0.5-0.3   c0.2-0.1,0.3-0.3,0.5-0.5c0.3-0.3,0.5-0.5,0.6-0.8c0.1-0.2,0.2-0.4,0.2-0.6c0-0.2-0.1-0.3-0.2-0.5c-0.2-0.2-0.4-0.2-0.7-0.1   c-0.3,0.1-0.6,0.4-1,0.8c-0.4,0.4-0.7,0.8-0.8,1.1C255.1,56.2,255.1,56.4,255.3,56.6z M255.1,52.1c0.1,0.5-0.1,1-0.5,1.5   c-0.2,0.3-0.4,0.6-0.7,0.7c-0.2,0.2-0.5,0.3-0.7,0.3c-0.1,0-0.2,0-0.3,0c-0.1,0-0.2,0-0.4,0c-0.2-0.1-0.5-0.2-0.7-0.3   c-0.5-0.3-0.8-0.7-0.8-1.2c-0.1-0.4,0.1-1,0.5-1.5c0.2-0.4,0.5-0.7,0.8-0.8c0.3-0.2,0.6-0.3,0.9-0.3c0.3,0,0.6,0.1,1,0.3   C254.7,51.2,255,51.6,255.1,52.1z M254.3,51.6c0-0.2-0.1-0.3-0.3-0.4c-0.1-0.1-0.2-0.1-0.4-0.1c-0.1,0-0.2,0-0.4,0.1   c-0.3,0.1-0.6,0.5-0.9,0.9c-0.3,0.5-0.5,0.9-0.6,1.2c0,0.3,0.1,0.5,0.3,0.7c0.1,0.1,0.2,0.1,0.4,0.1c0.1,0,0.3-0.1,0.4-0.1   c0.1-0.1,0.3-0.2,0.4-0.4c0.1-0.2,0.3-0.3,0.4-0.5c0.2-0.3,0.4-0.6,0.5-0.9C254.3,52,254.3,51.8,254.3,51.6z M245.7,47.6   c0.2-0.2,0.5-0.3,0.8-0.2c0.1,0.1,0.3,0.1,0.3,0.3c0.1,0.1,0.1,0.3,0,0.5l0,0l0.4,0.2l0.3-0.9l0,0c-0.1-0.1-0.3-0.2-0.4-0.3   c-0.1-0.1-0.3-0.1-0.5-0.2c-0.4-0.1-0.7-0.2-1.1-0.1c-0.3,0.1-0.6,0.2-0.9,0.5c-0.2,0.3-0.4,0.6-0.6,1c-0.2,0.4-0.2,0.8-0.2,1.1   c0,0.3,0.1,0.6,0.3,0.8c0.2,0.2,0.5,0.4,0.9,0.6c0.2,0.1,0.4,0.1,0.5,0.2c0.2,0,0.4,0.1,0.6,0.1l0,0l0.3-0.9l-0.4-0.2l0,0   c-0.1,0.1-0.2,0.3-0.3,0.3c-0.1,0.1-0.2,0.1-0.3,0.1c-0.1,0-0.2,0-0.3-0.1c-0.3-0.1-0.4-0.3-0.4-0.6c0-0.3,0-0.7,0.2-1.2   C245.2,48.2,245.4,47.8,245.7,47.6z M250.1,52.3l1.1-2.3c0-0.1,0.1-0.2,0.1-0.2c0,0,0.1-0.1,0.1-0.1c0,0,0.1,0,0.1,0   c0,0,0.1,0,0.2,0l0,0l0.1-0.2l-1.4-0.7l-0.1,0.2l0,0c0.1,0.1,0.1,0.1,0.1,0.2c0,0,0,0.1,0,0.1c0,0.1-0.1,0.2-0.1,0.3l-0.4,0.9   l-1.2-0.6l0.4-0.9c0.1-0.1,0.1-0.2,0.2-0.3c0,0,0.1-0.1,0.1-0.1c0,0,0.1,0,0.2,0l0,0l0.1-0.2l-1.4-0.7l-0.1,0.2l0,0   c0.1,0,0.1,0.1,0.1,0.1c0,0,0,0.1,0,0.1c0,0,0,0.1,0,0.1c0,0.1-0.1,0.1-0.1,0.2l-1.1,2.3c0,0.1-0.1,0.2-0.1,0.2   c0,0.1-0.1,0.1-0.1,0.1c0,0-0.1,0-0.1,0c0,0-0.1,0-0.2,0l0,0l-0.1,0.2l1.4,0.7l0.1-0.2l0,0c0,0-0.1-0.1-0.1-0.1c0,0,0-0.1-0.1-0.1   c0,0,0-0.1,0-0.1c0,0,0-0.1,0-0.1c0-0.1,0-0.1,0.1-0.2l0.5-1.1l1.2,0.6l-0.5,1.1c-0.1,0.1-0.1,0.2-0.2,0.3c0,0-0.1,0.1-0.1,0.1   c0,0-0.1,0-0.2,0l0,0l-0.1,0.2l1.4,0.7l0.1-0.2l0,0c-0.1-0.1-0.1-0.1-0.1-0.2c0,0,0-0.1,0-0.1C250,52.5,250,52.4,250.1,52.3z    M260.4,76.9l0.2,0.2l-1.1,1.2l-0.2-0.2l0,0c0.1-0.1,0.1-0.1,0.1-0.2c0-0.1,0-0.1-0.1-0.2c0,0-0.1-0.1-0.2-0.1   c-0.1,0-0.1-0.1-0.2-0.1l-0.2-0.1l-0.8,0.9l0.1,0.2c0,0.1,0.1,0.1,0.1,0.2c0,0.1,0.1,0.1,0.1,0.2c0.1,0.1,0.3,0.1,0.4,0l0,0   l0.2,0.2l-0.9,1l-0.2-0.2l0,0c0-0.1,0.1-0.1,0.1-0.2c0-0.1,0-0.1,0-0.2c0-0.1-0.1-0.2-0.1-0.3l-1.6-3.1l0,0l0.5-0.6l0,0l3.1,1.5   c0.1,0.1,0.2,0.1,0.3,0.1c0.1,0,0.1,0,0.2,0C260.3,77,260.4,76.9,260.4,76.9L260.4,76.9z M258.3,77.1l-1.4-0.7l0.8,1.4L258.3,77.1z    M240.2,84.9c0.1,0,0.1,0.1,0.2,0.1c0.1,0.1,0.1,0.2,0.2,0.3l0,0l0.4-0.1l-0.2-0.9l-2.8,0.6l0,0l0.1,0.2l0,0c0.1,0,0.1,0,0.2,0   c0,0,0.1,0,0.1,0.1c0,0,0,0.1,0.1,0.1c0,0.1,0,0.1,0.1,0.2l0.5,2.4c0,0.1,0,0.2,0,0.2c0,0.1,0,0.1,0,0.1c0,0,0,0.1-0.1,0.1   c0,0-0.1,0.1-0.1,0.1l0,0l0.1,0.2l1.6-0.4l-0.1-0.2l0,0c-0.1,0-0.1,0-0.2,0c0,0-0.1,0-0.1,0c0,0,0,0-0.1-0.1c0,0,0-0.1-0.1-0.1   c0,0,0-0.1-0.1-0.2l-0.2-1l0.3-0.1c0.1,0,0.1,0,0.2,0c0,0,0.1,0,0.1,0.1c0,0.1,0.1,0.1,0.1,0.3l0,0L241,87l-0.3-1.3l-0.4,0.1l0,0   c0,0.1,0,0.2,0,0.3c0,0.1,0,0.1-0.1,0.2c0,0-0.1,0.1-0.2,0.1l-0.3,0.1l-0.3-1.4l0.5-0.1C240,84.9,240.1,84.9,240.2,84.9z    M221.9,85.5L221.9,85.5c0.1,0,0.1,0.1,0.2,0.1c0,0,0.1,0.1,0.1,0.1c0,0,0,0.1,0,0.1c0,0.1,0,0.1,0,0.2l-0.3,2.5c0,0.1,0,0.2,0,0.2   c0,0.1,0,0.1-0.1,0.1c0,0-0.1,0.1-0.1,0.1c0,0-0.1,0-0.2,0l0,0l0,0.2l1.6,0.2l0-0.2l0,0c-0.1,0-0.1,0-0.1-0.1c0,0-0.1,0-0.1-0.1   c0,0,0-0.1,0-0.1c0,0,0-0.1,0-0.1c0-0.1,0-0.1,0-0.2l0.3-2.5c0-0.1,0-0.2,0-0.2c0-0.1,0-0.1,0.1-0.1c0,0,0-0.1,0.1-0.1   c0,0,0.1,0,0.2,0l0,0l0-0.2l-1.6-0.2L221.9,85.5z M217.8,88.5L217.8,88.5l0,0.2l-1.6-0.4l0.1-0.2l0,0c0.1,0,0.2,0,0.2,0   c0.1,0,0.1-0.1,0.1-0.2c0-0.1,0-0.1,0-0.2c0-0.1,0-0.2,0-0.3l0-0.3l-1.2-0.3l-0.2,0.2c0,0.1-0.1,0.1-0.1,0.2c0,0.1-0.1,0.1-0.1,0.2   c0,0.2,0,0.3,0.2,0.3l0,0l-0.1,0.2l-1.3-0.3l0.1-0.2l0,0c0.1,0,0.1,0,0.2,0c0.1,0,0.1-0.1,0.2-0.1c0.1-0.1,0.1-0.1,0.2-0.3l2-2.9   l0,0l0.8,0.2l0.1,3.4c0,0.1,0,0.3,0,0.3c0,0.1,0,0.1,0.1,0.2C217.6,88.4,217.7,88.4,217.8,88.5z M216.5,86.7l-0.1-1.6l-0.9,1.4   L216.5,86.7z M221.7,85.3l-3.4-0.6l0,0l-0.2,1.1l0.4,0.1l0,0c0-0.1,0.1-0.2,0.1-0.3c0-0.1,0.1-0.2,0.2-0.2c0.1,0,0.1-0.1,0.2-0.1   c0.1,0,0.1,0,0.3,0l0.2,0l-0.5,2.8c0,0.1,0,0.2,0,0.2c0,0.1,0,0.1-0.1,0.1c0,0-0.1,0.1-0.1,0.1c0,0-0.1,0-0.2,0l0,0l0,0.2l1.6,0.3   l0-0.2l0,0c-0.1,0-0.1,0-0.1-0.1c0,0-0.1,0-0.1-0.1c0,0,0,0,0-0.1c0,0,0-0.1,0-0.1c0-0.1,0-0.1,0-0.2l0.5-2.8l0.2,0   c0.1,0,0.1,0,0.2,0c0,0,0.1,0,0.1,0.1c0,0,0.1,0,0.1,0.1c0,0,0,0.1,0.1,0.1c0,0,0,0.1,0,0.2c0,0.1,0,0.2,0,0.3l0,0l0.4,0.1   L221.7,85.3z M230.3,85.7l0,0.2l0,0c0.1,0,0.1,0,0.2,0.1c0,0,0.1,0,0.1,0.1c0,0,0,0.1,0,0.1c0,0.1,0,0.1,0,0.3l0,0.5   c0,0.5,0,1,0.1,1.5h0c-0.1-0.2-0.2-0.3-0.3-0.5c-0.1-0.2-0.2-0.3-0.3-0.5l-1.1-1.8l0,0l-1.2,0l0,0.2l0,0c0.1,0,0.2,0.1,0.2,0.1   c0,0,0.1,0.1,0.1,0.1c0,0.1,0,0.2,0,0.3l0,2.5c0,0.1,0,0.2,0,0.2c0,0.1,0,0.1,0,0.1c0,0,0,0.1-0.1,0.1c0,0-0.1,0-0.2,0.1l0,0l0,0.2   l1.1,0l0-0.2l0,0c-0.1,0-0.2-0.1-0.2-0.1c0,0-0.1-0.1-0.1-0.1c0-0.1,0-0.2,0-0.3l0-0.9c0-0.4,0-0.9,0-1.3c0.1,0.2,0.2,0.4,0.4,0.7   l1.4,2.3l0.8,0l-0.1-3.3c0-0.1,0-0.2,0-0.3c0-0.1,0-0.1,0-0.1c0,0,0,0,0.1-0.1c0,0,0.1,0,0.2-0.1l0,0l0-0.2L230.3,85.7z M227,86.2   c0.3,0.4,0.4,0.9,0.4,1.5c0,0.4-0.1,0.7-0.2,0.9c-0.1,0.3-0.2,0.5-0.4,0.6c-0.2,0.2-0.4,0.3-0.6,0.3c-0.2,0.1-0.4,0.1-0.6,0.1   c-0.1,0-0.1,0-0.2,0c-0.6,0-1-0.2-1.3-0.6c-0.3-0.4-0.4-0.9-0.3-1.5c0-0.4,0.1-0.8,0.3-1.1c0.2-0.3,0.4-0.5,0.7-0.7   c0.3-0.1,0.6-0.2,1-0.2C226.3,85.7,226.7,85.9,227,86.2z M226.3,86.8c0-0.3-0.1-0.5-0.2-0.6c-0.1-0.1-0.3-0.2-0.4-0.2c0,0,0,0,0,0   c-0.2,0-0.4,0.1-0.6,0.4c-0.1,0.3-0.2,0.7-0.3,1.2c0,0.6,0,1,0.1,1.3c0.1,0.3,0.3,0.4,0.6,0.5c0.1,0,0.3,0,0.4-0.1   c0.1-0.1,0.2-0.2,0.3-0.3c0.1-0.1,0.1-0.3,0.2-0.5c0-0.2,0.1-0.4,0.1-0.6C226.4,87.4,226.4,87.1,226.3,86.8z M238,86.9   c0.1,0.4,0.1,0.7,0,1c0,0.3-0.1,0.5-0.3,0.7c-0.1,0.2-0.3,0.3-0.5,0.5c-0.2,0.1-0.5,0.2-0.7,0.2c-0.1,0-0.2,0-0.4,0   c-0.4,0-0.7-0.1-1-0.3c-0.3-0.3-0.6-0.8-0.6-1.4c-0.1-0.4,0-0.8,0-1.1c0.1-0.3,0.3-0.6,0.5-0.8c0.2-0.2,0.6-0.3,0.9-0.4   c0.6-0.1,1,0,1.4,0.3C237.7,85.8,237.9,86.3,238,86.9z M237.1,87.8c0-0.2,0-0.4-0.1-0.6c-0.1-0.4-0.1-0.7-0.2-0.9   c-0.1-0.2-0.2-0.4-0.4-0.5c-0.1-0.1-0.2-0.1-0.4-0.1c0,0-0.1,0-0.1,0c-0.3,0-0.4,0.2-0.5,0.5c-0.1,0.3-0.1,0.7,0,1.2   c0.1,0.6,0.2,1,0.4,1.3c0.2,0.3,0.4,0.4,0.7,0.3c0.1,0,0.3-0.1,0.3-0.2c0.1-0.1,0.2-0.2,0.2-0.4C237.1,88.2,237.1,88,237.1,87.8z    M211.2,83.3c0.2-0.2,0.5-0.3,0.8-0.2c0.1,0.1,0.2,0.1,0.3,0.3c0.1,0.1,0.1,0.3,0,0.5l0,0l0.4,0.2l0.3-0.8l0,0   c-0.1-0.1-0.3-0.2-0.4-0.3c-0.1-0.1-0.3-0.2-0.5-0.2c-0.4-0.1-0.7-0.2-1-0.1c-0.3,0.1-0.6,0.2-0.9,0.4c-0.2,0.2-0.5,0.6-0.6,1   c-0.2,0.4-0.2,0.8-0.2,1.1c0,0.3,0.1,0.6,0.3,0.8c0.2,0.2,0.5,0.4,0.8,0.6c0.2,0.1,0.4,0.1,0.5,0.2c0.2,0,0.4,0.1,0.6,0.1l0,0   L212,86l-0.4-0.2l0,0c-0.1,0.1-0.2,0.3-0.3,0.3c-0.1,0.1-0.2,0.1-0.3,0.1c-0.1,0-0.2,0-0.3-0.1c-0.3-0.1-0.4-0.3-0.4-0.6   c0-0.3,0.1-0.7,0.2-1.2C210.7,83.9,210.9,83.5,211.2,83.3z M202.4,80.9c0.1-0.1,0.2-0.3,0.2-0.4c0-0.2,0-0.3,0-0.5   c0-0.2-0.1-0.4-0.2-0.6c-0.1-0.2-0.1-0.4-0.2-0.5c0-0.1,0-0.2,0-0.3c0-0.1,0.1-0.2,0.1-0.3c0.1-0.1,0.1-0.1,0.2-0.2s0.2,0,0.3,0   c0.1,0,0.2,0.1,0.3,0.1c0.1,0.1,0.2,0.2,0.2,0.2c0,0.1,0,0.2,0,0.3c0,0.1-0.1,0.2-0.1,0.4l0,0l0.3,0.3l0.6-0.7l0,0   c-0.1-0.2-0.2-0.3-0.4-0.4c-0.1-0.1-0.2-0.2-0.4-0.3c-0.2-0.2-0.5-0.3-0.7-0.4c-0.2-0.1-0.4-0.1-0.7,0c-0.2,0.1-0.4,0.2-0.5,0.4   c-0.1,0.1-0.2,0.2-0.2,0.4c0,0.1-0.1,0.3-0.1,0.4c0,0.1,0,0.3,0.1,0.4c0,0.1,0.1,0.3,0.2,0.4c0.1,0.2,0.1,0.3,0.2,0.5   c0,0.1,0,0.2,0,0.3c0,0.1-0.1,0.2-0.1,0.3c-0.1,0.1-0.2,0.2-0.3,0.2s-0.2,0-0.3,0c-0.1,0-0.2-0.1-0.3-0.1c-0.2-0.1-0.3-0.3-0.3-0.4   c0-0.2,0-0.3,0.1-0.5l0,0l-0.3-0.3l-0.6,0.7l0,0c0.1,0.2,0.3,0.3,0.4,0.5c0.2,0.2,0.3,0.3,0.5,0.4c0.2,0.2,0.4,0.3,0.7,0.4   c0.1,0,0.2,0,0.3,0c0.1,0,0.2,0,0.3-0.1C202.1,81.2,202.3,81.1,202.4,80.9z M213.6,87.3C213.6,87.3,213.5,87.3,213.6,87.3   L213.6,87.3c-0.1-0.1-0.1-0.1-0.1-0.2c0,0,0-0.1,0-0.1c0-0.1,0-0.1,0.1-0.2l0.8-2.4c0-0.1,0.1-0.2,0.1-0.2c0,0,0-0.1,0.1-0.1   c0,0,0.1,0,0.1-0.1c0,0,0.1,0,0.2,0l0,0l0.1-0.2l-1.5-0.5l-0.1,0.2l0,0c0.1,0,0.1,0.1,0.1,0.1c0,0,0,0.1,0.1,0.1c0,0,0,0.1,0,0.1   c0,0.1,0,0.1-0.1,0.2l-0.8,2.4c0,0.1-0.1,0.2-0.1,0.2c0,0.1,0,0.1-0.1,0.1c0,0-0.1,0-0.1,0.1c0,0-0.1,0-0.2,0l0,0l-0.1,0.2l1.5,0.5   l0.1-0.2l0,0C213.7,87.4,213.6,87.3,213.6,87.3z M199.4,79.3c0,0.1,0,0.1,0,0.2c0,0.1,0,0.1,0.1,0.2l0,0l-0.2,0.2l-1.1-1.2l0.2-0.2   l0,0c0.1,0.1,0.1,0.1,0.2,0.1c0.1,0,0.1,0,0.2-0.1c0,0,0.1-0.1,0.1-0.1c0-0.1,0.1-0.1,0.2-0.2l0.1-0.2l-0.8-0.9l-0.3,0.1   c-0.1,0-0.1,0.1-0.2,0.1c-0.1,0-0.1,0.1-0.2,0.1c-0.1,0.1-0.1,0.2,0,0.4l0,0l-0.2,0.2l-0.9-1l0.2-0.2l0,0c0.1,0,0.1,0.1,0.2,0.1   c0.1,0,0.1,0,0.2,0c0.1,0,0.2-0.1,0.3-0.1l3.2-1.3l0.5,0.6l0,0l-1.8,2.9C199.5,79.1,199.4,79.2,199.4,79.3z M199.4,77.5l0.8-1.4   l-1.5,0.6L199.4,77.5z M205,79.9c0.1,0,0.2,0,0.3,0c0.1,0,0.2,0.1,0.3,0.1c0.1,0.1,0.2,0.1,0.2,0.2c0,0.1,0.1,0.2,0.1,0.3   c0,0.1,0,0.2-0.1,0.4l0,0l0.4,0.2l0.5-0.7l0,0c-0.1-0.1-0.3-0.3-0.4-0.4c-0.1-0.1-0.3-0.2-0.4-0.3c-0.2-0.2-0.5-0.3-0.7-0.3   c-0.2-0.1-0.5,0-0.7,0c-0.2,0.1-0.4,0.2-0.5,0.4c-0.1,0.1-0.1,0.2-0.2,0.4c0,0.1,0,0.3,0,0.4c0,0.1,0.1,0.3,0.1,0.4   c0.1,0.1,0.1,0.3,0.2,0.4c0.1,0.2,0.2,0.3,0.2,0.4c0,0.1,0.1,0.2,0,0.3c0,0.1,0,0.2-0.1,0.3c-0.1,0.1-0.1,0.2-0.2,0.2   c-0.1,0-0.2,0.1-0.3,0c-0.1,0-0.2-0.1-0.3-0.1c-0.2-0.1-0.3-0.3-0.3-0.4c0-0.2,0-0.3,0.1-0.6l0,0l-0.4-0.2l-0.5,0.8l0,0   c0.1,0.1,0.3,0.3,0.5,0.4c0.2,0.1,0.3,0.3,0.5,0.4c0.2,0.2,0.5,0.3,0.7,0.3c0.1,0,0.1,0,0.2,0c0.2,0,0.3,0,0.4-0.1   c0.2-0.1,0.4-0.2,0.5-0.4c0.1-0.2,0.2-0.3,0.2-0.5c0-0.2,0-0.3,0-0.5c0-0.2-0.1-0.4-0.3-0.6c-0.1-0.2-0.2-0.3-0.2-0.5   c0-0.1-0.1-0.2,0-0.3c0-0.1,0-0.2,0.1-0.3C204.8,79.9,204.9,79.9,205,79.9z M248.3,85.7c-0.1,0-0.1,0-0.2,0h0c0,0-0.1,0-0.1,0   c0,0-0.1-0.1-0.2-0.1c-0.1,0-0.2-0.1-0.3-0.2l-1.5-1.1l0.5-1.2c0.1-0.1,0.1-0.3,0.1-0.3c0-0.1,0.1-0.1,0.1-0.2c0,0,0.1-0.1,0.2-0.1   l0,0l-0.1-0.2l-1.4,0.5l0.1,0.2l0,0c0.1,0,0.1,0,0.2,0c0,0,0.1,0.1,0.1,0.1c0,0.1,0,0.1,0,0.2c0,0.1,0,0.2,0,0.3   c0,0.1-0.1,0.3-0.2,0.5c-0.1,0.2-0.1,0.4-0.2,0.4c0,0.1-0.1,0.1-0.1,0.1c0,0-0.1,0.1-0.2,0.1l0,0l-0.4-0.9c0-0.1-0.1-0.2-0.1-0.2   c0-0.1,0-0.1,0-0.1c0,0,0-0.1,0-0.1c0,0,0.1-0.1,0.1-0.1l0,0l-0.1-0.2l-1.5,0.6l0.1,0.2l0,0c0.1,0,0.1,0,0.2,0c0,0,0.1,0,0.1,0.1   c0,0,0.1,0.1,0.1,0.1c0,0.1,0.1,0.1,0.1,0.2l0.9,2.3c0,0.1,0.1,0.2,0.1,0.2c0,0.1,0,0.1,0,0.1c0,0,0,0.1,0,0.1c0,0-0.1,0.1-0.1,0.1   l0,0l0.1,0.2l1.5-0.6l-0.1-0.2l0,0c-0.1,0-0.1,0-0.1,0c0,0-0.1,0-0.1,0c0,0-0.1,0-0.1-0.1c0,0,0-0.1-0.1-0.1c0-0.1,0-0.1-0.1-0.2   l-0.4-1.1l0,0c0.1,0,0.1,0,0.2,0c0,0,0.1,0,0.1,0c0.1,0,0.1,0.1,0.2,0.1l0.7,0.5c0.2,0.1,0.2,0.2,0.3,0.2c0,0,0.1,0.1,0.1,0.1   c0,0,0,0,0,0.1c0,0,0,0.1,0,0.1c0,0,0,0-0.1,0.1l0,0l0.1,0.2l1.5-0.6L248.3,85.7L248.3,85.7z M250.6,83.7L250.6,83.7   c0,0.1,0,0.2,0,0.3c0,0.1,0,0.1,0,0.2c0,0,0,0.1,0,0.1c0,0,0,0.1-0.1,0.1c0,0-0.1,0.1-0.1,0.1c0,0-0.1,0.1-0.1,0.1l-0.5,0.3   l-0.7-1.4l0.3-0.2c0.1,0,0.1-0.1,0.2-0.1c0,0,0.1,0,0.1,0.1c0.1,0,0.1,0.1,0.2,0.2l0,0l0.3-0.2l-0.5-1.1l-0.3,0.2l0,0   c0,0.1,0,0.2,0,0.3c0,0.1,0,0.1-0.1,0.1c0,0-0.1,0.1-0.2,0.1l-0.3,0.2l-0.6-1.2l0.5-0.3c0.1-0.1,0.2-0.1,0.3-0.1   c0.1,0,0.1,0,0.2,0.1c0.1,0,0.2,0.1,0.3,0.3l0,0l0.4-0.2l-0.4-0.9l-2.6,1.3l0.1,0.2l0,0c0.1,0,0.1,0,0.2,0c0,0,0.1,0,0.1,0   c0,0,0.1,0.1,0.1,0.1c0,0.1,0.1,0.1,0.1,0.2l1.1,2.3c0,0.1,0.1,0.2,0.1,0.2c0,0.1,0,0.1,0,0.1c0,0,0,0.1,0,0.1c0,0-0.1,0.1-0.1,0.1   l0,0l0.1,0.2l2.6-1.3l0,0l-0.4-1L250.6,83.7z M209.1,83.8c-0.2,0.3-0.4,0.6-0.5,0.8c-0.2,0.2-0.4,0.3-0.6,0.4   c-0.2,0.1-0.3,0.1-0.5,0.1c-0.1,0-0.1,0-0.2,0c-0.2,0-0.5-0.1-0.7-0.2c-0.5-0.3-0.8-0.6-0.9-1c-0.1-0.4,0-1,0.3-1.5   c0.2-0.4,0.4-0.7,0.7-0.9c0.3-0.2,0.6-0.3,0.9-0.4c0.3,0,0.6,0.1,1,0.2c0.5,0.3,0.8,0.6,0.9,1.1C209.5,82.7,209.4,83.2,209.1,83.8z    M208.6,81.9c0-0.2-0.2-0.3-0.3-0.4c-0.1-0.1-0.2-0.1-0.3-0.1c-0.1,0-0.3,0-0.4,0.1c-0.2,0.2-0.5,0.5-0.7,1   c-0.3,0.5-0.4,0.9-0.4,1.2c0,0.3,0.1,0.5,0.4,0.7c0.1,0.1,0.3,0.1,0.4,0.1c0.1,0,0.2-0.1,0.4-0.2c0.1-0.1,0.2-0.2,0.4-0.4   c0.1-0.2,0.2-0.3,0.3-0.6c0.2-0.3,0.3-0.6,0.4-0.9C208.6,82.3,208.6,82.1,208.6,81.9z"></path>
</g>
</svg>
